<svg xmlns="http://www.w3.org/2000/svg" width="451" height="233" viewBox="0 0 451 233" fill="none"><path d="M77.9358 42.0751C77.9358 42.0751 86.7028 58.596 71.9401 75.5699C57.1775 92.5437 27.6675 94.4016 30.6154 129.309C33.5634 164.216 82.4267 173.398 97.8419 192.867C113.257 212.336 144.748 240.787 193.941 225.617C243.135 210.447 299.214 163.433 302.185 133.163C305.156 102.892 287.783 14.1077 242.321 2.3926C196.858 -9.32252 192.083 29.0395 166.489 32.9625C140.894 36.8854 59.327 1.0568 77.9358 42.0751Z" fill="#F2F4FA"></path><path fill-rule="evenodd" clip-rule="evenodd" d="M58.544 128.971C58.1448 123.935 55.3888 118.991 50.8671 116.412C48.257 114.938 45.2246 114.316 42.4763 113.087C39.7279 111.859 37.1024 109.702 36.734 106.815C36.4653 104.72 37.4479 102.677 37.9239 100.612C38.3785 98.4674 38.2992 96.2437 37.6928 94.1366C37.0864 92.0296 35.9715 90.1038 34.4462 88.5287C29.3641 83.2009 20.1058 81.9956 16.7433 75.5239C16.336 74.459 15.7606 73.4663 15.0391 72.5836C14.2253 71.7698 12.736 71.4167 11.8992 72.2151C11.6486 72.5382 11.4669 72.9093 11.3652 73.3054C11.2636 73.7015 11.2441 74.1143 11.3081 74.5182C11.2822 76.4522 11.5014 78.3817 11.9606 80.2606C13.1582 84.4138 16.513 87.5921 19.2997 90.9623C22.0865 94.3325 24.4893 98.6393 23.2764 102.785C22.7772 104.134 22.1926 105.449 21.526 106.723C20.6125 108.811 20.221 111.245 21.1575 113.325C22.8388 117.08 28.0207 118.316 30.1165 121.878C31.8898 124.879 30.9609 128.687 29.3488 131.781C27.7366 134.875 25.5641 137.738 24.7427 141.086C23.4836 146.083 25.4566 151.25 27.5217 155.987C28.4122 158.036 29.3795 160.14 31.1068 161.606C32.222 162.489 33.4818 163.172 34.8301 163.625C37.0794 164.462 39.5667 165.007 41.9005 164.431C47.4893 163.065 49.1475 157.154 49.7002 152.371C50.299 147.166 54.6979 143.581 56.7322 138.852C58.1314 135.755 58.7533 132.363 58.544 128.971Z" fill="#B7D2F9"></path><path fill-rule="evenodd" clip-rule="evenodd" d="M29.1875 91.7991C28.5817 91.1663 27.91 90.6001 27.1838 90.1102C26.4511 89.6382 25.6809 89.2274 24.8807 88.8818C24.1131 88.5287 23.2993 88.1909 22.5777 87.7917C21.8561 87.4012 21.1813 86.9299 20.5663 86.3868C19.7847 85.7063 19.107 84.9148 18.555 84.0376C18.0358 83.2163 17.6836 82.3006 17.5186 81.343C18.0847 83.386 19.2866 85.1956 20.9502 86.5096C21.9854 87.3004 23.1347 87.9295 24.3587 88.3752C24.321 88.3386 24.2921 88.294 24.2743 88.2446C24.1822 88.0604 24.1361 87.8147 24.044 87.6228L23.9442 87.3848C23.6148 86.6516 23.2191 85.9501 22.7619 85.289C22.6545 85.1355 22.5854 84.9435 22.4625 84.7823C22.2156 84.4819 21.9875 84.1665 21.7793 83.838C21.4412 83.4309 21.1406 82.9941 20.8811 82.533C20.789 82.4024 20.6201 82.3103 20.6278 82.1337L21.3263 82.8477C21.5413 83.078 21.7946 83.2776 22.0173 83.5156C22.2399 83.7536 22.6007 84.1912 22.9078 84.5443C23.1921 84.9109 23.456 85.2928 23.6985 85.6882C24.1101 86.2758 24.4406 86.9162 24.6811 87.5921C24.804 87.9529 24.9345 88.3598 24.7502 88.5441H24.6965C25.3644 88.8281 26.0476 89.1198 26.7002 89.473C27.0072 89.6419 27.3066 89.8261 27.5984 90.018C27.4986 89.8491 27.4141 89.6342 27.322 89.4576L27.1992 89.2043C26.8307 88.4366 26.5236 87.6689 26.1398 86.9012C26.0553 86.7169 25.9939 86.5173 25.8941 86.3331C25.6561 85.9032 25.4335 85.6575 25.2492 85.312C24.9067 84.8752 24.5266 84.4693 24.1131 84.0991C23.9826 83.9993 23.783 83.9686 23.7062 83.8073C24.048 83.9342 24.3709 84.1073 24.6658 84.3217C24.9575 84.5152 25.23 84.7363 25.4795 84.9819C25.8081 85.3437 26.1036 85.7342 26.3624 86.1488C26.6256 86.5616 26.864 86.9898 27.0763 87.4309C27.3527 88.0067 27.7519 88.8204 28.0052 89.4269C28.1511 89.7801 28.3584 90.1332 28.2202 90.3712C28.177 90.3786 28.1329 90.3786 28.0897 90.3712C29.0866 91.1091 29.9733 91.9855 30.7229 92.9737C30.7229 92.7818 30.7229 92.5822 30.7229 92.3979V92.0832C30.6995 91.1465 30.5205 90.2203 30.1932 89.3425C30.1087 89.1429 30.055 88.9126 29.9552 88.6976C29.7269 88.3017 29.5194 87.8943 29.3333 87.4769C29.0222 86.941 28.6733 86.4279 28.2893 85.9415C28.1588 85.811 27.9515 85.7419 27.8824 85.5577C28.2406 85.7616 28.5645 86.0207 28.842 86.3254C29.12 86.597 29.3766 86.8896 29.6097 87.2006C29.9091 87.6458 30.1624 88.0988 30.4465 88.5824C30.7248 89.0653 30.9414 89.5811 31.0913 90.1178C31.3018 90.9329 31.4101 91.771 31.4138 92.6129C31.4138 93.0274 31.4138 93.442 31.2526 93.6493C31.7833 94.4642 32.2186 95.3374 32.55 96.2518V95.8756C32.6651 94.724 32.834 93.6416 32.8801 92.5207C32.8995 92.2524 32.8995 91.983 32.8801 91.7147C32.7968 91.1949 32.6763 90.6817 32.5192 90.1793C32.2045 89.5421 31.9512 88.782 31.6134 88.1909C31.5059 88.0067 31.314 87.8378 31.3063 87.6228C31.5903 87.9836 31.8667 88.3905 32.1201 88.7437C32.4053 89.1068 32.6693 89.4862 32.9108 89.8799C33.1947 90.4683 33.3838 91.0979 33.4712 91.7454C33.5402 92.3935 33.5402 93.0472 33.4712 93.6953C33.4021 94.5244 33.3023 95.7144 33.1948 96.5665C33.1774 96.9329 33.1076 97.2948 32.9875 97.6413C33.1465 98.297 33.2518 98.9646 33.3023 99.6373C33.3484 100.215 33.3484 100.795 33.3023 101.372C33.855 100.267 34.3617 99.1767 34.8377 98.0328C34.9682 97.6951 35.1371 97.3496 35.2445 96.9888C35.435 96.2877 35.5786 95.5747 35.6744 94.8546C35.7427 93.8609 35.6494 92.8627 35.3981 91.8989C35.2586 91.6379 35.1479 91.3624 35.068 91.0775C35.4201 91.6138 35.6796 92.2055 35.8357 92.8278C35.9933 93.4221 36.0809 94.0327 36.0967 94.6473C36.0799 95.5256 35.9483 96.3979 35.7052 97.2421C35.4648 98.0959 35.1594 98.93 34.7916 99.7371C34.2763 100.974 33.6866 102.179 33.0259 103.345L32.9568 103.46C32.9108 103.637 32.8647 103.829 32.8033 104.006C32.7419 104.182 32.6421 104.489 32.5653 104.773C33.1718 103.952 33.809 103.176 34.4308 102.37C34.6381 102.102 34.8837 101.848 35.0833 101.557C35.4192 100.971 35.7192 100.366 35.9815 99.7448C36.3251 98.893 36.5048 97.984 36.5112 97.0655C36.4439 96.8018 36.4053 96.5315 36.3961 96.2594C36.6037 96.8134 36.6977 97.4034 36.6724 97.9945C36.6623 98.563 36.5797 99.128 36.4268 99.6757C36.1652 100.45 35.8067 101.187 35.3597 101.871C34.9298 102.562 34.4078 103.222 33.9164 103.867C33.2562 104.712 32.3811 105.948 31.8207 106.869L31.4368 107.506C31.36 107.698 31.2909 107.89 31.2219 108.082C31.1528 108.274 31.1528 108.266 31.1221 108.351C31.1352 108.432 31.1352 108.515 31.1221 108.596C31.0845 108.608 31.0445 108.608 31.0069 108.596C30.5785 109.732 30.3651 110.937 30.3774 112.151C30.3966 112.83 30.5424 113.499 30.8073 114.124C31.0854 114.756 31.4639 115.34 31.9281 115.851C32.0817 116.02 32.2506 116.174 32.4194 116.327C32.3255 116.153 32.2409 115.973 32.1661 115.79C32.097 115.606 32.0356 115.429 31.9895 115.26C31.7779 114.467 31.6848 113.647 31.7132 112.826C31.7279 112.024 31.8153 111.225 31.9742 110.439C32.051 110.063 32.1891 109.671 32.2966 109.318C32.4688 108.587 32.7264 107.878 33.0643 107.207C33.4748 106.262 34.0176 105.381 34.6765 104.589C34.8225 104.32 35.0209 104.082 35.2599 103.89C34.8991 104.42 34.5613 104.958 34.2542 105.51C33.9471 106.063 33.7552 106.585 33.4865 107.145C32.818 108.725 32.4234 110.408 32.3197 112.12C32.2022 113.41 32.3889 114.708 32.8647 115.913C33.1411 116.534 33.6324 117.01 33.7399 117.364C33.7399 117.364 33.6938 117.364 33.6785 117.364C34.204 117.724 34.7528 118.05 35.3213 118.339C35.6898 118.53 36.089 118.707 36.4575 118.884C35.9498 118.371 35.5134 117.793 35.1601 117.164C35.0833 116.995 35.0219 116.811 34.9451 116.634C34.7638 116.313 34.6318 115.966 34.5536 115.606C34.386 115.137 34.2978 114.644 34.2926 114.147C34.2926 114.001 34.1851 113.847 34.2926 113.717C34.3771 114.009 34.4615 114.3 34.5536 114.592C34.6457 114.884 34.7916 115.114 34.9068 115.36C35.0598 115.737 35.2368 116.103 35.4365 116.458C35.9774 117.394 36.6821 118.226 37.5169 118.914C37.7702 119.137 38.062 119.306 38.0773 119.559L39.6127 120.212C40.5615 120.621 41.4755 121.106 42.3457 121.663C42.2072 121.395 42.0481 121.138 41.8697 120.895L41.4935 120.411C40.319 118.96 38.9064 117.793 37.7395 116.243C37.4803 115.867 37.242 115.478 37.0256 115.076C36.5573 114.331 36.2004 113.521 35.9662 112.673C35.5836 111.55 35.4093 110.366 35.4518 109.18C35.4057 108.834 35.4265 108.482 35.5132 108.143C35.5129 108.872 35.5746 109.598 35.6975 110.316C35.8286 110.996 36.016 111.663 36.2579 112.312C36.5704 113.257 36.9929 114.161 37.5169 115.007C38.0815 115.857 38.7296 116.649 39.4515 117.371C40.6311 118.459 41.7008 119.659 42.6451 120.956C42.9405 121.386 43.166 121.861 43.313 122.361C43.4204 122.446 43.5433 122.523 43.6507 122.615C44.7023 123.495 45.6135 124.53 46.353 125.685C46.3494 125.66 46.3494 125.634 46.353 125.609L46.1995 124.948C45.7106 122.957 44.8483 121.076 43.6584 119.406C43.387 118.99 43.0949 118.587 42.7832 118.2C42.0156 117.302 41.3937 116.765 40.7949 116.028C39.8223 115.1 39.0126 114.015 38.3997 112.819C38.1767 112.496 38.025 112.13 37.9545 111.744C38.2843 112.498 38.7157 113.203 39.2365 113.84C39.7472 114.445 40.2932 115.019 40.8717 115.559C41.6394 116.327 42.4992 117.141 43.2899 118.031C44.0771 118.924 44.7573 119.906 45.3166 120.956C45.7387 121.737 46.0956 122.551 46.3837 123.39C46.6739 124.237 46.8872 125.108 47.0209 125.993C47.0823 126.384 47.1284 126.76 47.1514 127.152C47.6496 128.154 48.0234 129.214 48.2645 130.307C48.48 128.542 48.5263 126.761 48.4027 124.987C48.4027 124.411 48.4027 123.805 48.2799 123.206C48.0874 122.056 47.8311 120.918 47.5122 119.797C47.2077 119.048 46.8215 118.335 46.3607 117.671C45.8767 117.03 45.3145 116.452 44.6871 115.951C44.3109 115.644 43.7966 115.421 43.5509 115.045C44.4515 115.567 45.302 116.171 46.092 116.849C46.8531 117.529 47.467 118.357 47.896 119.283C48.4327 120.574 48.8141 121.924 49.0322 123.306C49.2755 124.707 49.3911 126.128 49.3777 127.551C49.3834 129.706 49.1098 131.853 48.5639 133.938L48.4948 134.199C49.2892 132.864 49.982 131.47 50.5676 130.031C50.8284 129.42 51.0539 128.794 51.2432 128.157C51.4105 127.493 51.5184 126.814 51.5656 126.131C51.6193 125.517 51.627 124.941 51.6347 124.311C51.5208 122.529 50.9697 120.802 50.0302 119.283C49.6602 118.893 49.3116 118.483 48.9862 118.054C49.8947 118.781 50.6357 119.695 51.1587 120.734C51.6692 121.716 52.0216 122.774 52.2028 123.866C52.4051 125.436 52.3114 127.029 51.9264 128.564C51.5386 130.117 50.9637 131.618 50.2145 133.032C49.5466 134.391 48.5332 136.103 47.5966 137.585C47.3761 138.216 47.1198 138.833 46.829 139.435C46.6985 139.727 46.5526 140.003 46.4144 140.279C47.9498 138.875 49.5543 137.608 51.0205 136.157C51.5647 135.654 52.0775 135.118 52.5559 134.552C53.4407 133.409 54.1568 132.145 54.6824 130.798C55.2784 128.931 55.4951 126.963 55.3196 125.01C55.1688 124.448 55.0585 123.876 54.9895 123.298C55.4202 124.47 55.6613 125.704 55.7034 126.952C55.8816 129.936 54.9337 132.878 53.0472 135.197C51.9208 136.572 50.6664 137.837 49.3009 138.974C47.7102 140.322 46.2052 141.769 44.7946 143.304C44.3186 144.072 43.8503 144.909 43.4051 145.692C42.7449 146.843 42.1384 147.995 41.624 149.085C43.121 147.108 44.9749 145.428 47.09 144.133C47.6657 143.796 48.3183 143.573 48.9248 143.273C50.0703 142.721 51.1388 142.022 52.103 141.193C53.3223 139.967 54.3754 138.586 55.2352 137.086C55.4108 136.608 55.651 136.156 55.9491 135.742C55.5762 136.759 55.1244 137.744 54.598 138.69C54.1221 139.627 53.5427 140.508 52.8707 141.316C52.3464 141.891 51.7593 142.406 51.1203 142.851C50.4663 143.276 49.7869 143.661 49.086 144.003C47.742 144.649 46.4941 145.478 45.378 146.467C43.7336 148.003 42.2447 149.698 40.9331 151.526C40.7505 151.789 40.5814 152.06 40.4264 152.34C40.1287 153.577 39.9869 154.845 40.0042 156.117C40.0426 155.994 40.0887 155.864 40.1347 155.749C40.9009 153.837 41.986 152.069 43.3437 150.521C43.6661 150.16 44.0576 149.837 44.4184 149.484C45.088 148.788 45.847 148.184 46.6754 147.688C47.7502 146.906 48.9606 146.331 50.2452 145.991C50.5915 145.81 50.9753 145.713 51.366 145.707C50.602 145.983 49.8581 146.311 49.1397 146.69C48.4818 147.073 47.8531 147.504 47.2589 147.979C46.3878 148.619 45.5805 149.342 44.8483 150.137C44.1089 150.945 43.4338 151.81 42.8293 152.724C41.9222 154.104 41.202 155.599 40.6875 157.169C40.4955 157.745 40.3957 158.343 40.2268 158.781C40.3738 159.632 40.5738 160.473 40.8256 161.299C40.9024 161.092 40.9869 160.885 41.0559 160.693C41.125 160.501 41.1634 160.401 41.2172 160.278C41.758 159.052 42.427 157.886 43.2131 156.8C43.4051 156.555 43.6431 156.324 43.858 156.033C44.2083 155.511 44.6237 155.037 45.094 154.62C45.6564 153.974 46.2958 153.399 46.9979 152.908C47.1898 152.755 47.3203 152.478 47.5966 152.455L46.5603 153.645C46.2378 154.014 45.9768 154.413 45.6621 154.835C45.2475 155.388 44.7946 155.933 44.4031 156.532C44.0115 157.13 43.6354 157.714 43.2592 158.343C42.7358 159.288 42.2668 160.262 41.8543 161.261C41.6471 161.744 41.5242 162.266 41.2018 162.474L41.2709 162.696C41.148 162.64 41.0421 162.553 40.9638 162.443C40.8736 162.386 40.7996 162.307 40.7489 162.213C40.5535 162.22 40.3591 162.184 40.1788 162.108C39.9986 162.033 39.8368 161.919 39.7048 161.775C39.321 161.407 38.9371 160.885 38.5072 160.478L38.0312 159.963C36.565 158.39 35.1294 156.954 33.7783 155.273C33.4712 154.881 33.2102 154.428 32.9031 154.006C32.2858 153.23 31.7699 152.379 31.3677 151.473C30.7135 150.301 30.2961 149.013 30.1394 147.68C30.0047 147.309 29.9703 146.909 30.0396 146.521C30.1804 147.325 30.3963 148.114 30.6845 148.878C30.9879 149.597 31.3445 150.292 31.7516 150.958C32.2992 151.932 32.9257 152.858 33.6247 153.73C34.331 154.597 35.0987 155.495 35.9278 156.347C36.9718 157.461 38.5763 159.004 39.605 160.232L39.9658 160.647C39.8353 160.324 39.7125 159.979 39.5973 159.602C39.3678 159.371 39.1668 159.114 38.9985 158.835C38.5763 158.159 38.108 157.246 37.7011 156.532C37.5169 156.209 37.348 155.894 37.1945 155.603C35.7132 152.819 34.4703 149.914 33.4789 146.92C33.2639 146.214 33.1104 145.461 32.9261 144.709C32.5219 143.282 32.2596 141.819 32.1431 140.341C31.8507 138.354 31.8301 136.337 32.0817 134.345C32.0687 133.757 32.1543 133.17 32.335 132.61C32.2301 133.846 32.2019 135.087 32.2506 136.326C32.3223 137.502 32.4607 138.673 32.6651 139.834C32.9151 141.503 33.282 143.153 33.7629 144.77C34.2495 146.433 34.8261 148.068 35.4902 149.668C36.3423 151.78 37.7933 154.712 38.9371 156.808C39.0062 156.946 39.0753 157.084 39.1521 157.223C39.1521 156.892 39.0983 156.562 39.0907 156.217C38.9604 155.949 38.8649 155.665 38.8066 155.372C38.6454 154.605 38.5379 153.637 38.4228 152.824C38.3767 152.471 38.3307 152.125 38.2923 151.81C37.957 148.784 37.793 145.742 37.8009 142.698C37.8009 141.984 37.8854 141.247 37.9007 140.502C37.9173 139.085 37.8609 137.668 37.7319 136.257C37.3733 134.328 36.6713 132.479 35.6591 130.798C35.299 130.343 34.9997 129.842 34.7686 129.309C35.5214 130.288 36.2112 131.313 36.8337 132.38C37.449 133.412 37.9094 134.53 38.2001 135.696C38.5089 137.354 38.6452 139.039 38.607 140.725C38.607 142.375 38.6531 144.087 38.7529 145.776C38.845 147.695 39.0907 150.329 39.3363 152.471C39.3852 152.321 39.4442 152.175 39.5129 152.033C39.7502 151.113 40.0555 150.213 40.4264 149.338C40.3985 149.096 40.3985 148.851 40.4264 148.609C40.5202 147.732 40.6612 146.861 40.8487 145.999L41.0713 144.985C41.7852 141.915 42.6067 139.09 42.6067 136.034C42.6067 135.696 42.6067 135.335 42.6067 134.959C42.6067 134.583 42.5376 134.23 42.4685 133.869C42.1358 132.479 41.5811 131.152 40.8256 129.939C39.6789 128.292 38.1886 126.915 36.4575 125.9C35.8985 125.675 35.3526 125.419 34.8223 125.133C36.0602 125.501 37.2297 126.069 38.2846 126.814C39.3049 127.491 40.2183 128.316 40.9945 129.263C42.0868 130.65 42.8434 132.271 43.2055 134C43.5265 135.742 43.5447 137.526 43.2592 139.274C42.9752 141.485 42.1307 144.486 41.6701 146.72L41.7776 146.521C41.8061 146.205 41.8865 145.897 42.0156 145.607C42.4102 144.787 42.897 144.014 43.4665 143.304C43.4665 143.266 43.5356 143.227 43.5663 143.181C43.5297 142.836 43.5717 142.487 43.6891 142.16C43.8523 141.692 44.0579 141.24 44.3033 140.809C44.5259 140.372 44.7408 139.926 44.9174 139.512C45.094 139.097 45.1938 138.798 45.3089 138.468C46.4221 135.282 46.5526 131.873 44.9251 128.879C44.559 128.153 44.1163 127.469 43.6047 126.837C42.5163 125.644 41.2655 124.61 39.8891 123.766C37.9039 122.693 35.7842 121.89 33.5863 121.379C32.9193 121.313 32.2592 121.189 31.6134 121.01C33.0402 121.113 34.4554 121.339 35.8433 121.686C37.1855 121.995 38.4904 122.448 39.7355 123.037C41.5281 123.911 43.1241 125.142 44.4261 126.653C45.7543 128.175 46.6363 130.035 46.9748 132.027C47.2169 133.497 47.1987 134.999 46.9211 136.464C46.9211 136.625 46.852 136.779 46.8136 136.94C46.9595 136.518 47.0823 136.088 47.1898 135.65C47.2059 135.49 47.2316 135.331 47.2665 135.174C47.2665 135.013 47.351 134.852 47.3971 134.675C47.6016 133.469 47.6146 132.239 47.4354 131.029C47.043 128.485 45.8771 126.123 44.096 124.265C43.2067 123.31 42.1699 122.504 41.0252 121.878C40.5493 121.617 40.0656 121.379 39.5666 121.148C39.1905 121.033 38.7989 120.895 38.3997 120.803L37.7856 120.642C35.9048 120.127 34.1007 119.705 32.2659 119.029C31.836 118.868 31.4215 118.661 30.9915 118.469C30.1519 118.133 29.3556 117.697 28.6194 117.172C27.564 116.536 26.6538 115.686 25.9478 114.677C25.706 114.422 25.5226 114.118 25.4105 113.786C25.8169 114.393 26.2936 114.949 26.8307 115.444C27.3607 115.914 27.9339 116.333 28.5426 116.696C29.4037 117.24 30.3135 117.702 31.2602 118.078C32.2426 118.46 33.2446 118.791 34.2619 119.068L35.7973 119.467C34.0841 118.709 32.5489 117.6 31.2909 116.212C31.1632 116.18 31.0395 116.134 30.9225 116.074C30.6 115.89 30.2239 115.606 29.8938 115.383L29.4869 115.099C28.2728 114.249 27.2002 113.212 26.3087 112.028C26.1091 111.744 25.9555 111.422 25.7789 111.107C25.4353 110.522 25.1768 109.891 25.0113 109.234C24.7212 108.367 24.5306 107.471 24.4432 106.562C24.3531 106.317 24.3139 106.055 24.328 105.794C24.4969 106.385 24.6428 106.923 24.7809 107.437C24.9191 107.952 25.1341 108.443 25.326 108.973C25.577 109.689 25.9039 110.376 26.301 111.022C26.7224 111.676 27.2113 112.283 27.7596 112.834C28.609 113.633 29.5174 114.367 30.4772 115.03C29.9927 114.138 29.7295 113.143 29.7095 112.128C29.6238 112.072 29.5463 112.005 29.4792 111.928C29.1874 111.592 28.9302 111.226 28.7115 110.838C28.6194 110.685 28.5196 110.531 28.4505 110.385C27.7881 108.999 27.3279 107.526 27.084 106.009C27.0226 105.664 26.9996 105.288 26.9382 104.927C26.7859 104.233 26.6782 103.531 26.6157 102.823C26.4584 101.872 26.3864 100.909 26.4008 99.9444C26.3431 99.6633 26.3431 99.3734 26.4008 99.0923C26.4622 99.6911 26.539 100.282 26.6234 100.873C26.7078 101.464 26.846 101.987 26.9612 102.562C27.1147 103.33 27.2606 104.144 27.4448 104.965C27.6291 105.787 27.7903 106.593 28.0129 107.399C28.3308 108.607 28.8166 109.765 29.4562 110.838C29.5483 110.992 29.6481 111.138 29.7479 111.276C29.8718 110.224 30.1298 109.192 30.5156 108.205C30.478 108.162 30.4446 108.116 30.4158 108.067C30.1926 107.625 30.0151 107.162 29.8861 106.685C29.8226 106.502 29.7713 106.314 29.7325 106.124C29.3333 104.397 29.295 102.77 29.0723 101.088C29.0186 100.704 29.0032 100.321 28.9111 99.8907C28.7192 99.123 28.4624 98.3731 28.1434 97.649C27.6443 96.6801 27.0083 95.7881 26.2549 95.0004C25.9766 94.8136 25.7192 94.5974 25.4872 94.3555C26.0823 94.7264 26.6267 95.1728 27.107 95.6837C27.5796 96.1625 27.9968 96.693 28.3507 97.2651C28.8222 98.0971 29.1663 98.9951 29.3717 99.9291C29.5799 100.843 29.7363 101.769 29.84 102.7C29.9679 104.103 30.2248 105.491 30.6077 106.846C30.6614 107.023 30.7229 107.192 30.7843 107.353C31.053 106.654 31.3293 105.971 31.598 105.288C31.4654 105.067 31.3695 104.825 31.314 104.574C31.1854 103.935 31.0931 103.289 31.0376 102.639L30.9608 101.871C30.886 100.747 30.7373 99.6289 30.5156 98.5242C30.2819 97.4326 29.8528 96.3922 29.2489 95.4534C28.9653 94.9856 28.6444 94.5414 28.2893 94.1252C27.5386 93.3392 26.7075 92.6342 25.8097 92.0217C24.528 91.2365 23.1635 90.5954 21.7409 90.1102C21.3019 90.025 20.8706 89.9043 20.4512 89.7493C21.394 89.8987 22.3216 90.1325 23.2225 90.448C24.0921 90.7306 24.9327 91.0956 25.7329 91.5381C26.8804 92.1762 27.9173 92.9954 28.8036 93.964C29.7136 94.9373 30.4092 96.0907 30.8457 97.3496C31.4598 98.9925 31.6134 101.426 31.7516 103.115C31.7516 103.437 31.8207 103.76 31.8667 104.059C31.8667 103.99 31.9205 103.921 31.9588 103.844C31.9972 103.768 32.1815 103.445 32.3043 103.238C32.5137 102.55 32.6526 101.843 32.7188 101.127C32.8098 99.4357 32.5484 97.7443 31.9512 96.1597C31.3315 94.5356 30.3917 93.0527 29.1875 91.7991Z" fill="#F0F5FF"></path><path fill-rule="evenodd" clip-rule="evenodd" d="M355.977 131.973L349.268 125.778C357.003 119.385 365.425 113.873 374.379 109.341L380.413 112.873L379.929 106.831C388.197 103.445 395.352 102.178 400.012 103.76C407.489 106.247 406.675 115.375 399.244 126.96L391.414 126.822L397.171 130.015C392.834 135.973 387.928 141.496 382.524 146.506L381.871 147.104L370.456 146.92L377.664 150.92C371.308 156.418 364.489 161.358 357.282 165.683L349.728 162.266L351.647 168.83C340.201 174.811 329.929 177.544 323.88 175.525C317.424 173.375 317.147 166.312 321.946 156.946L332.309 156.086L324.318 152.747C328.156 146.605 333.929 139.696 341.322 132.741C342.182 131.927 343.054 131.126 343.94 130.338L355.977 131.973Z" fill="#B7D2F9"></path><path d="M375.899 113.356L377.012 113.256L378.854 124.519L398.131 107.537L399.052 107.867L388.612 117.072L400.334 115.521L400.518 116.151L387.736 117.847L372.575 131.198L392.174 129.416L392.281 130.054L371.753 131.927L361.574 140.894L387.276 138.614L387.383 139.258L360.752 141.615L358.933 143.22L384.259 141.308L384.343 141.953L358.127 143.926L346.35 154.305L365.52 154.881L365.397 155.526L345.636 154.935L336.601 162.896L339.503 170.396L338.405 170.573L335.733 163.664L324.164 173.859L323.235 173.529L337.46 160.992L324.778 162.858L324.571 162.228L338.359 160.201L344.83 154.505L344.876 154.259L345.091 154.267L350.68 149.346L336.378 144.225L337.008 143.665L351.31 148.786L354.181 146.268L341.898 135.566L342.842 135.19L354.864 145.661L364.767 136.932L359.47 120.857L360.576 120.695L365.658 136.149L377.864 125.394L375.899 113.356Z" fill="#F0F5FF"></path><path fill-rule="evenodd" clip-rule="evenodd" d="M350.012 120.979C353.367 117.087 354.979 111.667 353.551 106.8C352.73 104.006 350.995 101.541 349.912 98.8235C348.83 96.1059 348.485 92.8124 350.312 90.494C351.64 88.7973 353.82 87.9913 355.685 86.8167C357.541 85.6295 359.082 84.0111 360.177 82.0995C361.272 80.1879 361.888 78.0398 361.973 75.8386C362.142 68.6145 356.353 61.5747 358.61 54.6807C359.08 53.6496 359.386 52.5513 359.516 51.4257C359.516 50.2971 358.695 49.0535 357.52 49.0765C356.675 49.2048 355.916 49.6631 355.409 50.3509C353.997 51.7313 352.757 53.278 351.717 54.9571C349.582 58.7342 349.697 63.2636 349.268 67.5474C348.838 71.8311 347.448 76.5218 343.579 78.7021C342.241 79.3387 340.867 79.8975 339.464 80.3757C337.292 81.2662 335.25 82.7632 334.42 84.8821C332.885 88.7206 335.749 93.0504 334.689 97.0041C333.791 100.344 330.367 102.47 327.012 103.645C323.657 104.819 319.98 105.418 316.948 107.268C312.434 110.032 310.115 115.068 308.166 119.859C307.329 121.924 306.5 124.081 306.684 126.284C306.847 127.659 307.264 128.992 307.912 130.215C308.926 132.311 310.323 134.36 312.419 135.504C317.432 138.23 322.897 135.074 326.759 132.004C330.958 128.656 336.739 128.994 341.606 126.944C344.83 125.631 347.707 123.589 350.012 120.979Z" fill="#B7D2F9"></path><path fill-rule="evenodd" clip-rule="evenodd" d="M355.762 74.6717C355.78 73.8191 355.706 72.967 355.54 72.1306C355.356 71.3034 355.099 70.4941 354.772 69.7123C354.457 68.9446 354.135 68.1769 353.889 67.4092C353.65 66.6466 353.506 65.8577 353.459 65.0601C353.387 64.0295 353.473 62.9941 353.713 61.9893C353.941 61.0576 354.348 60.179 354.91 59.4021C353.845 61.2119 353.398 63.3191 353.636 65.4055C353.811 66.6591 354.184 67.877 354.741 69.0137C354.734 68.9653 354.734 68.9162 354.741 68.8679C354.803 68.6759 354.956 68.4687 355.025 68.269L355.125 68.0234C355.418 67.2783 355.639 66.5072 355.785 65.7203C355.824 65.536 355.908 65.3518 355.939 65.1522C355.979 64.7724 356.044 64.3955 356.131 64.0237C356.186 63.5041 356.286 62.9904 356.43 62.4883C356.43 62.3347 356.43 62.1581 356.53 62.0353C356.53 62.4192 356.53 62.7339 356.53 63.018C356.53 63.302 356.53 63.6321 356.53 63.9546C356.53 64.277 356.461 64.8297 356.422 65.2904C356.373 65.7496 356.299 66.2058 356.2 66.6569C356.073 67.3602 355.848 68.0424 355.532 68.6836C355.355 69.0214 355.171 69.3899 354.887 69.4513L354.849 69.4129C355.141 70.0664 355.397 70.7353 355.616 71.4166C355.716 71.7467 355.793 72.0768 355.862 72.407C355.923 72.2227 356.016 72.0078 356.077 71.8235L356.169 71.5548C356.476 70.741 356.814 70.0194 357.098 69.1673C357.159 68.983 357.275 68.7988 357.328 68.5992C357.467 68.1309 357.482 67.8315 357.605 67.4323C357.671 66.8924 357.691 66.348 357.666 65.8047C357.666 65.6435 357.513 65.49 357.582 65.3211C357.753 65.6309 357.878 65.9647 357.95 66.3114C358.02 66.6449 358.059 66.9841 358.065 67.3248C358.035 67.8086 357.963 68.2889 357.85 68.7604C357.742 69.2318 357.603 69.6959 357.436 70.1499C357.221 70.7487 356.914 71.6009 356.668 72.2074C356.522 72.5605 356.415 72.9751 356.138 73.0288C356.099 73.0084 356.063 72.9826 356.031 72.952C356.215 74.1528 356.215 75.3748 356.031 76.5756C356.172 76.4399 356.305 76.2964 356.43 76.1457L356.645 75.9077C357.296 75.2291 357.835 74.4517 358.242 73.6046C358.326 73.3973 358.457 73.1977 358.534 72.9751C358.718 72.4607 358.779 72.0845 358.971 71.6853C359.143 71.0921 359.269 70.4863 359.347 69.8735C359.347 69.697 359.24 69.505 359.347 69.3285C359.464 69.7087 359.516 70.1057 359.501 70.5031C359.497 70.8835 359.466 71.2632 359.409 71.6393C359.309 72.1613 359.155 72.6603 359.01 73.1747C358.858 73.7134 358.636 74.2297 358.349 74.7101C357.923 75.4393 357.407 76.1124 356.814 76.7138C356.515 77.0132 356.231 77.3356 355.947 77.3586C355.737 78.3268 355.415 79.2672 354.987 80.1607L355.279 79.9074C356.192 79.1397 357.098 78.4795 357.95 77.7041C358.16 77.5315 358.358 77.3442 358.541 77.1437C358.85 76.7149 359.135 76.2689 359.393 75.8079C359.624 75.1323 359.985 74.4183 360.161 73.7658C360.223 73.5662 360.161 73.3128 360.353 73.1516C360.292 73.6046 360.223 74.0498 360.123 74.5028C360.042 74.9416 359.935 75.3749 359.8 75.8002C359.576 76.4149 359.261 76.9921 358.864 77.5122C358.442 78.0298 357.969 78.5031 357.451 78.9247C356.806 79.4775 355.87 80.2605 355.148 80.8056C354.875 81.0615 354.564 81.2738 354.227 81.4351C353.873 82.0029 353.475 82.542 353.037 83.0473C352.645 83.4918 352.219 83.905 351.763 84.2833C352.96 83.8534 354.119 83.4081 355.279 82.8861C355.616 82.7325 355.985 82.5943 356.33 82.4024C356.972 82.0267 357.59 81.6113 358.18 81.1587C358.942 80.4971 359.595 79.72 360.115 78.8556C360.206 78.5722 360.327 78.2994 360.476 78.0419C360.335 78.6653 360.089 79.26 359.747 79.7999C359.43 80.3391 359.052 80.839 358.618 81.2893C357.969 81.9119 357.244 82.4509 356.461 82.8938C355.669 83.351 354.845 83.7512 353.997 84.0914C352.731 84.6334 351.437 85.105 350.12 85.5039H349.966C349.797 85.6037 349.628 85.7112 349.46 85.7957C349.291 85.8801 348.991 86.0413 348.753 86.1565C349.79 85.9722 350.803 85.8417 351.824 85.6805C352.169 85.6191 352.53 85.5961 352.891 85.5193C353.562 85.3491 354.224 85.1415 354.872 84.8975C355.723 84.5238 356.502 84.0042 357.175 83.362C357.359 83.1548 357.459 82.8554 357.681 82.7018C357.424 83.2439 357.064 83.7313 356.622 84.1374C356.203 84.5437 355.733 84.8945 355.225 85.1815C354.478 85.5656 353.686 85.857 352.868 86.049C352.062 86.264 351.21 86.3945 350.381 86.5327C349.306 86.7015 347.794 87.0163 346.704 87.3004L345.974 87.5C345.782 87.5921 345.59 87.6765 345.398 87.7763L345.13 87.9068C345.089 87.9786 345.037 88.0434 344.976 88.0988C344.976 88.0988 344.923 88.0527 344.892 88.022C343.766 88.5539 342.743 89.2788 341.867 90.1639C341.396 90.6615 341.016 91.2384 340.746 91.8682C340.492 92.5023 340.344 93.1741 340.309 93.8565C340.309 94.0792 340.309 94.3018 340.309 94.5244C340.366 94.3384 340.435 94.1563 340.516 93.9794C340.588 93.8045 340.673 93.6352 340.769 93.4727C341.185 92.7573 341.703 92.1058 342.305 91.5381C342.9 90.9732 343.542 90.4596 344.224 90.0027C344.546 89.78 344.915 89.6111 345.26 89.4039C345.922 88.9949 346.627 88.6627 347.364 88.4135C348.346 88.004 349.379 87.7302 350.434 87.5998C350.731 87.5017 351.044 87.4625 351.356 87.4846C350.711 87.6228 350.081 87.784 349.46 87.9759C348.838 88.1679 348.323 88.4212 347.748 88.6745C346.948 89.0152 346.178 89.4209 345.445 89.8875C344.695 90.3604 343.984 90.8918 343.318 91.4767C342.314 92.3109 341.511 93.3604 340.969 94.5475C340.716 95.177 340.739 95.8525 340.554 96.175C340.554 96.175 340.508 96.175 340.485 96.175C340.606 96.7832 340.765 97.3832 340.961 97.9714C341.092 98.3553 341.238 98.7391 341.391 99.123C341.396 98.4135 341.5 97.7082 341.698 97.0271C341.767 96.8506 341.859 96.674 341.929 96.4974C342.03 96.1418 342.188 95.8048 342.397 95.4994C342.611 95.0439 342.902 94.6285 343.257 94.2711C343.356 94.1636 343.395 93.987 343.556 93.9487C343.402 94.2199 343.257 94.4886 343.118 94.7547C342.988 95.0081 342.903 95.2921 342.796 95.5224C342.636 95.8948 342.501 96.2768 342.389 96.6663C342.095 97.6617 341.989 98.7029 342.074 99.7371C342.074 100.067 342.182 100.382 342.005 100.582C342.213 101.065 342.42 101.549 342.619 102.048C343 102.977 343.308 103.935 343.541 104.911C343.623 104.632 343.685 104.348 343.725 104.059L343.809 103.468C344.009 101.641 343.809 99.8523 344.124 97.9714C344.203 97.5272 344.31 97.0886 344.447 96.6586C344.651 95.8005 344.982 94.9776 345.429 94.2174C345.971 93.1412 346.701 92.1712 347.586 91.3538C347.799 91.0774 348.059 90.8408 348.354 90.6552C347.83 91.18 347.347 91.7447 346.911 92.3442C346.518 92.9194 346.171 93.5253 345.874 94.1559C345.431 95.0332 345.096 95.9613 344.876 96.9196C344.663 97.9008 344.555 98.9019 344.554 99.906C344.616 101.481 344.516 103.058 344.255 104.612C344.151 105.124 343.973 105.618 343.725 106.078C343.725 106.209 343.763 106.339 343.779 106.478C343.901 107.817 343.81 109.167 343.51 110.477L343.556 110.416L343.925 109.84C345.011 108.118 345.761 106.206 346.135 104.205C346.22 103.737 346.335 103.253 346.381 102.754C346.473 101.595 346.419 100.797 346.512 99.8599C346.488 98.5354 346.691 97.2165 347.11 95.96C347.188 95.576 347.345 95.2125 347.571 94.8929C347.267 95.6479 347.069 96.4409 346.98 97.2498C346.906 98.0151 346.886 98.7847 346.918 99.5529C346.918 100.651 346.918 101.772 346.865 102.946C346.782 104.117 346.563 105.273 346.212 106.393C345.947 107.24 345.614 108.065 345.214 108.857C344.809 109.665 344.333 110.436 343.794 111.161C343.554 111.478 343.298 111.783 343.026 112.074C342.637 113.128 342.122 114.131 341.491 115.06C342.918 113.935 344.239 112.681 345.437 111.314C345.821 110.876 346.266 110.439 346.634 109.948C347.327 108.995 347.967 108.006 348.554 106.984C348.872 106.245 349.109 105.472 349.26 104.681C349.376 103.901 349.389 103.108 349.298 102.324C349.178 101.869 349.124 101.398 349.137 100.927C349.413 101.902 349.588 102.903 349.659 103.913C349.733 104.917 349.591 105.925 349.245 106.869C348.68 108.168 347.967 109.397 347.118 110.531C346.277 111.707 345.335 112.807 344.301 113.817C342.739 115.379 340.991 116.743 339.096 117.878L338.858 118.016C340.411 117.586 341.93 117.042 343.402 116.389C344.034 116.122 344.649 115.82 345.245 115.483C345.848 115.118 346.418 114.702 346.949 114.239C347.425 113.832 347.847 113.425 348.308 112.98C349.506 111.637 350.357 110.021 350.788 108.274C350.806 107.76 350.852 107.247 350.926 106.739C351.053 107.876 350.925 109.027 350.55 110.109C350.2 111.168 349.681 112.163 349.014 113.057C348.02 114.332 346.803 115.417 345.421 116.258C344.018 117.117 342.521 117.815 340.961 118.339C339.495 118.868 337.545 119.413 335.779 119.874C335.165 120.181 334.536 120.465 333.891 120.711C333.591 120.834 333.292 120.933 332.985 121.041C335.111 121.041 337.184 121.21 339.311 121.156C340.08 121.161 340.849 121.12 341.614 121.033C343.068 120.778 344.483 120.331 345.821 119.705C347.594 118.761 349.17 117.487 350.465 115.951C350.768 115.448 351.104 114.966 351.471 114.508C350.921 115.635 350.201 116.671 349.337 117.578C348.509 118.494 347.559 119.29 346.512 119.943C344.961 120.868 343.245 121.483 341.46 121.755C339.659 121.994 337.84 122.068 336.025 121.977C333.9 121.894 331.773 121.935 329.653 122.1C328.732 122.369 327.811 122.63 326.92 122.868C325.615 123.252 324.356 123.636 323.182 124.127C325.673 123.697 328.222 123.72 330.705 124.196C331.365 124.334 331.995 124.603 332.647 124.795C333.877 125.182 335.152 125.406 336.44 125.463C338.212 125.388 339.968 125.091 341.667 124.58C342.14 124.358 342.638 124.193 343.149 124.089C342.157 124.573 341.131 124.984 340.078 125.317C339.045 125.665 337.977 125.899 336.892 126.016C336.109 126.078 335.321 126.052 334.543 125.939C333.766 125.81 332.997 125.636 332.24 125.417C330.793 124.989 329.296 124.757 327.788 124.726C325.466 124.766 323.153 125.023 320.878 125.493C320.548 125.563 320.226 125.655 319.927 125.747C318.808 126.433 317.777 127.253 316.856 128.188L317.224 128.004C319.157 127.142 321.214 126.592 323.32 126.376C323.811 126.33 324.333 126.376 324.855 126.376C325.841 126.305 326.833 126.364 327.803 126.553C329.13 126.7 330.418 127.09 331.603 127.704C331.98 127.803 332.327 127.989 332.616 128.25C331.867 127.941 331.098 127.685 330.313 127.482C329.554 127.319 328.785 127.211 328.01 127.159C326.916 127.044 325.814 127.029 324.717 127.113C323.595 127.199 322.481 127.371 321.385 127.628C319.733 128.02 318.137 128.619 316.633 129.409C316.073 129.693 315.566 130.061 315.136 130.261C314.626 130.969 314.16 131.707 313.739 132.472L314.353 132.188L314.768 131.996C316.04 131.473 317.362 131.079 318.714 130.821C319.036 130.768 319.374 130.768 319.704 130.722C320.334 130.584 320.978 130.52 321.623 130.53C322.49 130.426 323.366 130.426 324.233 130.53C324.479 130.53 324.771 130.437 325.001 130.606L323.389 130.768C322.89 130.829 322.391 130.96 321.853 131.036C321.147 131.159 320.433 131.244 319.719 131.412C319.005 131.581 318.284 131.735 317.585 131.958C316.521 132.292 315.475 132.684 314.453 133.132C314.047 133.384 313.586 133.532 313.109 133.562C313.109 133.631 313.033 133.708 313.002 133.769C312.954 133.647 312.938 133.515 312.956 133.385C312.929 133.285 312.929 133.179 312.956 133.078C312.81 132.956 312.694 132.802 312.618 132.627C312.542 132.453 312.508 132.263 312.518 132.073C312.518 131.551 312.58 130.89 312.595 130.338C312.595 130.092 312.595 129.862 312.595 129.647C312.68 127.543 312.687 125.547 312.933 123.436C312.994 122.952 313.125 122.453 313.217 121.954C313.335 120.973 313.577 120.011 313.939 119.091C314.323 117.8 314.954 116.595 315.796 115.544C316.019 115.229 316.211 114.776 316.564 114.646C316.087 115.319 315.67 116.033 315.32 116.78C315.02 117.494 314.776 118.231 314.591 118.983C314.281 120.043 314.06 121.127 313.931 122.223C313.808 123.321 313.716 124.48 313.685 125.624C313.624 127.159 313.685 129.301 313.516 130.875C313.516 131.052 313.516 131.228 313.516 131.405C313.663 131.064 313.827 130.731 314.008 130.407C314.003 130.097 314.037 129.787 314.107 129.486C314.292 128.718 314.622 127.743 314.875 126.937C314.983 126.584 315.09 126.238 315.19 125.931C316.162 122.922 317.384 120 318.844 117.195C319.205 116.542 319.612 115.897 320.042 115.237C321.853 112.187 324.171 109.469 326.897 107.199C327.316 106.76 327.804 106.392 328.34 106.109C327.371 106.927 326.453 107.803 325.592 108.735C324.792 109.625 324.043 110.56 323.35 111.537C322.327 112.901 321.396 114.332 320.564 115.82C319.713 117.337 318.945 118.897 318.261 120.496C317.347 122.584 316.288 125.678 315.574 127.935C315.52 128.081 315.474 128.227 315.428 128.372C315.643 128.116 315.873 127.861 316.119 127.605C316.217 127.332 316.351 127.074 316.518 126.837C316.948 126.184 317.585 125.409 318.092 124.741C318.314 124.457 318.522 124.181 318.729 123.927C320.681 121.511 322.764 119.205 324.97 117.018C325.485 116.504 326.083 116.02 326.628 115.483C327.895 114.254 328.671 113.364 329.584 112.312C330.144 111.501 330.637 110.646 331.058 109.756C331.462 108.886 331.789 107.981 332.033 107.053C332.108 106.481 332.258 105.921 332.478 105.387C332.301 106.6 332.044 107.801 331.711 108.98C331.406 110.142 330.93 111.252 330.298 112.274C329.316 113.68 328.195 114.984 326.951 116.166C325.784 117.371 324.556 118.623 323.397 119.897C322.084 121.34 320.326 123.405 318.975 125.11C319.119 125.036 319.268 124.972 319.42 124.918C320.258 124.412 321.13 123.966 322.03 123.582C322.176 123.38 322.346 123.197 322.537 123.037C323.237 122.465 323.967 121.932 324.725 121.44L325.615 120.857C328.356 119.114 330.989 117.648 333.208 115.429L333.975 114.661C334.213 114.377 334.459 114.093 334.674 113.786C335.434 112.573 335.993 111.246 336.332 109.855C336.698 107.926 336.622 105.939 336.109 104.044C335.867 103.515 335.657 102.971 335.48 102.416C336.123 103.497 336.572 104.682 336.808 105.917C337.052 107.101 337.112 108.316 336.985 109.518C336.758 111.265 336.13 112.936 335.15 114.4C334.117 115.884 332.84 117.182 331.373 118.239C329.569 119.644 326.767 121.248 324.84 122.546L325.062 122.476C325.31 122.266 325.59 122.098 325.892 121.977C326.768 121.653 327.676 121.424 328.601 121.294H328.763C328.99 121.021 329.273 120.798 329.592 120.642C330.048 120.411 330.523 120.221 331.012 120.074C331.488 119.912 331.964 119.736 332.386 119.551C332.808 119.367 333.108 119.221 333.423 119.06C336.539 117.525 339.096 115.137 340.086 111.898C340.349 111.152 340.526 110.38 340.616 109.594C340.705 108.015 340.555 106.431 340.17 104.896C339.518 102.801 338.569 100.811 337.353 98.9848C336.924 98.4942 336.541 97.9648 336.209 97.4033C337.156 98.4249 338.009 99.5298 338.758 100.704C339.504 101.818 340.119 103.013 340.593 104.267C341.247 106.085 341.509 108.021 341.36 109.948C341.205 111.949 340.501 113.87 339.326 115.498C338.426 116.725 337.329 117.794 336.079 118.661L335.656 118.93C336.063 118.722 336.47 118.5 336.862 118.254C336.987 118.147 337.121 118.05 337.261 117.962C337.399 117.87 337.553 117.778 337.714 117.686C338.729 116.962 339.627 116.087 340.378 115.091C341.92 113.037 342.792 110.557 342.873 107.99C342.916 106.708 342.742 105.429 342.358 104.205C342.205 103.706 342.028 103.207 341.836 102.708C341.644 102.378 341.445 102.002 341.245 101.687L340.923 101.165C339.94 99.5375 338.942 98.0405 338.105 96.3285C337.913 95.9293 337.768 95.4994 337.599 95.0772C337.235 94.2772 336.977 93.4333 336.831 92.5668C336.554 91.4081 336.533 90.203 336.77 89.0354C336.783 88.6851 336.872 88.3419 337.031 88.0297C336.871 88.7397 336.807 89.4676 336.839 90.1946C336.875 90.8847 336.983 91.5691 337.161 92.2367C337.389 93.1999 337.71 94.1384 338.121 95.0388C338.552 95.9678 339.034 96.8724 339.564 97.7488L340.37 99.0462C339.693 97.3396 339.399 95.505 339.51 93.6723C339.44 93.5683 339.386 93.4545 339.349 93.3345C339.249 92.9813 339.18 92.5668 339.103 92.1446L339.019 91.6763C338.757 90.2522 338.728 88.795 338.935 87.3618C338.996 87.024 339.119 86.6939 339.219 86.3484C339.384 85.6908 339.643 85.0601 339.986 84.4752C340.41 83.6524 340.925 82.8798 341.522 82.1721C341.675 81.9495 341.783 81.6578 342.013 81.5272L341.153 83.0089C340.884 83.4772 340.677 83.9685 340.447 84.4599C340.118 85.1401 339.86 85.8528 339.679 86.5864C339.514 87.3431 339.43 88.1151 339.426 88.8895C339.457 90.0287 339.58 91.1635 339.794 92.2827C340.097 91.3099 340.623 90.4213 341.33 89.6879C341.318 89.5885 341.318 89.4879 341.33 89.3885C341.36 88.9496 341.434 88.5149 341.552 88.0911C341.606 87.9145 341.644 87.7379 341.698 87.5844C342.231 86.1362 342.968 84.7714 343.886 83.5309C344.086 83.2315 344.339 82.9552 344.562 82.6481C344.957 82.0491 345.385 81.4725 345.844 80.9208C346.455 80.0845 347.141 79.3059 347.893 78.5946C348.093 78.3873 348.254 78.1033 348.515 77.9958C348.124 78.4641 347.748 78.9401 347.387 79.4237C347.026 79.9074 346.742 80.368 346.412 80.8593C345.951 81.5272 345.475 82.2028 345.022 82.9168C344.569 83.6307 344.086 84.3217 343.671 85.0433C343.026 86.1156 342.535 87.2734 342.213 88.4826C342.168 88.6517 342.135 88.8236 342.113 88.997C342.954 88.3132 343.874 87.7333 344.853 87.2697C344.85 87.2185 344.85 87.1672 344.853 87.1161C345.01 86.6429 345.216 86.1875 345.468 85.7573C345.558 85.5853 345.658 85.4187 345.767 85.2583C346.734 83.7229 347.878 82.5483 348.938 81.1895C349.175 80.8747 349.46 80.5676 349.705 80.2222C350.123 79.5508 350.488 78.8474 350.795 78.1187C351.135 77.0949 351.321 76.0264 351.348 74.948C351.294 74.6338 351.273 74.3147 351.287 73.9961C351.444 74.6623 351.514 75.3462 351.494 76.0305C351.485 76.6957 351.4 77.3576 351.241 78.0035C350.972 78.9215 350.571 79.7955 350.051 80.5983C349.522 81.4004 348.945 82.1695 348.323 82.9014C347.402 83.9891 346.577 85.1553 345.859 86.3868C345.775 86.548 345.69 86.7092 345.621 86.8704C346.32 86.5403 347.018 86.2333 347.702 85.9185C347.771 85.6687 347.877 85.4307 348.016 85.2122C348.388 84.6798 348.788 84.1673 349.214 83.6768L349.713 83.078C350.473 82.225 351.176 81.3222 351.816 80.3757C352.426 79.4356 352.868 78.3965 353.121 77.3049C353.251 76.7828 353.341 76.2515 353.39 75.7157C353.415 74.6548 353.325 73.5943 353.121 72.5528C352.773 71.1331 352.257 69.7596 351.586 68.461C351.335 68.1092 351.114 67.7368 350.926 67.3478C351.491 68.0688 351.99 68.8397 352.415 69.6509C352.831 70.4388 353.173 71.2638 353.436 72.1152C353.797 73.3427 353.95 74.622 353.889 75.9C353.83 77.2189 353.495 78.5107 352.906 79.6924C352.139 81.2816 350.481 83.1164 349.383 84.4445C349.168 84.6979 348.968 84.9589 348.784 85.2122C348.856 85.1769 348.931 85.1461 349.007 85.1201L349.698 84.9128C351.87 83.7322 353.586 81.8597 354.572 79.5926C355.305 78.0522 355.71 76.3766 355.762 74.6717Z" fill="#F0F5FF"></path><path fill-rule="evenodd" clip-rule="evenodd" d="M47.1591 70.2037L38.7145 73.904C35.3767 64.7306 33.1273 55.197 32.0126 45.4991L37.6551 41.4072L31.6211 39.6261C31.3754 30.9972 32.7573 24.1339 35.9816 20.5564C41.1558 14.7987 49.7002 18.8829 58.2445 29.7689L55.1738 36.6782L60.3941 32.7245C64.5466 38.7345 68.0952 45.1401 70.9882 51.8479C71.111 52.1166 71.2185 52.3853 71.3336 52.6156L66.9424 62.78L73.4755 57.8667C76.4584 65.5122 78.7376 73.4139 80.2849 81.4735L74.1971 86.9472L81.2752 87.6535C82.8566 100.06 81.7281 110.216 77.5442 114.876C73.084 119.836 66.1057 117.471 58.8126 109.756L61.8373 100.205L55.6498 106.101C50.3428 99.1747 45.9296 91.607 42.5146 83.577C42.0386 82.5099 41.5857 81.4352 41.1481 80.3604L47.1591 70.2037Z" fill="#B7D2F9"></path><path d="M36.4345 45.5911L36.7493 44.5624L48.349 47.0651L38.9756 23.6272L39.6358 22.9286L44.7179 35.6264L47.5276 24.6022L48.2109 24.6713L45.1478 36.6935L52.5176 55.1183L57.9989 36.9929L58.6591 37.1311L52.9168 56.1163L57.8684 68.4993L65.123 44.739L65.7832 44.8848L58.2676 69.4973L59.1581 71.7083L66.62 48.4239L67.2726 48.5928L59.5496 72.6833L65.2766 87.0009L72.8844 70.1192L73.4678 70.4723L65.622 87.8684L70.0209 98.8619L78.358 99.0308L78.1277 100.075L70.4431 99.9137L76.0703 113.986L75.4101 114.684L68.4855 97.3879L65.6297 109.379L64.9465 109.341L68.0479 96.2978L64.9081 88.4365L64.6854 88.306L64.7776 88.1141L62.0599 81.3199L51.8267 92.1906L51.5196 91.4229L61.7529 80.5522L60.3557 77.0669L45.4625 84.076L45.4472 83.0933L60.0256 76.2301L55.2045 64.1925L37.6628 62.9949L37.9161 61.9508L54.7669 63.1024L48.8327 48.2704L36.4345 45.5911Z" fill="#F0F5FF"></path><path d="M316.925 3.37524H230.875C223.052 3.37524 216.711 9.71672 216.711 17.5393V182.104C216.711 189.926 223.052 196.268 230.875 196.268H316.925C324.747 196.268 331.089 189.926 331.089 182.104V17.5393C331.089 9.71672 324.747 3.37524 316.925 3.37524Z" fill="#444444"></path><path d="M309.194 13.9312H238.598C230.775 13.9312 224.434 20.2726 224.434 28.0952V150.582C224.434 158.405 230.775 164.746 238.598 164.746H309.194C317.017 164.746 323.358 158.405 323.358 150.582V28.0952C323.358 20.2726 317.017 13.9312 309.194 13.9312Z" fill="#F2F4FA"></path><path d="M273.904 190.81C279.848 190.81 284.667 186.19 284.667 180.492C284.667 174.793 279.848 170.174 273.904 170.174C267.96 170.174 263.141 174.793 263.141 180.492C263.141 186.19 267.96 190.81 273.904 190.81Z" fill="#B5B5B5"></path><path d="M207.253 96.7278C207.253 96.7278 218.4 74.2418 219.536 73.927C220.672 73.6123 223.144 79.5927 222.161 83.0473C221.179 86.502 243.657 69.5281 247.902 70.7641C252.147 72.0001 252.001 80.6674 244.624 89.6265C237.246 98.5856 218.876 112.588 218.876 112.588L207.253 96.7278Z" fill="#EFDCB4"></path><path d="M310.492 79.7692H279.584V109.41H310.492V79.7692Z" fill="#DE4437"></path><path d="M309.31 44.4626H278.402V74.1038H309.31V44.4626Z" fill="#163B65"></path><path d="M266.204 113.464H235.297V143.105H266.204V113.464Z" fill="#00C9A7"></path><path d="M153.515 80.0071C153.515 80.0071 101.481 62.8183 77.4368 82.7325C53.3928 102.647 47.2513 145.001 47.2513 145.001C47.2513 145.001 45.9385 178.119 64.7469 183.386C83.5553 188.652 93.3893 187.992 93.3893 187.992L95.5773 185.059C95.5773 185.059 134.929 187.155 153.515 185.896L172.1 184.637L168.139 152.355C168.139 152.355 175.601 164.508 180.852 162.834C186.103 161.161 223.704 112.934 223.704 112.934L204.466 91.1311L179.754 128.027C179.754 128.027 174.933 83.5692 153.515 80.0071Z" fill="#377DFF"></path><path d="M114.378 78.1186C114.378 78.1186 129.901 90.5016 143.243 85.6728C156.585 80.844 160.209 76.7214 160.209 76.7214C160.209 76.7214 173.198 71.4166 169.92 56.5309C166.642 41.6451 157.276 36.609 157.276 36.609L117.042 38.7125L102.771 67.6932L114.378 78.1186Z" fill="#EFDCB4"></path><path d="M151.496 13.5549C151.496 13.5549 141.854 7.88931 127.198 10.2001C118.8 11.5205 111.077 18.3761 108.259 22.3528C105.242 26.5828 96.6674 39.534 95.5773 45.6141C94.4871 51.6943 94.8096 57.4214 89.9962 63.2713C85.1828 69.1212 83.7932 76.7521 83.9314 82.4638C84.0696 88.1755 81.9508 96.4053 78.8109 102.908C75.6711 109.41 81.4748 114.853 87.4858 119.889C90.0549 121.832 92.3754 124.082 94.395 126.591C97.888 130.783 107.116 129.608 110.831 128.749C114.547 127.889 118.677 128.042 120.205 124.687C121.732 121.333 124.88 112.404 120.972 107.33C117.065 102.255 117.065 93.6799 116.842 89.6725C116.62 85.6651 116.52 72.2073 115.645 68.6452C114.769 65.083 115.437 57.5749 119.66 54.435C124.542 50.8192 123.913 36.6244 128.173 41.8524C135.612 50.9727 155.872 46.712 157.868 53.3679C159.864 60.0239 163.771 62.3577 155.503 80.153C146.421 99.7064 156.555 102.9 156.555 102.9C156.555 102.9 166.397 105.863 171.425 97.2574C176.453 88.6515 175.386 68.6912 176.469 55.9013C177.551 43.1114 169.866 29.1086 164.769 23.9266C159.672 18.7446 151.496 13.5549 151.496 13.5549Z" fill="#163B65"></path><path d="M121.264 197.75L85.4744 189.29L94.2874 154.973L130.085 163.426L121.264 197.75Z" fill="#DE4437"></path><path d="M100.659 164.339L93.1129 183.532C93.1129 183.532 105.25 191.155 120.504 188.721C135.758 186.288 140.019 178.181 136.733 174.25C133.447 170.32 114.762 169.536 114.762 169.536C114.762 169.536 123.621 166.074 123.122 164.347C122.623 162.619 115.583 164.186 111.645 164.347C107.707 164.508 100.659 164.339 100.659 164.339Z" fill="#EFDCB4"></path><path d="M110.801 221.587L77.1297 230.876L64.1711 202.164L97.842 192.875L110.801 221.587Z" fill="#00C9A7"></path><path d="M172.239 222.838L138.568 232.135L125.609 203.423L159.288 194.134L172.239 222.838Z" fill="#FFC107"></path><path d="M253.614 83.9301L221.693 101.603L203.261 70.9944L235.181 53.3219L253.614 83.9301Z" fill="#B7D2F9"></path><path d="M83.9314 160.877L101.312 162.451L100.66 164.339L91.6392 188L84.7452 187.478L83.9314 160.877Z" fill="#377DFF"></path><path d="M127.198 62.3116C127.75 62.3116 128.196 61.8854 128.196 61.3597C128.196 60.8339 127.75 60.4077 127.198 60.4077C126.647 60.4077 126.2 60.8339 126.2 61.3597C126.2 61.8854 126.647 62.3116 127.198 62.3116Z" fill="black"></path><path d="M154.413 64.1849C154.964 64.1849 155.411 63.7587 155.411 63.233C155.411 62.7072 154.964 62.281 154.413 62.281C153.862 62.281 153.415 62.7072 153.415 63.233C153.415 63.7587 153.862 64.1849 154.413 64.1849Z" fill="black"></path><path d="M142.913 51.2875L142.475 73.1134L139.197 70.7181" stroke="black" stroke-width="1.05212" stroke-miterlimit="10"></path><path d="M129.025 73.1133C129.025 73.1133 129.901 78.3337 134.822 77.9114" stroke="black" stroke-width="1.05212" stroke-miterlimit="10"></path><path fill-rule="evenodd" clip-rule="evenodd" d="M326.536 221.387C329.031 215.86 333.323 215.146 338.052 214.424C342.236 213.779 348.47 210.332 349.783 205.089C350.389 202.67 350.282 200.206 348.639 198.51C347.103 196.974 345.752 197.22 343.733 197.166C339.204 197.051 333.845 200.076 330.682 204.582C327.058 209.787 326.905 215.33 325.838 221.026" fill="#377DFF"></path><path fill-rule="evenodd" clip-rule="evenodd" d="M327.005 220.228C326.183 213.879 329.461 209.818 333.077 205.411C336.302 201.496 339.772 193.711 338.09 188.56C337.323 186.173 335.91 184.338 333.607 184.361C331.496 184.361 330.452 185.712 328.709 187.316C324.778 190.932 321.8 197.665 321.554 203.738C321.247 210.762 324.072 215.177 326.222 220.512" fill="#2D72E2"></path><path fill-rule="evenodd" clip-rule="evenodd" d="M326.168 218.67C323.382 212.405 318.491 211.169 313.117 209.879C308.342 208.728 301.264 204.313 299.821 198.494C299.153 195.8 299.299 193.12 301.195 191.485C302.93 189.95 304.504 190.395 306.807 190.556C311.989 190.917 318.077 194.779 321.608 199.999C325.692 206.033 325.808 212.029 326.982 218.355" fill="#377DFF"></path><path fill-rule="evenodd" clip-rule="evenodd" d="M346.374 202.801C345.898 202.555 345.322 202.97 344.838 203.085C343.203 203.538 341.184 203.937 339.557 205.127C338.921 205.378 338.322 205.714 337.776 206.125C337.491 206.332 337.192 206.54 336.877 206.778L335.887 207.545C335.265 208.014 334.628 208.467 334.044 208.966C331.529 211.37 329.5 214.237 328.072 217.41C327.918 217.764 327.772 218.178 327.626 218.547C327.481 218.915 327.266 219.522 327.097 220.044C326.922 220.528 326.788 221.026 326.698 221.533C326.559 222.485 326.882 223.283 327.411 223.468C327.829 223.075 328.12 222.567 328.248 222.009C328.34 221.671 328.456 221.341 328.571 221.011C328.686 220.681 328.801 220.335 328.916 219.99C329.123 219.422 329.423 218.8 329.684 218.147C329.945 217.495 330.321 216.858 330.651 216.213C331.304 215.037 332.038 213.909 332.847 212.835C334.926 210.153 337.447 207.845 340.301 206.01C340.785 205.688 341.269 205.373 341.737 205.035C342.205 204.697 342.704 204.436 343.196 204.168L344.792 203.4L346.374 202.801Z" fill="white"></path><path fill-rule="evenodd" clip-rule="evenodd" d="M332.947 189.443C332.402 189.681 332.11 190.487 331.718 191.024C330.528 192.782 328.97 194.863 328.149 197.166C327.723 197.897 327.371 198.669 327.097 199.469C326.951 199.884 326.797 200.298 326.644 200.751C326.49 201.204 326.352 201.688 326.183 202.217C325.876 203.123 325.546 204.022 325.293 204.904C324.331 208.696 324.012 212.623 324.348 216.52C324.402 216.919 324.464 217.341 324.533 217.771C324.602 218.201 324.709 218.823 324.832 219.368C324.918 219.873 325.052 220.369 325.231 220.85C325.592 221.687 326.275 222.017 326.836 221.702C327.001 221.101 327.001 220.467 326.836 219.867C326.744 219.529 326.675 219.176 326.613 218.823C326.552 218.47 326.467 218.109 326.398 217.748C326.291 217.134 326.237 216.405 326.129 215.683C326.022 214.961 326.03 214.148 325.999 213.38C325.976 211.885 326.048 210.39 326.214 208.904C326.461 206.889 326.845 204.894 327.365 202.931C327.889 201.001 328.522 199.101 329.262 197.243C329.53 196.583 329.784 195.922 330.029 195.254C330.275 194.586 330.567 193.957 330.859 193.327L331.872 191.37L332.947 189.443Z" fill="white"></path><path fill-rule="evenodd" clip-rule="evenodd" d="M304.319 196.329C304.88 196.107 305.517 196.598 306.1 196.767C307.943 197.396 310.238 197.995 312.05 199.423C312.761 199.745 313.426 200.158 314.031 200.651C314.353 200.897 314.691 201.15 315.037 201.419L316.134 202.363C316.825 202.931 317.532 203.477 318.184 204.06C320.921 206.843 323.109 210.117 324.633 213.71C324.786 214.102 324.94 214.532 325.093 214.977C325.247 215.422 325.462 216.059 325.631 216.643C325.813 217.177 325.947 217.727 326.03 218.286C326.145 219.33 325.746 220.166 325.132 220.328C324.675 219.88 324.364 219.305 324.241 218.677C324.141 218.301 324.026 217.909 323.903 217.564C323.781 217.218 323.673 216.796 323.558 216.435C323.343 215.798 323.028 215.092 322.79 214.37C322.552 213.649 322.122 212.919 321.777 212.19C321.07 210.861 320.277 209.579 319.405 208.351C318.233 206.771 316.936 205.288 315.528 203.914C314.168 202.618 312.716 201.422 311.183 200.337C310.638 199.945 310.108 199.569 309.578 199.154C309.048 198.74 308.503 198.433 307.951 198.095L306.162 197.151L304.319 196.329Z" fill="white"></path><path fill-rule="evenodd" clip-rule="evenodd" d="M216.772 214.808C218.523 210.931 221.532 210.432 224.825 209.925C227.758 209.472 232.126 207.054 233.048 203.377C233.47 201.68 233.401 199.953 232.28 198.771C231.159 197.588 230.261 197.857 228.84 197.826C225.662 197.742 221.931 199.861 219.705 203.024C217.171 206.67 217.064 210.54 216.319 214.539" fill="#377DFF"></path><path fill-rule="evenodd" clip-rule="evenodd" d="M217.102 213.971C216.526 209.526 218.822 206.678 221.363 203.592C223.62 200.843 226.054 195.385 224.879 191.769C224.334 190.103 223.344 188.814 221.732 188.829C220.25 188.829 219.521 189.773 218.292 190.902C215.544 193.435 213.471 198.157 213.287 202.417C213.064 207.338 215.045 210.44 216.55 214.179" fill="#2D72E2"></path><path fill-rule="evenodd" clip-rule="evenodd" d="M216.512 212.881C214.554 208.49 211.138 207.622 207.368 206.739C204.021 205.972 199.054 202.839 198.041 198.763C197.572 196.874 197.68 195.009 199.008 193.85C200.221 192.783 201.311 193.082 202.939 193.197C206.578 193.45 210.846 196.153 213.318 199.815C216.181 204.052 216.258 208.259 217.072 212.681" fill="#377DFF"></path><path fill-rule="evenodd" clip-rule="evenodd" d="M230.683 201.757C230.345 201.588 229.915 201.88 229.585 201.957C228.272 202.204 227.015 202.69 225.877 203.392C225.433 203.568 225.014 203.803 224.633 204.091C224.434 204.237 224.219 204.375 224.004 204.544L223.305 205.104C222.868 205.434 222.422 205.757 222.016 206.102C220.25 207.793 218.827 209.808 217.824 212.037C217.724 212.282 217.617 212.551 217.517 212.804C217.417 213.058 217.263 213.488 217.148 213.856C217.022 214.195 216.927 214.544 216.864 214.9C216.772 215.568 216.995 216.128 217.363 216.259C217.646 215.984 217.841 215.631 217.924 215.246C217.993 215.008 218.07 214.77 218.154 214.547C218.238 214.324 218.315 214.071 218.4 213.825C218.546 213.426 218.753 212.989 218.929 212.536C219.106 212.083 219.375 211.63 219.605 211.177C220.063 210.355 220.576 209.565 221.14 208.812C221.889 207.85 222.718 206.953 223.62 206.133C224.481 205.364 225.399 204.663 226.368 204.037C226.706 203.814 227.044 203.592 227.374 203.354C227.704 203.116 228.05 202.939 228.395 202.747L229.516 202.218L230.683 201.757Z" fill="white"></path><path fill-rule="evenodd" clip-rule="evenodd" d="M221.271 192.391C220.887 192.56 220.687 193.159 220.411 193.504C219.393 194.823 218.55 196.268 217.901 197.803C217.592 198.316 217.334 198.859 217.133 199.423C217.025 199.707 216.918 199.999 216.81 200.314L216.488 201.342C216.273 201.98 216.043 202.609 215.859 203.231C215.184 205.89 214.963 208.644 215.206 211.376C215.206 211.653 215.283 211.944 215.329 212.251C215.375 212.559 215.452 213.019 215.536 213.372C215.602 213.725 215.697 214.072 215.82 214.409C216.074 214.992 216.549 215.23 216.941 215.007C217.061 214.586 217.061 214.139 216.941 213.718C216.88 213.48 216.826 213.234 216.787 212.988C216.749 212.743 216.68 212.489 216.634 212.221C216.557 211.791 216.519 211.276 216.45 210.77C216.381 210.263 216.381 209.695 216.35 209.15C216.335 208.101 216.386 207.052 216.503 206.01C216.677 204.599 216.947 203.201 217.31 201.826C217.676 200.47 218.122 199.137 218.645 197.834C218.83 197.373 219.006 196.905 219.175 196.437C219.344 195.968 219.559 195.531 219.758 195.093L220.472 193.719L221.271 192.391Z" fill="white"></path><path fill-rule="evenodd" clip-rule="evenodd" d="M201.203 197.22C201.587 197.066 202.04 197.412 202.447 197.527C203.934 197.903 205.345 198.534 206.616 199.392C207.114 199.619 207.581 199.908 208.005 200.252C208.236 200.421 208.466 200.598 208.712 200.797L209.479 201.465C209.963 201.857 210.462 202.233 210.915 202.655C212.84 204.606 214.38 206.904 215.452 209.426C215.559 209.703 215.667 210.002 215.774 210.317C215.882 210.632 216.035 211.085 216.151 211.484C216.274 211.86 216.366 212.245 216.427 212.635C216.511 213.365 216.227 213.956 215.797 214.063C215.478 213.752 215.261 213.35 215.176 212.912C215.107 212.643 215.03 212.39 214.938 212.144C214.845 211.898 214.776 211.622 214.7 211.376C214.546 210.931 214.331 210.44 214.139 209.925C213.947 209.411 213.671 208.912 213.425 208.39C212.934 207.454 212.377 206.553 211.759 205.695C210.163 203.518 208.217 201.619 206.002 200.076C205.618 199.799 205.234 199.531 204.873 199.247C204.512 198.963 204.105 198.74 203.737 198.479L202.478 197.819L201.203 197.22Z" fill="white"></path><path d="M8.78256 24.088C13.633 24.088 17.5651 19.7091 17.5651 14.3074C17.5651 8.90577 13.633 4.52686 8.78256 4.52686C3.93208 4.52686 0 8.90577 0 14.3074C0 19.7091 3.93208 24.088 8.78256 24.088Z" fill="#F3F4F9"></path><path d="M441.375 94.7164C446.437 94.7164 450.541 90.5094 450.541 85.3197C450.541 80.13 446.437 75.923 441.375 75.923C436.312 75.923 432.208 80.13 432.208 85.3197C432.208 90.5094 436.312 94.7164 441.375 94.7164Z" fill="#F3F4F9"></path><path fill-rule="evenodd" clip-rule="evenodd" d="M388.896 64.0083C386.849 62.0614 385.312 59.6413 384.42 56.9608C382.117 50.681 382.286 42.4513 387.283 38.3364C389.732 36.325 392.995 35.5803 395.206 33.2619C398.753 29.5539 398.315 23.3585 397.133 18.1919C395.951 13.0253 394.3 7.48247 396.204 2.59222C402.545 -2.70492 412.218 0.795796 417.814 6.98347C426.558 16.6335 431.341 38.5283 425.576 51.2645C420.378 62.7877 399.098 72.8983 388.896 64.0083Z" fill="#F3F4F9"></path></svg>