<svg xmlns="http://www.w3.org/2000/svg" width="432" height="244" viewBox="0 0 432 244" fill="none"><path d="M198.423 0.466185C198.423 0.466185 148.579 -4.46641 122.83 17.758C97.0798 39.9824 75.4742 62.2068 75.0845 89.6568C74.6948 117.107 108.298 149.371 96.7425 163.289C85.1866 177.208 102.918 239.978 169.908 243.256C236.897 246.534 267.683 236.083 284.732 217.762C301.781 199.441 346.386 190.526 346.184 160.677C345.982 130.828 305.379 78.6515 307.844 55.7224C310.31 32.7933 250.155 5.39087 198.423 0.466185Z" fill="#F2F4FA"></path><path fill-rule="evenodd" clip-rule="evenodd" d="M126.407 129.912C125.819 127.209 124.613 124.697 122.894 122.594C121.176 120.492 118.995 118.862 116.543 117.845C113.566 116.632 110.25 116.347 107.168 115.403C104.086 114.46 100.996 112.541 100.227 109.608C99.6619 107.467 100.438 105.247 100.672 103.051C100.855 100.734 100.469 98.406 99.5524 96.2904C98.6353 94.1748 97.2173 92.3423 95.4341 90.9684C89.2922 86.0767 79.2768 85.9181 74.838 79.6231C74.2476 78.5659 73.5053 77.6112 72.6375 76.7927C71.6578 76.0474 70.0225 75.8572 69.2463 76.7927C69.0208 77.1522 68.8746 77.5602 68.8186 77.9869C68.7625 78.4136 68.7979 78.848 68.9222 79.2584C69.1573 81.2733 69.6465 83.2463 70.3767 85.1253C72.2004 89.2718 76.1945 92.1577 79.6084 95.3131C83.0222 98.4686 86.1497 102.631 85.4112 107.055C85.0514 108.512 84.6007 109.942 84.0622 111.336C83.3689 113.604 83.3086 116.164 84.5445 118.202C86.8053 121.881 92.5177 122.547 95.2156 125.98C97.4764 128.866 97.0167 132.909 95.7431 136.286C94.4695 139.664 92.5101 142.883 92.058 146.45C91.3873 151.754 94.1681 156.86 96.9941 161.514C98.2074 163.528 99.5187 165.589 101.516 166.897C102.832 167.681 104.259 168.235 105.743 168.539C108.253 169.133 110.966 169.403 113.378 168.539C119.143 166.461 120.16 160.158 120.077 155.156C120.032 149.701 124.229 145.475 125.774 140.354C126.858 136.993 127.076 133.39 126.407 129.912Z" fill="#B7D2F9"></path><path fill-rule="evenodd" clip-rule="evenodd" d="M90.288 95.3187C89.5548 94.7334 88.7649 94.2308 87.9312 93.8192C87.0846 93.4213 86.2114 93.0889 85.3185 92.8248C84.43 92.5564 83.549 92.3039 82.7132 91.9803C81.8982 91.6675 81.1181 91.2626 80.3866 90.7728C79.4755 90.1702 78.6493 89.437 77.932 88.5946C77.2803 87.8237 76.7858 86.9213 76.4788 85.9429C77.3883 88.0193 78.9046 89.7385 80.8083 90.8517C82.0239 91.5451 83.3268 92.0552 84.6784 92.367C84.632 92.337 84.5952 92.293 84.573 92.2407C84.4526 92.0671 84.3697 91.8225 84.2493 91.6331L84.1062 91.3963C83.661 90.6808 83.1571 90.0075 82.6003 89.3838C82.4648 89.2339 82.3593 89.0445 82.2087 88.8945C81.9065 88.6174 81.6223 88.3195 81.3579 88.0027C80.951 87.6242 80.5733 87.2125 80.2285 86.7715C80.1155 86.6453 79.9273 86.5663 79.9122 86.3927L80.748 87.0478C81.004 87.253 81.2977 87.4266 81.5687 87.6476C81.8398 87.8685 82.284 88.271 82.653 88.6025C83.0153 88.9375 83.3597 89.2932 83.6845 89.6679C84.196 90.2193 84.6342 90.8405 84.9872 91.5147C85.1603 91.8777 85.3486 92.2565 85.1829 92.4854H85.1227C85.8756 92.6985 86.6286 92.9274 87.3815 93.2115C87.7279 93.3456 88.0667 93.5035 88.4056 93.6692C88.2776 93.5035 88.1571 93.2904 88.0442 93.1247L87.871 92.8721C87.374 92.0829 86.9524 91.3489 86.4328 90.5992C86.3199 90.4256 86.2371 90.2204 86.1015 90.0389C85.7928 89.6364 85.5218 89.4075 85.2808 89.0681C84.8529 88.6597 84.3946 88.2877 83.9104 87.9554C83.7598 87.8685 83.5415 87.8606 83.4436 87.7028C83.8201 87.7949 84.1843 87.9354 84.5279 88.1211C84.8629 88.2849 85.1829 88.4804 85.4841 88.7051C85.8786 89.0358 86.244 89.4029 86.5759 89.8021C86.9098 90.1938 87.2191 90.6076 87.502 91.0411C87.871 91.5936 88.4056 92.3907 88.7519 92.9747C88.9628 93.3299 89.2263 93.6692 89.1058 93.9297H88.9703C90.1189 94.5585 91.1762 95.3557 92.1101 96.2973C92.1101 96.1 92.0499 95.8948 92.0122 95.7133L91.9445 95.3897C91.7905 94.4211 91.4744 93.4886 91.0108 92.6354C90.8979 92.4381 90.815 92.2013 90.672 91.9961C90.3785 91.6198 90.1046 91.2272 89.8513 90.8202C89.452 90.2931 89.014 89.7996 88.5411 89.3444C88.383 89.226 88.1496 89.1786 88.0517 88.9971C88.4541 89.157 88.832 89.3777 89.1736 89.6521C89.4974 89.8918 89.8044 90.1556 90.0922 90.4414C90.4762 90.8596 90.8075 91.3016 91.1689 91.7593C91.5302 92.2264 91.8314 92.7412 92.0649 93.2904C92.3988 94.0929 92.6243 94.9402 92.7351 95.808C92.7878 96.242 92.8781 96.6682 92.7351 96.905C93.424 97.6816 94.0206 98.5429 94.512 99.4699V99.0753C94.512 97.8836 94.512 96.7077 94.4142 95.5791C94.4 95.3147 94.3723 95.0512 94.3313 94.7899C94.1691 94.2661 93.9729 93.7546 93.744 93.2588C93.3299 92.6354 92.9534 91.8856 92.5167 91.3174C92.3812 91.1359 92.1478 90.9859 92.1176 90.7649C92.464 91.1043 92.8028 91.4594 93.1266 91.8304C93.4491 92.1733 93.7509 92.5371 94.0301 92.9195C94.406 93.4853 94.6909 94.1118 94.8735 94.7741C95.0356 95.4292 95.124 96.102 95.137 96.7787C95.1822 97.6389 95.2274 98.878 95.2274 99.7698C95.258 100.146 95.23 100.524 95.1445 100.89C95.4042 101.544 95.6083 102.22 95.7544 102.911C95.8712 103.498 95.9392 104.095 95.9577 104.694C96.402 103.495 96.801 102.327 97.1323 101.08C97.2302 100.717 97.3657 100.346 97.4335 99.9592C97.537 99.2167 97.5949 98.4681 97.6067 97.7178C97.546 96.6815 97.3141 95.6642 96.9215 94.711C96.7382 94.4685 96.584 94.2035 96.4622 93.9218C96.8948 94.4312 97.2434 95.0127 97.4937 95.6422C97.7377 96.2301 97.9098 96.8479 98.0057 97.4811C98.107 98.3821 98.0842 99.2938 97.938 100.188C97.7977 101.1 97.5836 101.998 97.298 102.871C96.9087 104.216 96.441 105.533 95.8975 106.817L95.8372 106.944C95.8372 107.133 95.7921 107.33 95.7469 107.52C95.7017 107.709 95.6415 108.041 95.5888 108.309C96.1234 107.394 96.7031 106.525 97.2603 105.618C97.441 105.318 97.6744 105.026 97.8401 104.702C98.1505 104.077 98.4221 103.431 98.6533 102.769C98.9069 101.852 98.9761 100.89 98.8566 99.9434C98.8039 99.6672 98.6156 99.3989 98.6307 99.1542C98.9205 99.6964 99.0999 100.296 99.1578 100.914C99.2253 101.5 99.2101 102.093 99.1126 102.674C98.9348 103.5 98.6511 104.296 98.2693 105.042C97.8825 105.806 97.4578 106.549 96.9968 107.267C96.3339 108.343 95.7257 109.455 95.1746 110.598L94.8433 111.292C94.7982 111.505 94.7379 111.71 94.6927 111.916L94.625 112.208C94.6594 112.285 94.6822 112.368 94.6927 112.452C94.6529 112.46 94.6121 112.46 94.5723 112.452C94.2674 113.67 94.1957 114.939 94.3614 116.185C94.4883 116.888 94.744 117.558 95.1144 118.158C95.4999 118.783 95.9806 119.338 96.5375 119.8C96.7182 119.958 96.9215 120.092 97.1173 120.234C96.9982 120.066 96.8876 119.893 96.786 119.713C96.6866 119.546 96.5986 119.372 96.5224 119.192C96.1959 118.405 95.9901 117.569 95.9125 116.714C95.8208 115.889 95.8082 115.056 95.8749 114.228C95.8749 113.841 96.0029 113.439 96.0631 113.036C96.1575 112.259 96.3473 111.498 96.6278 110.771C96.9387 109.742 97.4011 108.77 97.9982 107.891C98.1142 107.591 98.2916 107.322 98.5178 107.102C98.2015 107.686 97.9229 108.277 97.6669 108.877C97.4438 109.456 97.2552 110.049 97.1022 110.653C96.8531 111.495 96.6767 112.359 96.5751 113.234C96.4795 114.122 96.4593 115.017 96.5149 115.909C96.568 117.259 96.9406 118.575 97.5992 119.737C97.9756 120.352 98.5705 120.778 98.7211 121.126C98.6987 121.13 98.6757 121.13 98.6533 121.126C99.2616 121.43 99.8878 121.694 100.528 121.915C100.95 122.062 101.379 122.204 101.816 122.341C101.216 121.893 100.676 121.362 100.212 120.763C100.099 120.597 100.016 120.408 99.9107 120.234C99.6738 119.933 99.4879 119.591 99.3611 119.224C99.1164 118.77 98.9555 118.272 98.8867 117.756C98.8867 117.614 98.7286 117.464 98.8114 117.314C98.9394 117.614 99.0674 117.898 99.2105 118.182C99.3557 118.453 99.514 118.717 99.6848 118.971C99.9036 119.339 100.14 119.694 100.393 120.037C100.663 120.383 100.952 120.712 101.259 121.023C101.743 121.496 102.27 121.919 102.832 122.286C103.126 122.483 103.465 122.625 103.51 122.886L105.196 123.375C106.253 123.688 107.287 124.078 108.291 124.543C108.104 124.296 107.903 124.062 107.689 123.841L107.229 123.399C105.784 122.041 104.127 121.031 102.712 119.547C102.386 119.195 102.079 118.823 101.793 118.435C101.198 117.728 100.711 116.929 100.347 116.067C99.7959 114.968 99.4532 113.767 99.3385 112.531C99.2457 112.185 99.2226 111.822 99.2707 111.466C99.6478 113.986 100.709 116.34 102.328 118.245C103.045 119.064 103.84 119.804 104.7 120.455C106.085 121.426 107.378 122.533 108.562 123.762C108.929 124.168 109.234 124.631 109.466 125.135C109.594 125.214 109.729 125.277 109.85 125.356C111.074 126.122 112.181 127.077 113.133 128.189C113.136 128.163 113.136 128.136 113.133 128.11L112.892 127.455C112.109 125.443 110.961 123.61 109.511 122.057C109.166 121.656 108.802 121.274 108.419 120.913C107.485 120.123 106.755 119.603 106.017 118.916C104.859 118.092 103.841 117.071 103.005 115.893C102.73 115.595 102.522 115.237 102.395 114.844C102.854 115.584 103.403 116.258 104.029 116.848C104.657 117.414 105.316 117.941 106.002 118.427C106.951 119.145 107.937 119.871 108.901 120.692C109.844 121.509 110.695 122.435 111.438 123.454C111.986 124.2 112.474 124.992 112.899 125.822C113.317 126.654 113.66 127.526 113.923 128.426C114.036 128.828 114.142 129.215 114.209 129.61C114.84 130.589 115.347 131.65 115.715 132.767C115.718 130.909 115.532 129.057 115.158 127.242C115.045 126.65 114.962 126.027 114.789 125.419C114.433 124.254 114.011 123.113 113.524 122.002C113.099 121.262 112.593 120.576 112.018 119.958C111.417 119.345 110.744 118.815 110.015 118.379C109.54 118.184 109.094 117.918 108.69 117.59C109.711 118.025 110.694 118.554 111.627 119.169C112.52 119.75 113.289 120.519 113.886 121.426C114.621 122.689 115.202 124.044 115.617 125.458C116.057 126.866 116.367 128.314 116.544 129.783C116.841 131.993 116.841 134.235 116.544 136.444C116.544 136.539 116.544 136.626 116.544 136.72C117.222 135.253 117.779 133.727 118.208 132.159C118.406 131.499 118.565 130.827 118.682 130.146C118.772 129.443 118.797 128.732 118.757 128.023C118.757 127.384 118.659 126.792 118.592 126.145C118.213 124.298 117.388 122.583 116.197 121.165C115.821 120.739 115.233 120.447 114.932 120.021C115.98 120.644 116.887 121.498 117.59 122.523C118.254 123.461 118.763 124.509 119.096 125.624C119.516 127.205 119.629 128.858 119.427 130.486C119.213 132.133 118.8 133.745 118.2 135.284C117.665 136.752 116.815 138.607 116.016 140.272C115.868 140.948 115.682 141.615 115.459 142.269C115.361 142.576 115.241 142.876 115.128 143.184C116.589 141.558 118.14 140.027 119.518 138.394C120.031 137.815 120.508 137.204 120.948 136.563C121.711 135.293 122.285 133.909 122.65 132.459C123.039 130.466 123.008 128.408 122.56 126.429C122.326 125.87 122.134 125.292 121.987 124.701C122.59 125.847 123.007 127.09 123.222 128.379C123.45 129.606 123.493 130.863 123.35 132.104C123.097 133.918 122.465 135.651 121.498 137.178C120.468 138.732 119.301 140.18 118.012 141.503C116.51 143.073 115.1 144.736 113.788 146.483C113.396 147.367 113.035 148.243 112.628 149.103C112.086 150.366 111.582 151.605 111.19 152.805C112.54 150.564 114.288 148.616 116.34 147.067C116.912 146.649 117.568 146.341 118.177 145.97C119.326 145.292 120.384 144.459 121.325 143.492C122.448 142.099 123.383 140.551 124.103 138.891C124.235 138.376 124.433 137.882 124.69 137.423C124.424 138.519 124.074 139.59 123.644 140.627C123.234 141.656 122.711 142.63 122.085 143.531C121.601 144.185 121.045 144.775 120.429 145.291C119.784 145.806 119.113 146.283 118.418 146.72C117.091 147.533 115.875 148.531 114.804 149.687C113.279 151.467 111.932 153.405 110.783 155.472C110.623 155.759 110.482 156.057 110.362 156.364C110.2 157.675 110.213 159.003 110.399 160.31C110.399 160.176 110.46 160.034 110.49 159.915C111.065 157.843 111.988 155.895 113.215 154.162C113.509 153.752 113.886 153.373 114.224 152.962C114.845 152.147 115.57 151.424 116.378 150.816C117.432 149.871 118.642 149.136 119.947 148.645C120.298 148.415 120.694 148.269 121.106 148.219C120.328 148.591 119.574 149.016 118.848 149.49C118.198 149.967 117.584 150.495 117.01 151.068C116.184 151.826 115.428 152.664 114.751 153.57C114.074 154.482 113.47 155.451 112.944 156.466C112.173 157.988 111.606 159.613 111.258 161.296C111.13 161.912 111.107 162.535 110.987 163.001C111.253 163.865 111.575 164.709 111.95 165.527C112.003 165.306 112.071 165.077 112.116 164.871C112.161 164.666 112.191 164.564 112.237 164.43C112.649 163.097 113.205 161.818 113.893 160.618C114.066 160.341 114.292 160.073 114.48 159.828C114.798 159.259 115.177 158.729 115.61 158.25C116.128 157.514 116.733 156.848 117.409 156.269C117.59 156.088 117.696 155.796 117.989 155.732L117.04 157.074C116.747 157.5 116.521 157.966 116.288 158.416C115.911 159.031 115.535 159.639 115.166 160.302C114.797 160.965 114.473 161.612 114.187 162.299C113.758 163.327 113.388 164.381 113.08 165.456C112.929 165.976 112.869 166.521 112.545 166.773L112.651 166.994C112.515 166.953 112.39 166.878 112.289 166.773C112.189 166.728 112.103 166.654 112.041 166.56C111.834 166.593 111.624 166.58 111.422 166.525C111.22 166.469 111.031 166.371 110.866 166.237C110.407 165.905 109.887 165.448 109.421 165.037L108.841 164.564C107.079 163.127 105.362 161.817 103.706 160.239C103.322 159.876 102.953 159.45 102.606 159.047C101.851 158.328 101.185 157.511 100.626 156.616C99.7826 155.508 99.1673 154.229 98.8189 152.86C98.6985 152.481 98.4575 152.071 98.5554 151.684C98.8208 152.504 99.1586 153.297 99.5644 154.051C99.9823 154.76 100.453 155.433 100.972 156.064C101.692 157.003 102.48 157.881 103.329 158.692C104.195 159.481 105.129 160.334 106.1 161.115C107.357 162.141 109.262 163.538 110.527 164.682L110.957 165.061C110.776 164.753 110.603 164.406 110.43 164.035C110.153 163.836 109.9 163.603 109.677 163.34C109.134 162.693 108.517 161.809 107.982 161.091C107.749 160.783 107.531 160.476 107.327 160.191C105.401 157.509 103.703 154.654 102.252 151.66C101.929 150.95 101.665 150.2 101.371 149.45C100.748 148.045 100.262 146.578 99.9183 145.07C99.3467 143.071 99.0575 140.994 99.0599 138.907C98.9262 138.258 98.9134 137.588 99.0222 136.934C99.0754 138.218 99.2112 139.496 99.4288 140.761C99.6603 141.968 99.9621 143.16 100.332 144.328C100.827 146.02 101.433 147.673 102.147 149.277C102.894 150.933 103.726 152.545 104.639 154.107C105.829 156.174 107.787 159.023 109.247 161.052C109.338 161.186 109.436 161.312 109.534 161.446C109.458 161.115 109.39 160.776 109.338 160.42C109.161 160.163 109.019 159.882 108.916 159.584C108.645 158.795 108.412 157.832 108.163 157.003C108.065 156.648 107.967 156.301 107.892 155.977C107.131 152.914 106.553 149.803 106.16 146.664C106.07 145.931 106.055 145.157 105.972 144.392C105.794 142.932 105.542 141.483 105.219 140.051C104.895 139.076 104.489 138.133 104.007 137.233C103.521 136.34 102.959 135.495 102.328 134.708C101.894 134.283 101.512 133.803 101.191 133.28C102.119 134.196 102.989 135.174 103.796 136.207C104.58 137.182 105.217 138.276 105.686 139.451C106.232 141.113 106.601 142.834 106.785 144.581C107.034 146.27 107.282 148.03 107.606 149.758C107.96 151.715 108.57 154.399 109.112 156.577C109.147 156.416 109.192 156.258 109.247 156.103C109.378 155.128 109.582 154.165 109.857 153.223C109.787 152.979 109.747 152.727 109.737 152.473C109.714 151.562 109.747 150.649 109.835 149.742L109.933 148.677C110.286 145.425 110.821 142.426 110.384 139.285C110.332 138.938 110.271 138.567 110.211 138.181C110.151 137.794 110.053 137.439 109.925 137.076C109.381 135.669 108.618 134.368 107.666 133.224C106.203 131.647 104.441 130.408 102.493 129.586C101.872 129.425 101.258 129.23 100.656 129.002C102.019 129.209 103.342 129.638 104.579 130.273C105.755 130.847 106.846 131.596 107.817 132.498C109.157 133.761 110.19 135.341 110.829 137.107C111.404 138.848 111.66 140.688 111.582 142.529C111.582 144.841 111.077 148.053 110.881 150.374L110.964 150.161C110.952 149.831 110.998 149.502 111.1 149.19C111.417 148.297 111.834 147.447 112.342 146.657C112.372 146.614 112.4 146.569 112.425 146.522C112.349 146.169 112.349 145.802 112.425 145.449C112.543 144.949 112.702 144.461 112.899 143.989C113.083 143.53 113.244 143.061 113.381 142.584C113.487 142.198 113.584 141.795 113.66 141.464C114.413 138.054 114.111 134.534 111.988 131.646C111.499 130.938 110.939 130.287 110.317 129.704C108.986 128.589 107.517 127.667 105.949 126.966C103.687 126.093 101.33 125.517 98.9319 125.253C98.2062 125.26 97.4812 125.207 96.7634 125.095C98.2944 125.035 99.8277 125.101 101.349 125.293C102.815 125.456 104.262 125.767 105.671 126.224C107.652 126.907 109.492 127.978 111.092 129.381C112.677 130.745 113.861 132.551 114.511 134.59C114.959 136.062 115.141 137.609 115.045 139.151C115.045 139.325 115.007 139.491 114.992 139.656C115.083 139.206 115.166 138.749 115.226 138.291C115.207 138.123 115.207 137.954 115.226 137.786C115.226 137.62 115.271 137.447 115.294 137.257C115.352 135.991 115.204 134.723 114.857 133.508C114.066 130.885 112.51 128.588 110.407 126.942C109.309 126.055 108.087 125.35 106.785 124.851C106.251 124.638 105.693 124.448 105.136 124.275C104.722 124.204 104.263 124.109 103.856 124.054L103.179 123.959C101.108 123.651 99.1352 123.43 97.0871 122.957C96.6203 122.838 96.1459 122.673 95.6641 122.523C94.7406 122.276 93.8466 121.921 92.9986 121.465C91.8344 120.932 90.7826 120.162 89.904 119.2C89.6223 118.965 89.3892 118.672 89.2188 118.34C89.7355 118.938 90.3195 119.468 90.9581 119.918C91.5864 120.339 92.2491 120.701 92.9384 120.999C93.9326 121.458 94.963 121.825 96.0179 122.096C97.1129 122.379 98.2213 122.6 99.3385 122.759C99.8279 122.838 100.408 122.917 101.003 122.996C99.1035 122.416 97.3327 121.448 95.7921 120.147C95.6525 120.134 95.5155 120.099 95.3855 120.045C95.0165 119.895 94.5723 119.642 94.1958 119.461L93.729 119.216C92.3481 118.496 91.0789 117.562 89.9642 116.446C89.7225 116.168 89.4962 115.875 89.2865 115.57C88.8392 115.019 88.4713 114.402 88.1947 113.739C87.7756 112.886 87.4521 111.986 87.231 111.055C87.1053 110.812 87.0308 110.543 87.0126 110.266C87.2611 110.858 87.4945 111.395 87.7053 111.9C87.9162 112.405 88.2098 112.894 88.4583 113.399C88.8216 114.11 89.2584 114.777 89.7609 115.388C90.3031 116.015 90.9062 116.581 91.5605 117.077C92.572 117.806 93.6341 118.455 94.7379 119.019C94.1169 118.174 93.7056 117.182 93.5407 116.13C93.4454 116.078 93.3547 116.017 93.2697 115.949C92.917 115.641 92.5941 115.297 92.3059 114.923C92.1854 114.765 92.0574 114.623 91.9671 114.481C91.0872 113.148 90.402 111.685 89.9341 110.14C89.8211 109.793 89.7534 109.414 89.6329 109.043C89.3816 108.351 89.1754 107.641 89.0155 106.92C88.7179 105.963 88.5136 104.977 88.4056 103.976C88.3112 103.698 88.2777 103.402 88.3077 103.108C88.4432 103.716 88.6013 104.316 88.7745 104.915C88.9477 105.515 89.1585 106.028 89.3543 106.604C89.6254 107.394 89.8814 108.183 90.1901 109.019C90.4988 109.856 90.7699 110.661 91.1162 111.458C91.6091 112.677 92.2686 113.815 93.0739 114.836C93.189 114.983 93.3122 115.122 93.4428 115.254C93.4269 114.16 93.5535 113.069 93.8193 112.01C93.7737 111.974 93.7332 111.932 93.6988 111.884C93.4017 111.462 93.1493 111.006 92.9459 110.527C92.8583 110.345 92.7803 110.157 92.7125 109.966C92.1727 108.29 91.7153 106.586 91.3421 104.86C91.2292 104.473 91.1614 104.071 91.0108 103.653C90.7149 102.882 90.3545 102.14 89.9341 101.435C89.2675 100.484 88.4709 99.6409 87.5698 98.9332C87.2647 98.771 86.977 98.5753 86.7114 98.3492C87.3857 98.6651 88.0225 99.0624 88.6089 99.533C89.1615 99.9649 89.6666 100.46 90.1148 101.009C90.7158 101.802 91.2005 102.686 91.5529 103.629C91.8895 104.56 92.1712 105.511 92.3962 106.478C92.7136 107.915 93.165 109.316 93.744 110.661C93.8193 110.834 93.9022 111 93.9925 111.166C94.1883 110.377 94.3916 109.674 94.5873 108.94C94.419 108.73 94.2843 108.493 94.1883 108.238C93.9679 107.598 93.7844 106.944 93.6386 106.281L93.4579 105.492C93.2301 104.339 92.9257 103.205 92.5468 102.098C92.139 100.994 91.5419 99.9775 90.7849 99.099C90.4186 98.6477 90.0182 98.2281 89.5877 97.8441C88.6813 97.1221 87.7075 96.4981 86.6813 95.9816C85.2075 95.3157 83.6704 94.8157 82.0958 94.49C81.617 94.4519 81.1415 94.3781 80.6727 94.269C81.6854 94.3122 82.6929 94.4442 83.6845 94.6636C84.6434 94.8401 85.5857 95.1042 86.5006 95.4528C87.7906 95.9705 88.9988 96.6888 90.0847 97.5837C91.1635 98.4625 92.0558 99.5672 92.7049 100.827C93.5708 102.406 94.0151 104.939 94.4217 106.652C94.497 106.983 94.5873 107.307 94.6777 107.615C94.6909 107.533 94.7136 107.453 94.7455 107.378C94.8208 107.173 94.9262 106.944 95.0316 106.715C95.1567 105.983 95.2097 105.24 95.1897 104.497C95.0647 102.732 94.5685 101.018 93.7365 99.4778C92.8704 97.8589 91.6967 96.4433 90.288 95.3187Z" fill="#F0F5FF"></path><path fill-rule="evenodd" clip-rule="evenodd" d="M307.261 114.013L297.975 110.862C302.654 101.7 308.354 93.1519 314.954 85.3978L322.399 86.2957L319.214 80.7822C325.705 74.355 332.053 70.3065 337.312 69.9048C345.697 69.259 349.002 78.1436 347.026 91.9589L339.363 94.9598L346.388 95.6608C344.84 103.011 342.554 110.169 339.566 117.014L339.206 117.802L328.004 122.189L336.794 123.063C333.073 130.811 328.671 138.178 323.646 145.07L314.781 144.881L319.597 150.276C311.175 160.468 302.438 167.132 295.661 167.66C288.434 168.219 284.978 161.673 285.436 150.985L295.143 146.07L285.88 146.125C286.864 138.792 289.35 130.042 293.392 120.55C293.866 119.44 294.361 118.337 294.857 117.242L307.261 114.013Z" fill="#B7D2F9"></path><path d="M318.201 88.5079L319.24 87.9706L326.098 97.8472L337.194 74.1198L338.241 74.0645L332.233 86.9119L342.923 80.7568L343.39 81.2783L331.729 87.9943L323.004 106.649L341.245 97.1124L341.643 97.6733L322.53 107.661L316.665 120.192L340.635 107.74L341.019 108.308L316.191 121.203L315.145 123.439L338.911 111.485L339.28 112.061L314.686 124.435L307.903 138.926L326.798 131.783L326.971 132.439L307.489 139.811L302.287 150.928L308.483 156.83L307.496 157.438L301.79 151.994L295.128 166.24L294.081 166.296L302.272 148.786L290.777 155.629L290.287 155.123L302.791 147.68L306.51 139.724L306.442 139.479L306.661 139.392L309.883 132.518L293.66 133.434L294.029 132.652L310.244 131.743L311.893 128.22L295.143 123.06L295.888 122.325L312.284 127.374L317.99 115.182L305.599 102.161L306.6 101.569L318.502 114.084L325.526 99.0561L318.201 88.5079Z" fill="#F0F5FF"></path><path fill-rule="evenodd" clip-rule="evenodd" d="M117.4 83.5487L109.481 89.0634C103.804 80.6721 99.1287 71.5899 95.5585 62.0179L100.436 56.7002L93.7163 56.2117C91.3532 47.6246 91.1418 40.4555 93.6182 36.1699C97.597 29.2844 107.495 31.5297 119.009 40.5816L117.536 48.1997L122.066 43.1026C127.815 48.1829 133.075 53.8373 137.77 59.9854C137.959 60.2217 138.14 60.4659 138.329 60.7101L136.215 71.8183L141.802 65.437C146.733 72.4014 151.03 79.8312 154.637 87.6296L149.631 94.4363L157.181 93.6485C161.862 105.741 163.168 116.172 159.952 121.742C156.524 127.682 148.687 126.823 139.212 120.67L140.02 110.429L135.029 117.677C127.878 111.965 121.434 105.349 115.845 97.9814C115.09 97.0124 114.335 96.0277 113.633 95.0508L117.4 83.5487Z" fill="#B7D2F9"></path><path d="M100.17 60.8018L100.238 59.687H112.948L97.4404 37.9957L97.9546 37.1357L106.362 48.8891L106.589 37.1119L107.315 37.0322L107.065 49.8765L119.261 66.9333L120.539 47.3682H121.257L119.926 67.857L128.122 79.3158L129.861 53.659L130.579 53.6669L128.78 80.2395L130.239 82.286L132.326 57.0592L133.044 57.091L130.889 83.1937L140.371 96.4442L144.166 77.6754L144.854 77.9063L140.945 97.2484L148.219 107.417L156.951 105.769L156.966 106.876L148.914 108.397L158.229 121.416L157.707 122.276L146.26 106.263L146.223 119.043L145.497 119.147L145.535 105.251L140.333 97.9731L140.076 97.8934L140.121 97.6784L135.622 91.3877L127.623 104.638L127.109 103.929L135.116 90.679L132.81 87.4539L119.004 97.8138L118.739 96.8264L132.258 86.6815L124.289 75.5333L105.704 78.1611L105.712 77.0543L123.57 74.53L113.749 60.7938L100.17 60.8018Z" fill="#F0F5FF"></path><path fill-rule="evenodd" clip-rule="evenodd" d="M275.614 65.4659C275.625 62.7384 276.291 60.0586 277.552 57.678C278.812 55.2975 280.624 53.2943 282.818 51.8566C285.485 50.1505 288.67 49.2855 291.494 47.8095C294.319 46.3335 296.963 43.9132 297.12 40.8898C297.233 38.6838 296.024 36.6444 295.363 34.5415C294.702 32.3482 294.601 30.0094 295.071 27.7618C295.541 25.5142 296.564 23.4375 298.037 21.7416C303.1 15.8377 312.865 13.9173 315.915 6.95794C316.279 5.81685 316.814 4.74507 317.5 3.78377C318.304 2.88706 319.866 2.41094 320.82 3.18068C321.112 3.4907 321.337 3.86433 321.479 4.27549C321.62 4.68666 321.675 5.12546 321.639 5.56131C321.816 7.56889 321.733 9.59264 321.391 11.5764C320.452 15.9726 317.124 19.5118 314.42 23.2176C311.716 26.9235 309.5 31.5657 311.123 35.7794C311.764 37.1518 312.492 38.4774 313.301 39.7471C314.443 41.858 315.051 44.3576 314.217 46.5875C312.715 50.6028 307.299 52.2613 305.346 56.11C303.701 59.3556 304.985 63.2519 306.916 66.3546C308.846 69.4574 311.423 72.2665 312.587 75.6946C314.315 80.7892 312.625 86.3043 310.807 91.375C310.018 93.5652 309.154 95.8189 307.427 97.4695C306.292 98.4814 305.004 99.286 303.618 99.8501C301.29 100.874 298.683 101.62 296.151 101.191C290.089 100.167 287.888 94.1445 286.882 89.2166C285.83 83.8522 280.872 80.4321 278.311 75.6708C276.586 72.5751 275.657 69.0575 275.614 65.4659Z" fill="#B7D2F9"></path><path fill-rule="evenodd" clip-rule="evenodd" d="M303.829 24.9124C304.427 24.2098 305.097 23.5784 305.825 23.0296C306.573 22.4855 307.361 22.0067 308.182 21.5978C309.001 21.1706 309.811 20.7671 310.57 20.3004C311.299 19.8547 311.979 19.324 312.596 18.7182C313.37 17.9687 314.031 17.099 314.555 16.1393C315.041 15.2623 315.343 14.2858 315.441 13.2756C314.979 15.4694 313.838 17.4394 312.198 18.8765C311.147 19.7747 309.976 20.5051 308.723 21.044C308.757 21.0023 308.782 20.9539 308.798 20.9016C308.881 20.7118 308.911 20.4507 308.993 20.245L309.083 19.9919C309.381 19.2074 309.745 18.4529 310.172 17.7373C310.277 17.5712 310.337 17.3655 310.449 17.1836C310.693 16.8623 310.911 16.521 311.102 16.1631C311.438 15.7166 311.732 15.2371 311.981 14.7312C312.071 14.5967 312.243 14.4781 312.213 14.304L311.53 15.0951C311.32 15.3403 311.065 15.5698 310.847 15.8308C310.63 16.0919 310.277 16.5744 309.984 16.9621C309.696 17.3564 309.43 17.7685 309.188 18.1961C308.797 18.8277 308.494 19.515 308.288 20.2371C308.197 20.6247 308.085 21.0282 308.288 21.226H308.348C307.657 21.574 306.951 21.9221 306.283 22.3414C305.971 22.5331 305.667 22.7417 305.375 22.9663C305.465 22.7765 305.533 22.555 305.623 22.3651L305.735 22.0882C306.058 21.2418 306.328 20.427 306.674 19.5963C306.756 19.4065 306.801 19.1929 306.891 18.9951C307.117 18.5363 307.327 18.2673 307.492 17.8955C307.83 17.4168 308.204 16.9671 308.61 16.5507C308.745 16.4399 308.956 16.4004 309.023 16.2184C308.672 16.3762 308.341 16.5809 308.04 16.8276C307.747 17.0443 307.476 17.2907 307.229 17.5633C306.905 17.9585 306.621 18.388 306.381 18.8448C306.131 19.2871 305.91 19.747 305.72 20.2213C305.473 20.8304 305.112 21.7085 304.895 22.3493C304.76 22.729 304.572 23.1404 304.737 23.346H304.88C303.879 24.1711 302.999 25.1467 302.267 26.2414C302.267 26.0436 302.267 25.83 302.267 25.6402V25.3158C302.226 24.3417 302.345 23.3673 302.62 22.4363C302.695 22.2227 302.733 21.9775 302.823 21.7481C303.034 21.3264 303.225 20.8933 303.393 20.4507C303.674 19.8598 304.003 19.296 304.377 18.7657C304.504 18.6233 304.722 18.5363 304.782 18.3385C304.421 18.5676 304.094 18.853 303.814 19.185C303.541 19.4867 303.29 19.8093 303.063 20.1501C302.778 20.6327 302.545 21.1152 302.312 21.6373C302.055 22.162 301.866 22.7207 301.749 23.2986C301.587 24.1549 301.536 25.0305 301.599 25.9012C301.637 26.3284 301.637 26.7635 301.855 26.9692C301.339 27.859 300.93 28.813 300.638 29.8091C300.639 29.796 300.639 29.7828 300.638 29.7696L300.571 29.3741C300.361 28.1954 300.098 27.0799 299.955 25.925C299.914 25.6631 299.886 25.399 299.873 25.1339C299.921 24.6001 300.009 24.0712 300.136 23.5517C300.413 22.8635 300.631 22.0645 300.939 21.4237C301.036 21.226 301.231 21.0361 301.216 20.8067C300.946 21.2101 300.683 21.5978 300.466 22.0329C300.225 22.4314 300.004 22.8434 299.805 23.2669C299.554 23.8933 299.402 24.5587 299.355 25.2367C299.333 25.9156 299.383 26.5949 299.505 27.2619C299.64 28.1162 299.85 29.3424 300.03 30.2126C300.072 30.595 300.176 30.967 300.338 31.3122C300.215 32.0035 300.152 32.7052 300.151 33.4086C300.153 34.0086 300.209 34.607 300.316 35.1964C299.633 34.0968 299.01 33.0051 298.424 31.8422C298.259 31.5021 298.056 31.1619 297.906 30.7901C297.654 30.0799 297.446 29.3533 297.283 28.6146C297.126 27.5935 297.146 26.5508 297.343 25.5373C297.469 25.2569 297.565 24.9623 297.628 24.6592C297.305 25.2356 297.082 25.8677 296.968 26.5262C296.847 27.1532 296.801 27.7937 296.833 28.4327C296.924 29.3445 297.134 30.2388 297.456 31.0907C297.782 31.9617 298.171 32.8053 298.619 33.6142C299.276 34.8588 300.003 36.0607 300.796 37.2136L300.871 37.3323C300.939 37.5142 300.999 37.7041 301.081 37.886C301.164 38.068 301.292 38.3765 301.397 38.6217C300.683 37.8307 299.948 37.0396 299.212 36.2485C298.972 35.9875 298.687 35.7343 298.462 35.4574C298.033 34.8978 297.637 34.3114 297.276 33.7013C296.854 32.851 296.599 31.9202 296.525 30.9641C296.525 30.6793 296.653 30.3787 296.577 30.1098C296.405 30.6981 296.352 31.3178 296.42 31.9292C296.475 32.5242 296.612 33.1076 296.825 33.6617C297.166 34.4525 297.605 35.192 298.131 35.8609C298.642 36.5412 299.25 37.1899 299.828 37.8228C300.578 38.6138 301.614 39.8637 302.297 40.7814L302.755 41.4143L303.033 41.9917C303.071 42.0867 303.116 42.1816 303.153 42.2686C303.138 42.3549 303.138 42.4433 303.153 42.5297C303.193 42.5331 303.233 42.5331 303.273 42.5297C303.818 43.6607 304.142 44.8954 304.227 46.1607C304.258 46.8657 304.156 47.5703 303.926 48.2333C303.674 48.9133 303.317 49.5442 302.868 50.1003C302.718 50.2822 302.553 50.4563 302.387 50.6303C302.47 50.4325 302.545 50.2427 302.605 50.0607C302.669 49.8747 302.722 49.6844 302.763 49.4911C302.919 48.655 302.95 47.798 302.853 46.9518C302.775 46.1202 302.619 45.2988 302.387 44.4995C302.275 44.1197 302.102 43.7479 301.96 43.3603C301.708 42.609 301.367 41.894 300.946 41.2323C300.427 40.2703 299.777 39.3935 299.017 38.6297C298.839 38.3587 298.612 38.1275 298.349 37.9493C298.777 38.4714 299.175 39.0015 299.55 39.5315C299.88 40.0625 300.184 40.6118 300.458 41.1769C300.869 41.9593 301.215 42.7771 301.494 43.6214C301.77 44.4763 301.973 45.3551 302.102 46.2477C302.327 47.5703 302.229 48.9316 301.817 50.2031C301.577 50.8755 301.066 51.3976 300.999 51.7853H301.074C300.537 52.196 299.978 52.5737 299.4 52.9165C299.015 53.138 298.624 53.3516 298.229 53.5573C298.728 53.0017 299.147 52.3729 299.475 51.6903C299.55 51.5084 299.595 51.3106 299.663 51.1208C299.833 50.7801 299.944 50.4106 299.993 50.0291C300.135 49.5349 300.191 49.0176 300.158 48.5023C300.158 48.352 300.256 48.1859 300.158 48.0514C300.09 48.3678 300.023 48.6684 299.948 48.9769C299.873 49.2855 299.738 49.5307 299.64 49.8155C299.5 50.2147 299.34 50.6056 299.16 50.9863C298.966 51.3763 298.75 51.7541 298.514 52.1175C298.134 52.6663 297.704 53.175 297.23 53.6364C296.983 53.8816 296.683 54.0794 296.683 54.3484C296.172 54.6015 295.654 54.8547 295.136 55.1394C294.167 55.6311 293.234 56.1969 292.344 56.8323C292.472 56.5552 292.622 56.2905 292.794 56.0413L293.154 55.5192C294.288 53.937 295.699 52.6159 296.818 50.9309C297.061 50.5243 297.284 50.1045 297.486 49.6731C297.925 48.8745 298.24 48.0063 298.417 47.1021C298.739 45.9154 298.831 44.6723 298.687 43.4473C298.71 43.0874 298.661 42.7263 298.544 42.3873C298.608 43.1399 298.608 43.8971 298.544 44.6498C298.458 45.3639 298.309 46.0683 298.101 46.754C297.834 47.7517 297.445 48.7089 296.945 49.6019C296.41 50.5306 295.783 51.3976 295.076 52.1887C293.914 53.3907 292.872 54.7162 291.968 56.1441C291.692 56.6082 291.487 57.1155 291.36 57.6472L291.03 57.9319C289.989 58.8987 289.099 60.0335 288.395 61.294C288.392 61.2704 288.392 61.2464 288.395 61.2228L288.5 60.5267C288.855 58.4216 289.605 56.4125 290.707 54.6173C290.97 54.1902 291.225 53.7313 291.548 53.3041C292.299 52.3153 292.914 51.722 293.5 50.9309C294.448 49.9112 295.225 48.7288 295.797 47.4343C296.003 47.0892 296.134 46.7001 296.18 46.2952C295.88 47.1018 295.476 47.8605 294.979 48.5498C294.482 49.2185 293.946 49.8526 293.372 50.4484C292.621 51.3185 291.773 52.2045 290.993 53.1855C290.236 54.1567 289.591 55.2189 289.071 56.3498C288.634 57.1485 288.263 57.9847 287.96 58.8496C287.719 59.7464 287.56 60.6657 287.487 61.5946C287.487 62.006 287.435 62.3857 287.442 62.805C287.009 63.8742 286.714 64.9996 286.564 66.1512C286.192 64.3313 286.004 62.4752 286.001 60.6137C286.001 60.0125 285.941 59.3875 286.001 58.7547C286.116 57.5471 286.299 56.3478 286.549 55.1632C286.816 54.3627 287.171 53.598 287.607 52.8849C288.073 52.1782 288.626 51.5398 289.251 50.9863C289.626 50.6461 290.152 50.3772 290.385 49.9658C289.472 50.5657 288.615 51.2543 287.825 52.0226C287.063 52.7777 286.467 53.6981 286.076 54.7202C285.612 56.0989 285.316 57.5344 285.198 58.992C285.062 60.4626 285.062 61.9435 285.198 63.4141C285.364 65.656 285.824 67.8629 286.564 69.9721L286.661 70.2332C285.703 68.9075 284.847 67.5028 284.102 66.0326C283.773 65.423 283.482 64.7915 283.231 64.1419C282.998 63.4676 282.83 62.7707 282.728 62.0614C282.623 61.4285 282.57 60.8352 282.51 60.1865C282.497 58.319 282.956 56.4815 283.839 54.8626C284.195 54.4296 284.531 53.9782 284.845 53.5098C283.95 54.31 283.234 55.3098 282.75 56.4368C282.285 57.4845 281.994 58.6081 281.887 59.7593C281.795 61.4036 282.02 63.0504 282.548 64.6007C283.093 66.1933 283.824 67.708 284.725 69.1099C285.543 70.4705 286.759 72.1397 287.877 73.6427C288.162 74.282 288.477 74.9052 288.823 75.5097C288.988 75.7945 289.161 76.0713 289.334 76.3482C287.577 75.0034 285.776 73.801 284.079 72.3928C283.46 71.9017 282.869 71.3734 282.308 70.8107C281.307 69.6977 280.465 68.4372 279.808 67.0689C279.028 65.1923 278.641 63.1605 278.674 61.1121C278.79 60.5203 278.86 59.9198 278.885 59.3163C278.523 60.558 278.366 61.8555 278.419 63.1531C278.451 64.411 278.663 65.6567 279.05 66.8474C279.672 68.5986 280.645 70.1878 281.902 71.5068C283.22 72.8602 284.655 74.0811 286.188 75.1537C287.978 76.4338 289.695 77.8232 291.33 79.3148C291.893 80.1058 292.464 80.8969 292.997 81.688C293.793 82.8351 294.498 83.9663 295.166 85.0817C293.385 83.1146 291.279 81.5061 288.951 80.3353C288.313 80.0346 287.6 79.8448 286.932 79.5442C285.668 79.0739 284.465 78.4387 283.351 77.6535C281.967 76.4839 280.736 75.1274 279.688 73.619C279.459 73.1316 279.169 72.6791 278.825 72.2742C279.291 73.3228 279.835 74.3307 280.453 75.2882C281.066 76.2307 281.776 77.0983 282.57 77.875C283.179 78.4297 283.844 78.9125 284.552 79.3148C285.283 79.7108 286.035 80.0621 286.804 80.3669C288.273 80.9375 289.666 81.7059 290.948 82.6531C292.799 84.1379 294.509 85.8097 296.052 87.6448C296.269 87.8934 296.47 88.1577 296.652 88.4359C297.07 89.6884 297.323 90.9953 297.403 92.3201L297.238 91.9404C296.245 89.9959 294.948 88.2416 293.402 86.7509C293.027 86.4028 292.584 86.0943 292.171 85.7541C291.399 85.0612 290.543 84.4787 289.626 84.0217C288.409 83.2792 287.078 82.7678 285.693 82.5107C285.304 82.3485 284.887 82.2757 284.469 82.2971C285.304 82.5225 286.121 82.8107 286.917 83.1594C287.648 83.5069 288.356 83.9087 289.033 84.3618C289.999 84.9589 290.911 85.6474 291.758 86.4186C292.608 87.1993 293.398 88.0483 294.123 88.958C295.183 90.3124 296.067 91.8103 296.75 93.4118C297.005 93.9972 297.155 94.6063 297.366 95.0414C297.28 95.9371 297.135 96.8254 296.93 97.6994L296.637 97.0903C296.572 96.9373 296.505 96.7949 296.435 96.6631C295.754 95.4278 294.951 94.2717 294.04 93.214C293.815 92.9688 293.537 92.7473 293.29 92.502C292.866 91.9842 292.388 91.5196 291.863 91.1176C291.208 90.4841 290.482 89.9368 289.701 89.488C289.484 89.3377 289.319 89.0687 289.026 89.0608L290.227 90.2158C290.595 90.5797 290.91 91.0069 291.27 91.3945C291.758 91.9324 292.284 92.4625 292.772 93.0558C293.26 93.6491 293.717 94.2266 294.13 94.8515C294.766 95.788 295.345 96.7656 295.864 97.7785C296.12 98.2611 296.292 98.7911 296.652 98.9809C296.652 99.0601 296.615 99.1392 296.6 99.2183C296.721 99.1476 296.826 99.0504 296.908 98.9335C296.994 98.8685 297.064 98.7814 297.11 98.6803C297.315 98.6763 297.516 98.6269 297.701 98.5356C297.886 98.4443 298.05 98.313 298.184 98.1503C298.567 97.7469 298.98 97.1694 299.362 96.7185L299.828 96.1568C301.261 94.4243 302.68 92.8343 303.986 90.9911C304.287 90.5639 304.527 90.0892 304.812 89.6304C305.407 88.7863 305.894 87.8634 306.261 86.8854C306.863 85.639 307.206 84.2717 307.267 82.8746C307.376 82.482 307.376 82.0648 307.267 81.6722C307.174 82.5151 307.006 83.3469 306.764 84.1562C306.499 84.926 306.175 85.6721 305.795 86.387C305.282 87.4365 304.687 88.4393 304.016 89.3852C303.333 90.3424 302.583 91.3154 301.764 92.2568C300.744 93.4909 299.16 95.1996 298.161 96.5523C298.049 96.7026 297.929 96.845 297.808 96.9953C297.937 96.6349 298.04 96.2646 298.116 95.8878C298.342 95.6528 298.536 95.3867 298.694 95.0968C299.1 94.3611 299.52 93.3801 299.895 92.5811C300.068 92.2331 300.218 91.8929 300.361 91.5765C301.704 88.5915 302.785 85.4827 303.589 82.2892C303.769 81.4981 303.866 80.7071 304.009 79.916C304.335 78.418 304.511 76.8881 304.534 75.3515C304.687 73.2687 304.548 71.1737 304.121 69.1336C304.091 68.5277 303.956 67.9327 303.724 67.3774C304.15 69.8546 304.221 72.3853 303.934 74.8847C303.806 76.6344 303.555 78.3717 303.183 80.0821C302.789 81.839 302.303 83.5715 301.727 85.2716C300.976 87.5182 299.648 90.6667 298.627 92.9134L298.424 93.3564C298.424 93.0162 298.424 92.6681 298.424 92.3122C298.543 92.0275 298.624 91.7266 298.664 91.4182C298.777 90.6272 298.807 89.5988 298.867 88.7444C298.867 88.3726 298.912 88.0166 298.927 87.6844C299.045 84.5187 298.977 81.3484 298.724 78.1914C298.664 77.4557 298.522 76.6884 298.447 75.921C298.322 74.4561 298.269 72.9854 298.289 71.5147C298.409 70.504 298.613 69.5061 298.897 68.5324C299.195 67.5856 299.574 66.6694 300.03 65.7953C300.369 65.3072 300.646 64.7755 300.856 64.2131C300.133 65.2741 299.481 66.3869 298.904 67.5435C298.334 68.6402 297.934 69.826 297.718 71.0559C297.518 72.7945 297.506 74.5513 297.681 76.2928C297.778 78.0016 297.899 79.7815 297.929 81.5377C297.981 83.5312 297.929 86.2842 297.839 88.515C297.775 88.361 297.7 88.2128 297.613 88.072C297.284 87.1322 296.887 86.2198 296.427 85.3428C296.463 85.0804 296.463 84.8141 296.427 84.5517C296.263 83.6494 296.045 82.7589 295.774 81.8858L295.466 80.8494C294.453 77.6851 293.327 74.8531 293.109 71.6888C293.109 71.3407 293.072 70.961 293.057 70.5734C293.058 70.1928 293.078 69.8126 293.117 69.4342C293.359 67.9581 293.847 66.5388 294.558 65.2415C295.671 63.429 297.147 61.8954 298.882 60.7482C299.457 60.4821 300.018 60.1837 300.563 59.8543C299.273 60.3134 298.06 60.9835 296.968 61.8399C295.94 62.6143 295.027 63.5446 294.258 64.6007C293.214 66.092 292.534 67.8305 292.276 69.6636C292.066 71.4933 292.188 73.3485 292.637 75.13C293.117 77.4004 294.25 80.4539 294.888 82.7322L294.761 82.5345C294.701 82.2059 294.59 81.8904 294.431 81.601C293.937 80.7789 293.358 80.0174 292.704 79.3306L292.591 79.2119C292.6 78.8462 292.528 78.4834 292.381 78.1519C292.169 77.6787 291.918 77.2261 291.631 76.7991C291.359 76.3807 291.109 75.9476 290.88 75.5018C290.7 75.1379 290.52 74.7819 290.377 74.4496C288.936 71.23 288.53 67.7097 290.024 64.49C290.358 63.7081 290.773 62.9678 291.263 62.2829C292.35 60.9467 293.614 59.7825 295.016 58.8259C297.042 57.5641 299.211 56.5779 301.472 55.891C302.174 55.7721 302.867 55.5948 303.543 55.3609C302.037 55.5703 300.548 55.9063 299.092 56.3656C297.696 56.7802 296.343 57.3421 295.054 58.0427C293.257 59.0512 291.669 60.4283 290.385 62.093C289.107 63.7257 288.311 65.7167 288.095 67.8204C287.957 69.3605 288.094 70.9142 288.5 72.4007C288.545 72.5669 288.606 72.7251 288.658 72.8912C288.47 72.464 288.298 72.0289 288.148 71.5859C288.123 71.4194 288.086 71.2553 288.035 71.0955C287.982 70.9293 287.922 70.7632 287.855 70.5892C287.54 69.3607 287.428 68.0842 287.525 66.8157C287.758 64.1223 288.811 61.5804 290.527 59.5695C291.43 58.5048 292.486 57.5971 293.657 56.8798C294.138 56.5713 294.641 56.2944 295.159 56.0175C295.557 55.8751 295.992 55.7011 296.375 55.5824L297.02 55.3689C298.98 54.6964 300.864 54.1348 302.77 53.3121C303.213 53.1143 303.641 52.8691 304.084 52.6317C304.944 52.2319 305.756 51.7246 306.501 51.1208C307.534 50.3988 308.412 49.4554 309.076 48.352C309.306 48.0697 309.476 47.7376 309.571 47.379C309.198 48.0528 308.747 48.6747 308.228 49.2301C307.698 49.7612 307.12 50.2355 306.501 50.6461C305.626 51.2778 304.696 51.8208 303.724 52.2678C302.706 52.7367 301.666 53.1512 300.608 53.5098L299.025 54.0319C300.753 53.1302 302.287 51.8617 303.528 50.306C303.663 50.2712 303.792 50.2152 303.911 50.1398C304.242 49.9262 304.624 49.6019 304.955 49.3488L305.368 49.0323C306.574 48.0828 307.633 46.9405 308.505 45.6465C308.684 45.3261 308.847 44.9961 308.993 44.6577C309.32 44.0312 309.555 43.3565 309.691 42.6562C309.928 41.7399 310.062 40.7973 310.089 39.8479C310.158 39.5908 310.176 39.3215 310.142 39.0568C310.014 39.6818 309.901 40.2435 309.789 40.7814C309.676 41.3193 309.496 41.8573 309.331 42.3635C309.122 43.127 308.83 43.8623 308.46 44.5548C308.056 45.2656 307.58 45.9286 307.041 46.5325C306.199 47.4292 305.29 48.2545 304.324 49.0007C304.764 48.0494 304.965 46.9956 304.91 45.9392C304.995 45.8784 305.071 45.8036 305.135 45.7177C305.426 45.3557 305.678 44.9603 305.885 44.539C305.968 44.365 306.066 44.2068 306.126 44.0485C306.717 42.575 307.09 41.014 307.229 39.4207C307.274 39.0489 307.229 38.6692 307.304 38.2816C307.408 37.5533 307.465 36.8187 307.477 36.0824C307.574 35.0856 307.574 34.081 307.477 33.0842C307.513 32.7893 307.488 32.4895 307.402 32.2061C307.402 32.8311 307.349 33.4481 307.304 34.0731C307.259 34.698 307.154 35.2359 307.079 35.8372C306.974 36.6282 306.884 37.4984 306.756 38.3607C306.629 39.223 306.516 40.0773 306.343 40.9238C306.099 42.2042 305.674 43.4388 305.082 44.5865C304.999 44.7503 304.906 44.9088 304.805 45.0611C304.595 43.9796 304.252 42.9317 303.784 41.9443L303.874 41.794C304.078 41.3229 304.231 40.8294 304.332 40.3226C304.377 40.1169 304.422 39.9191 304.452 39.7293C304.636 37.9822 304.736 36.2264 304.752 34.4686C304.752 34.0651 304.752 33.6775 304.827 33.2187C304.962 32.4109 305.163 31.6168 305.428 30.8455C305.889 29.7948 306.499 28.824 307.237 27.9659C307.469 27.7207 307.815 27.515 307.987 27.2381C307.389 27.6659 306.845 28.1709 306.366 28.7412C305.903 29.2632 305.503 29.8423 305.172 30.4657C304.74 31.3552 304.444 32.3109 304.294 33.2978C304.151 34.2747 304.068 35.2603 304.046 36.2485C304.027 37.7114 303.871 39.1687 303.581 40.5994C303.542 40.7821 303.492 40.9618 303.431 41.1374C303.093 40.4333 302.74 39.7372 302.402 39.0568C302.527 38.8097 302.61 38.5423 302.65 38.2658C302.736 37.597 302.784 36.9233 302.793 36.2485V35.4574C302.776 34.2882 302.844 33.1193 302.995 31.9609C303.166 30.8076 303.543 29.6989 304.106 28.6937C304.373 28.1878 304.68 27.7062 305.022 27.254C305.763 26.3725 306.591 25.5769 307.492 24.8807C308.807 23.9675 310.211 23.2063 311.681 22.6103C312.138 22.487 312.587 22.331 313.024 22.1436C312.028 22.3691 311.051 22.6813 310.104 23.0771C309.205 23.4325 308.339 23.872 307.514 24.3903C306.369 25.1294 305.343 26.056 304.474 27.1353C303.592 28.1915 302.941 29.4392 302.568 30.7901C302.042 32.5384 302.11 35.0698 302.065 36.826C302.065 37.1662 302.065 37.4984 302.012 37.8149C301.98 37.7404 301.943 37.669 301.9 37.6013C301.779 37.4114 301.629 37.2057 301.479 36.9921C301.207 36.2989 301.003 35.5778 300.871 34.8404C300.636 33.0978 300.774 31.3218 301.276 29.643C301.802 27.8943 302.671 26.2822 303.829 24.9124Z" fill="#F0F5FF"></path><path d="M161.024 24.4551V203.328H295.178V57.1698L260.123 24.4551H161.024Z" fill="white" stroke="#163D66" stroke-width="2.1459" stroke-miterlimit="10"></path><path d="M283.3 66.3784H171.505V69.872H283.3V66.3784Z" fill="#B9D0EC"></path><path d="M283.3 78.9556H171.505V82.4492H283.3V78.9556Z" fill="#B9D0EC"></path><path d="M283.3 92.2312H171.505V95.7248H283.3V92.2312Z" fill="#B9D0EC"></path><path d="M283.3 104.808H171.505V108.302H283.3V104.808Z" fill="#B9D0EC"></path><path d="M216.223 113.891H171.505V121.577H216.223V113.891Z" fill="#B9D0EC"></path><path d="M219.879 114.72C219.879 114.72 221.143 120.594 221.113 120.633C221.084 120.673 214.747 120.847 214.725 120.879L166.614 85.1142L171.775 78.9556L219.879 114.72Z" fill="#4F75B9"></path><path d="M185.08 121.747L187.908 114.166L189.08 111.027C189.08 111.027 183.439 107.718 185.08 103.848C186.721 99.9772 192.725 102.193 192.725 102.193C192.725 102.193 198.488 93.3603 206.482 97.552C214.475 101.744 211.065 108.602 207.072 117.772L206.315 119.49C202.935 127.232 202.012 129.263 202.012 129.263L185.08 121.747Z" fill="#EFDCB4"></path><path d="M205.327 122.276L187.575 115.203L187.821 114.59L206.441 119.856L205.327 122.276Z" fill="#E4C896"></path><path d="M68.0526 229.879H153.346C153.346 229.879 156.629 191.801 160.842 186.747C165.054 181.694 175.623 177.283 184.206 165.4C192.788 153.516 208.537 123.355 208.537 123.355L184.206 113.193C184.206 113.193 180.81 142.719 152.851 154.817C152.851 154.817 93.8753 158.998 80.7203 168.462C67.5654 177.926 60.4819 204.557 60.4819 209.174C60.4819 213.791 59.1252 228.998 68.0526 229.879Z" fill="#FFC107"></path><path d="M117.02 106.206C117.02 106.206 98.6412 107.968 94.0858 123.749C90.0307 137.751 91.9724 145.448 88.4624 150.925C84.9525 156.401 70.278 168.934 71.682 179.697C73.086 190.46 75.5653 195.011 74.6318 204.439C73.6983 213.866 89.9411 220.709 100.941 220.054C109.205 219.69 117.305 217.507 124.727 213.645C130.343 210.792 135.496 198.52 133.853 193.478C132.21 188.437 144.158 184.493 143.217 172.869C142.276 161.245 144.263 155.555 143.27 145.029C142.276 134.504 143.919 126.617 137.601 119.165C131.284 111.713 129.715 106.206 117.02 106.206Z" fill="#093A66"></path><path d="M293.082 213.11C315.85 213.11 334.307 195.122 334.307 172.933C334.307 150.744 315.85 132.757 293.082 132.757C270.315 132.757 251.858 150.744 251.858 172.933C251.858 195.122 270.315 213.11 293.082 213.11Z" fill="#DE4437"></path><path d="M293.431 208.917C313.691 208.917 330.114 192.963 330.114 173.283C330.114 153.602 313.691 137.648 293.431 137.648C273.172 137.648 256.749 153.602 256.749 173.283C256.749 192.963 273.172 208.917 293.431 208.917Z" fill="white"></path><path d="M291.685 174.68C293.228 174.68 294.48 173.585 294.48 172.235C294.48 170.884 293.228 169.789 291.685 169.789C290.141 169.789 288.89 170.884 288.89 172.235C288.89 173.585 290.141 174.68 291.685 174.68Z" fill="#093A66"></path><path d="M293.082 173.283H290.287V199.834H293.082V173.283Z" fill="#093A66"></path><path d="M292.456 173.982L290.287 172.445L306.285 152.321L308.454 153.858L292.456 173.982Z" fill="#093A66"></path><path d="M260.532 23.7566H259.543V57.9939H295.877V57.0608L260.532 23.7566ZM260.937 56.678V26.0056L293.488 56.678H260.937Z" fill="#163B65"></path><path fill-rule="evenodd" clip-rule="evenodd" d="M186.699 238.962C188.569 234.984 191.788 234.464 195.305 233.943C198.441 233.477 203.105 230.991 204.089 227.215C204.543 225.467 204.469 223.687 203.232 222.468C202.107 221.357 201.079 221.535 199.566 221.496C196.169 221.419 192.153 223.594 189.806 226.85C187.094 230.602 186.982 234.619 186.178 238.706" fill="#377DFF"></path><path fill-rule="evenodd" clip-rule="evenodd" d="M187.452 238.749C186.849 234.088 189.269 231.104 191.946 227.875C194.328 224.994 196.895 219.281 195.623 215.49C195.049 213.741 194.012 212.395 192.306 212.411C190.747 212.411 189.975 213.401 188.688 214.588C185.746 217.239 183.599 222.185 183.4 226.648C183.172 231.8 185.253 235.045 186.849 238.963" fill="#2D72E2"></path><path fill-rule="evenodd" clip-rule="evenodd" d="M186.969 237.565C184.839 232.932 181.109 231.983 177.023 231.058C173.385 230.205 167.988 226.943 166.888 222.637C166.381 220.643 166.494 218.65 167.935 217.446C169.375 216.242 170.459 216.648 172.217 216.76C176.167 217.031 180.806 219.886 183.497 223.745C186.613 228.211 186.696 232.653 187.575 237.302" fill="#377DFF"></path><path fill-rule="evenodd" clip-rule="evenodd" d="M201.55 225.74C201.195 225.565 200.767 225.868 200.384 225.955C199.008 226.213 197.682 226.722 196.465 227.461C195.999 227.645 195.558 227.894 195.151 228.202L194.48 228.68L193.742 229.277C193.277 229.62 192.805 229.954 192.369 230.321C190.528 232.072 189.024 234.196 187.942 236.574L187.617 237.418C187.467 237.779 187.336 238.149 187.226 238.525C187.097 238.882 186.996 239.25 186.923 239.625C186.85 239.893 186.863 240.181 186.959 240.441C187.056 240.701 187.23 240.918 187.455 241.059C187.762 240.777 187.979 240.398 188.074 239.975C188.148 239.728 188.229 239.481 188.318 239.242C188.406 239.003 188.488 238.741 188.576 238.486C188.724 238.063 188.945 237.601 189.137 237.116C189.329 236.63 189.609 236.168 189.875 235.69C190.365 234.819 190.91 233.986 191.506 233.196C192.308 232.178 193.187 231.232 194.133 230.369C195.047 229.551 196.017 228.808 197.033 228.146C197.395 227.915 197.771 227.676 198.103 227.429C198.435 227.182 198.841 226.983 199.188 226.784L200.369 226.226L201.55 225.74Z" fill="white"></path><path fill-rule="evenodd" clip-rule="evenodd" d="M191.767 215.905C191.373 216.071 191.165 216.696 190.886 217.067C189.85 218.436 188.983 219.949 188.305 221.568C188.003 222.102 187.751 222.669 187.552 223.26C187.445 223.561 187.33 223.861 187.223 224.201L186.893 225.277C186.671 225.933 186.434 226.598 186.248 227.246C185.558 230.02 185.33 232.909 185.574 235.772C185.61 236.065 185.653 236.373 185.703 236.69C185.753 237.006 185.832 237.481 185.918 237.86C185.981 238.231 186.077 238.594 186.205 238.944C186.47 239.561 186.957 239.806 187.359 239.577C187.481 239.136 187.481 238.665 187.359 238.224C187.301 237.979 187.251 237.718 187.201 237.433L187.051 236.642C186.972 236.192 186.929 235.654 186.857 235.124C186.785 234.594 186.785 234.001 186.757 233.431C186.744 232.332 186.796 231.233 186.914 230.141C187.096 228.66 187.374 227.196 187.746 225.759C188.127 224.339 188.584 222.944 189.115 221.584C189.302 221.101 189.488 220.611 189.667 220.12C189.846 219.63 190.054 219.171 190.262 218.713C190.47 218.254 190.75 217.763 190.979 217.273L191.767 215.905Z" fill="white"></path><path fill-rule="evenodd" clip-rule="evenodd" d="M170.107 220.838C170.537 220.674 171.027 221.033 171.479 221.158C173.106 221.533 174.661 222.182 176.078 223.077C176.625 223.306 177.14 223.605 177.611 223.967C177.856 224.147 178.117 224.326 178.378 224.537L179.221 225.216C179.757 225.629 180.302 225.996 180.8 226.449C182.897 228.435 184.59 230.821 185.782 233.472C185.905 233.761 186.02 234.065 186.142 234.393C186.265 234.721 186.426 235.173 186.556 235.603C186.695 235.987 186.798 236.384 186.863 236.789C186.947 237.569 186.64 238.154 186.173 238.264C185.823 237.952 185.581 237.533 185.483 237.07C185.406 236.804 185.322 236.531 185.222 236.289L184.954 235.47C184.793 235.009 184.548 234.502 184.349 233.979C184.149 233.457 183.827 232.926 183.582 232.419C183.037 231.449 182.427 230.518 181.758 229.633C180.849 228.482 179.849 227.41 178.769 226.425C177.714 225.479 176.595 224.611 175.419 223.827C175.005 223.546 174.591 223.273 174.185 222.976C173.779 222.679 173.35 222.445 172.928 222.196L171.548 221.501L170.107 220.838Z" fill="white"></path><path fill-rule="evenodd" clip-rule="evenodd" d="M250.982 226.385C252.852 222.248 256.07 221.707 259.587 221.165C262.724 220.681 267.388 218.095 268.371 214.168C268.826 212.35 268.751 210.5 267.514 209.231C266.389 208.076 265.361 208.261 263.849 208.221C260.451 208.132 256.398 210.403 254.089 213.788C251.377 217.691 251.265 221.828 250.46 226.119" fill="#377DFF"></path><path fill-rule="evenodd" clip-rule="evenodd" d="M251.262 225.473C250.625 220.812 253.179 217.828 256.005 214.599C258.52 211.719 261.229 206.005 259.886 202.214C259.281 200.465 258.186 199.12 256.385 199.136C254.739 199.136 253.924 200.125 252.566 201.304C249.461 203.963 247.194 208.909 246.985 213.373C246.744 218.525 248.941 221.769 250.625 225.687" fill="#2D72E2"></path><path fill-rule="evenodd" clip-rule="evenodd" d="M250.573 224.289C248.514 219.651 244.909 218.7 240.96 217.774C237.443 216.92 232.226 213.655 231.163 209.335C230.672 207.347 230.775 205.343 232.174 204.146C233.457 203.02 234.614 203.347 236.314 203.459C240.132 203.722 244.616 206.589 247.217 210.453C250.228 214.924 250.309 219.371 251.159 224.026" fill="#377DFF"></path><path fill-rule="evenodd" clip-rule="evenodd" d="M265.832 212.465C265.478 212.289 265.05 212.593 264.666 212.681C263.289 212.935 261.963 213.446 260.748 214.19C260.282 214.375 259.84 214.625 259.434 214.933L258.762 215.412L258.024 216.003C257.56 216.354 257.087 216.69 256.652 217.057C254.81 218.813 253.306 220.943 252.224 223.327C252.121 223.59 252.01 223.87 251.899 224.125C251.751 224.49 251.62 224.863 251.508 225.243C251.378 225.601 251.277 225.969 251.206 226.345C251.133 226.615 251.145 226.903 251.242 227.164C251.338 227.424 251.513 227.642 251.737 227.783C252.044 227.501 252.261 227.121 252.357 226.697C252.431 226.449 252.512 226.202 252.6 225.962C252.689 225.722 252.77 225.459 252.851 225.203C253.006 224.78 253.228 224.317 253.42 223.83C253.611 223.343 253.892 222.879 254.157 222.4C254.645 221.526 255.19 220.69 255.788 219.9C256.589 218.877 257.468 217.928 258.416 217.065C259.329 216.244 260.298 215.499 261.316 214.837C261.677 214.605 262.054 214.366 262.386 214.118C262.718 213.871 263.124 213.671 263.471 213.471L264.651 212.912L265.832 212.465Z" fill="white"></path><path fill-rule="evenodd" clip-rule="evenodd" d="M256.05 202.629C255.612 202.795 255.381 203.42 255.07 203.792C253.92 205.161 252.955 206.674 252.203 208.293C251.864 208.826 251.584 209.393 251.366 209.986C251.247 210.286 251.119 210.587 251 210.919C250.88 211.251 250.769 211.607 250.634 212.003C250.387 212.659 250.124 213.324 249.917 213.972C249.15 216.746 248.897 219.636 249.168 222.5C249.208 222.784 249.256 223.101 249.311 223.417C249.367 223.733 249.455 224.208 249.55 224.588C249.621 224.959 249.727 225.321 249.869 225.671C250.164 226.288 250.705 226.534 251.151 226.296C251.287 225.858 251.287 225.39 251.151 224.952C251.088 224.706 251.032 224.445 250.976 224.161L250.809 223.37C250.721 222.919 250.673 222.381 250.594 221.851C250.514 221.321 250.514 220.728 250.482 220.158C250.468 219.059 250.526 217.959 250.657 216.867C250.859 215.387 251.168 213.922 251.581 212.485C252.005 211.064 252.513 209.67 253.103 208.309C253.31 207.818 253.517 207.336 253.708 206.845C253.899 206.355 254.146 205.896 254.377 205.437L255.174 203.998L256.05 202.629Z" fill="white"></path><path fill-rule="evenodd" clip-rule="evenodd" d="M234.39 207.56C234.801 207.398 235.271 207.771 235.704 207.901C237.264 208.291 238.753 208.966 240.112 209.897C240.635 210.135 241.129 210.445 241.581 210.822C241.816 211.009 242.066 211.195 242.315 211.406L243.123 212.12C243.638 212.542 244.159 212.932 244.637 213.402C246.646 215.467 248.269 217.948 249.411 220.705C249.529 221.005 249.639 221.321 249.756 221.662C249.874 222.003 250.028 222.474 250.153 222.912C250.287 223.314 250.385 223.73 250.447 224.153C250.528 224.965 250.234 225.573 249.786 225.687C249.452 225.361 249.22 224.926 249.125 224.445C249.051 224.161 248.97 223.885 248.875 223.634L248.618 222.782C248.464 222.303 248.229 221.776 248.03 221.224C247.832 220.672 247.538 220.137 247.296 219.601C246.773 218.593 246.189 217.625 245.547 216.705C244.676 215.509 243.718 214.393 242.683 213.37C241.672 212.386 240.6 211.483 239.473 210.668C239.076 210.376 238.679 210.092 238.29 209.783C237.901 209.475 237.489 209.232 237.085 208.972L235.763 208.258L234.39 207.56Z" fill="white"></path><path d="M381.47 97.8209C392.854 97.8209 402.082 88.1233 402.082 76.1606C402.082 64.1979 392.854 54.5002 381.47 54.5002C370.086 54.5002 360.858 64.1979 360.858 76.1606C360.858 88.1233 370.086 97.8209 381.47 97.8209Z" fill="#F3F4F9"></path><path d="M57.177 27.6186C64.282 27.6186 70.0417 21.8589 70.0417 14.7539C70.0417 7.6489 64.282 1.88916 57.177 1.88916C50.072 1.88916 44.3123 7.6489 44.3123 14.7539C44.3123 21.8589 50.072 27.6186 57.177 27.6186Z" fill="#F3F4F9"></path><path fill-rule="evenodd" clip-rule="evenodd" d="M5.76402 110.955C3.76516 109.054 2.26426 106.69 1.39341 104.073C-0.855619 97.9401 -0.690689 89.9034 4.1897 85.885C6.58117 83.9208 9.76729 83.1936 11.9264 80.9295C15.3899 77.3085 14.9251 71.2584 13.808 66.213C12.691 61.1675 11.0417 55.7547 12.9009 50.9792C19.0933 45.8063 28.5392 49.2249 34.0043 55.2674C42.5431 64.6911 47.2136 86.0724 41.5835 98.5099C36.5082 109.763 15.7272 119.636 5.76402 110.955Z" fill="#F3F4F9"></path><path d="M418.521 32.8667C425.626 32.8667 431.386 27.1069 431.386 20.0019C431.386 12.8969 425.626 7.13721 418.521 7.13721C411.416 7.13721 405.656 12.8969 405.656 20.0019C405.656 27.1069 411.416 32.8667 418.521 32.8667Z" fill="#F3F4F9"></path></svg>