<svg xmlns="http://www.w3.org/2000/svg" width="412" height="250" viewBox="0 0 412 250" fill="none"><path d="M139.897 215.368C139.897 215.368 170.589 251.973 195.07 249.851C219.55 247.729 239.409 228.167 258.208 216.203C277.006 204.238 300.101 123.196 274.479 105.116C248.856 87.0361 201.724 88.9153 187.524 92.8925C173.323 96.8698 124.149 117.963 111.43 130.907C98.7114 143.851 84.7175 180.894 139.897 215.368Z" fill="#F2F4FA"></path><path d="M196.368 80.7645L162.613 62.0688V60.0744C177.554 49.6726 194.12 40.1301 209.069 29.7202C214.693 32.5092 220.257 35.3954 225.947 38.0708C231.637 40.7463 237.461 43.4542 242.825 46.4296V48.4402L196.368 80.7645Z" fill="#C6C6C6"></path><path d="M196.368 78.5775L162.613 59.8818L209.069 27.5332L242.825 46.2289L196.368 78.5775Z" fill="#E2E2E2"></path><path d="M198.91 71.2852L172.821 56.8612L208.715 31.9082L234.804 46.3322L198.91 71.2852Z" fill="#F9F9F9"></path><path d="M195.167 131.08L171.678 136.694L164.071 164.238H174.598L174.422 176.009L241.366 199.625C241.366 199.625 239.218 168.645 237.534 161.03C235.849 153.415 232.612 141.773 230.133 139.545C227.654 137.318 221.989 136.386 221.989 136.386L195.167 131.08Z" fill="#DE4437"></path><path d="M223.861 136.222C223.861 136.222 224.803 108.476 200.598 105.358C176.392 102.239 165.987 113.884 166.347 114.82C166.708 115.755 168.004 116.379 169.654 116.067C169.654 116.067 162.098 122.509 163.52 123.65C164.941 124.79 168.24 122.788 168.24 122.788C168.24 122.788 163.991 128.639 165.641 129.353C167.29 130.067 171.782 129.567 171.782 129.567C171.782 129.567 167.062 136.526 171.193 135.385L174.875 134.449L218.154 143.476C218.154 143.476 222.594 140.637 223.861 136.222Z" fill="#163B65"></path><path d="M211.493 137.617C211.493 137.617 210.106 130.423 208.451 129.453C206.796 128.483 203.674 129.382 203.587 128.933C203.5 128.483 204.31 127.434 204.31 127.434C204.31 127.434 196.837 130.952 194.914 130.053C194.914 130.053 193.266 129.753 194.914 128.783C194.914 128.783 187.354 132.222 185.352 132.072C183.35 131.922 184.745 129.982 184.745 129.982L175.299 134.399L173.767 134.778V136.245C173.767 136.245 170.71 136.584 171.49 139.834C172.401 143.612 176.484 143.533 176.484 143.533C176.484 143.533 183.712 153.196 195.781 152.147C207.851 151.098 212.794 148.479 217.774 143.084L214.818 141.364C214.818 141.364 223.426 137.42 218.909 134.02C214.392 130.621 212.476 137.964 212.476 137.964L211.493 137.617Z" fill="#EFDCB4"></path><path d="M181.198 235.355C181.198 235.355 169.232 242.273 169.934 243.176C170.636 244.08 181.637 241.679 184.717 240.973C187.796 240.268 191.051 239.666 191.051 238.763C191.051 237.859 189.998 235.355 189.998 235.355H181.198Z" fill="#FFC107"></path><path d="M197.762 235.432C197.762 235.432 186.795 243.297 186.677 244.612C186.558 245.927 207.777 241.082 209.323 239.464C210.87 237.846 209.323 234.627 209.323 234.627L197.762 235.432Z" fill="#FFC107"></path><path d="M189.977 171.439C191.319 170.102 192.9 169.079 194.623 168.435C196.346 167.791 198.173 167.538 199.99 167.694C206.427 168.073 212.024 173.904 212.024 173.904L241.645 199.355C241.645 199.355 245.941 208.609 241.645 213.659C237.348 218.709 231.454 221.157 224.125 220.851C216.796 220.545 210.18 214.883 210.18 214.883L210.716 236.146C210.716 236.146 204.635 237.829 199.99 237.217C195.344 236.605 193.731 235.687 193.731 235.687C193.731 235.687 188.186 238.248 183.897 237.354C179.608 236.46 179.437 235.534 179.437 235.534L172.822 194.144V176.183C172.822 176.183 172.643 168.636 180.508 167.67C188.372 166.703 189.977 171.439 189.977 171.439Z" fill="#163B65"></path><path d="M165.28 163.328L161.898 182.241C161.898 182.241 160.749 192.562 178.557 193.601C196.366 194.639 218.521 196.035 222.869 189.982C227.216 183.929 229.249 175.417 229.691 172.943C230.133 170.468 231.158 162.435 231.158 162.435L215.383 164.212L210.866 178.46C210.866 178.46 188.445 184.951 179.139 182.517C179.139 182.517 176.015 180.594 175.33 174.655C174.91 170.886 174.703 167.092 174.711 163.295L165.28 163.328Z" fill="#EFDCB4"></path><path d="M81.6709 144.609L93.0251 168.269C93.0251 168.269 112.525 158.45 113.457 158.216C114.388 157.981 131.811 155.066 140.142 144.609C148.473 134.152 158.689 122.33 160.389 112.308C160.389 112.308 166.258 109.547 167.581 107.181C168.905 104.815 170.804 100.478 170.804 100.478C170.804 100.478 175.535 96.9333 176.104 93.2107L176.666 89.4638C176.666 89.4638 185.847 86.8959 183.319 81.3887C180.791 75.8814 156.205 78.8208 144.282 87.1059C132.358 95.391 116.835 121.353 115.327 123.444C113.819 125.535 81.6709 144.609 81.6709 144.609Z" fill="#EFDCB4"></path><path d="M129.069 125.902C129.069 125.902 134.24 127.677 143.708 113.774C153.176 99.8703 157.906 99.5732 159.348 101.043C160.79 102.513 163.361 104.938 160.783 112.368" stroke="#163C65" stroke-width="1.11006" stroke-miterlimit="10"></path><path d="M176.467 89.5151C176.467 89.5151 168.975 92.0855 164.907 94.8585C160.839 97.6315 157.508 100.453 157.508 100.453" stroke="#163C65" stroke-width="1.11006" stroke-miterlimit="10"></path><path d="M161.154 104.828C161.154 104.828 167.353 101.464 171.363 100.453" stroke="#163C65" stroke-width="1.11006" stroke-miterlimit="10"></path><path d="M177.926 176.709C177.926 176.709 174.786 172.659 174.155 175.18C173.524 177.701 167.995 172.998 167.775 174.353C167.556 175.709 164.862 184.33 170.894 188.687" stroke="#163B65" stroke-width="1.11006" stroke-miterlimit="10"></path><path d="M307.724 146.068L296.29 169.727C296.29 169.727 276.661 159.868 275.708 159.674C274.755 159.48 257.218 156.517 248.829 146.068C240.44 135.619 230.152 123.789 228.44 113.768C228.44 113.768 222.53 111.006 221.197 108.64C219.865 106.274 217.952 101.938 217.952 101.938C217.952 101.938 213.188 98.3848 212.622 94.6703L212.049 90.9235C212.049 90.9235 202.804 88.3637 205.35 82.8485C207.895 77.3333 232.653 80.2887 244.66 88.5656C256.667 96.8425 272.299 122.82 273.825 124.903C275.351 126.986 307.724 146.068 307.724 146.068Z" fill="#EFDCB4"></path><path d="M260.326 127.357C260.326 127.357 255.154 129.192 245.685 114.887C236.217 100.583 231.486 100.277 230.044 101.789C228.601 103.302 226.038 105.789 228.609 113.441" stroke="#163C65" stroke-width="1.11006" stroke-miterlimit="10"></path><path d="M212.198 90.2441C212.198 90.2441 219.979 92.8226 224.204 95.5956C228.428 98.3686 231.887 101.182 231.887 101.182" stroke="#163C65" stroke-width="1.11006" stroke-miterlimit="10"></path><path d="M227.512 106.287C227.512 106.287 221.755 102.369 218.032 101.182" stroke="#163C65" stroke-width="1.11006" stroke-miterlimit="10"></path><path d="M184.124 142.018C184.728 142.018 185.218 141.691 185.218 141.289C185.218 140.886 184.728 140.559 184.124 140.559C183.52 140.559 183.03 140.886 183.03 141.289C183.03 141.691 183.52 142.018 184.124 142.018Z" fill="#163B65"></path><path d="M200.531 141.289C200.934 141.289 201.26 140.799 201.26 140.195C201.26 139.591 200.934 139.101 200.531 139.101C200.128 139.101 199.802 139.591 199.802 140.195C199.802 140.799 200.128 141.289 200.531 141.289Z" fill="#163B65"></path><path d="M180.113 138.372C180.113 138.372 180.786 136.499 183.759 136.184" stroke="#163B65" stroke-width="1.11006" stroke-miterlimit="10"></path><path d="M198.343 135.754C198.343 135.754 200.068 134.851 202.718 136.184" stroke="#163B65" stroke-width="1.11006" stroke-miterlimit="10"></path><path d="M188.864 133.997C188.864 133.997 191.209 150.598 192.795 148.376C193.615 147.354 194.263 146.132 194.698 144.783" stroke="#163B65" stroke-width="1.11006" stroke-miterlimit="10"></path><path d="M200.531 146.393C200.531 146.393 197.972 146.751 196.885 149.31" stroke="#163B65" stroke-width="1.11006" stroke-miterlimit="10"></path><path d="M201.989 55.9719L185.34 29.6327C194.708 25.4059 200.432 19.7889 199.653 14.4871C198.389 5.90406 180.6 1.39432 159.916 4.40082C139.233 7.40731 123.501 16.8147 124.765 25.414C126.029 34.0132 143.81 38.4663 164.494 35.476C168.653 34.8879 172.772 33.997 176.824 32.809L201.989 55.9719Z" fill="#B7D2F9"></path><path d="M85.0624 115.089L64.376 121.428C63.5216 121.719 62.6011 121.639 61.7968 121.205C60.9925 120.771 60.363 120.015 60.0331 119.085L55.5455 104.064C55.4254 103.605 55.3907 103.124 55.4436 102.65C55.4965 102.175 55.6359 101.719 55.8531 101.307C56.0703 100.896 56.3607 100.539 56.7062 100.259C57.0518 99.9785 57.4451 99.7807 57.8617 99.6778L78.5481 93.3302C79.4033 93.0424 80.3239 93.1242 81.1279 93.5594C81.9319 93.9947 82.561 94.7518 82.891 95.6812L87.3786 110.703C87.4987 111.162 87.5334 111.643 87.4805 112.117C87.4276 112.591 87.2882 113.048 87.071 113.459C86.8538 113.871 86.5634 114.228 86.2178 114.508C85.8723 114.788 85.479 114.986 85.0624 115.089Z" fill="#B7D2F9"></path><path d="M72.5203 111.391L56.1486 101.815L56.4382 101.301L72.2741 110.566L80.4201 93.8901L80.9415 94.1598L72.5203 111.391Z" fill="#163B65"></path><path d="M61.0534 120.871L60.5238 120.575L68.0154 108.474L68.545 108.762L61.0534 120.871Z" fill="#163B65"></path><path d="M87.2455 113.579L74.3788 107.527L74.6377 107.016L87.5045 113.067L87.2455 113.579Z" fill="#163B65"></path><path d="M154.28 31.1789L151.413 14.9203L152.366 14.7568L155.233 31.0154L154.28 31.1789ZM155.482 19.2476C155.299 18.616 154.928 18.1649 154.369 17.8943C153.81 17.6237 153.17 17.5502 152.449 17.6739C151.922 17.7642 151.477 17.9365 151.115 18.1906C150.756 18.444 150.495 18.7527 150.332 19.1166C150.172 19.4798 150.129 19.8689 150.202 20.2838C150.264 20.631 150.392 20.9165 150.587 21.1404C150.785 21.3594 151.019 21.5309 151.289 21.6548C151.557 21.7745 151.833 21.8646 152.115 21.9253C152.396 21.9817 152.653 22.0228 152.885 22.0484L154.157 22.1967C154.483 22.2324 154.85 22.2961 155.257 22.3876C155.668 22.4785 156.072 22.6295 156.469 22.8406C156.869 23.0469 157.22 23.34 157.523 23.72C157.825 24.0999 158.03 24.5947 158.138 25.2044C158.262 25.9073 158.205 26.5713 157.968 27.1965C157.735 27.821 157.326 28.3557 156.741 28.8005C156.161 29.2446 155.413 29.5451 154.499 29.702C153.646 29.8482 152.881 29.8245 152.204 29.6309C151.531 29.4366 150.969 29.1012 150.517 28.6246C150.07 28.1473 149.76 27.557 149.588 26.8537L151.076 26.5985C151.202 27.083 151.424 27.4635 151.745 27.7401C152.068 28.0118 152.447 28.1911 152.882 28.278C153.32 28.36 153.775 28.3604 154.248 28.2793C154.798 28.185 155.275 28.0028 155.679 27.733C156.082 27.4589 156.38 27.1242 156.574 26.7289C156.767 26.3294 156.822 25.8925 156.738 25.4183C156.662 24.9864 156.489 24.6539 156.221 24.4208C155.952 24.1878 155.622 24.0174 155.232 23.9099C154.842 23.8023 154.426 23.7209 153.985 23.6657L152.439 23.4596C151.458 23.327 150.648 23.0362 150.01 22.5873C149.371 22.1384 148.975 21.4757 148.82 20.5993C148.692 19.871 148.76 19.205 149.025 18.6013C149.293 17.9926 149.707 17.4855 150.266 17.0798C150.829 16.6693 151.49 16.3989 152.249 16.2687C153.017 16.1371 153.726 16.1704 154.375 16.3687C155.025 16.5627 155.569 16.8881 156.009 17.3448C156.453 17.8009 156.742 18.3554 156.877 19.0084L155.482 19.2476Z" fill="#1E2022"></path><path d="M165.387 27.5994L165.046 14.2575L166.209 14.0581L166.549 27.4L165.387 27.5994ZM159.332 24.9211L159.294 23.619L168.178 22.0957L168.215 23.3978L159.332 24.9211ZM161.201 28.3172L160.86 14.9753L162.023 14.7759L162.363 28.1178L161.201 28.3172ZM159.232 20.2796L159.194 18.9775L168.078 17.4542L168.116 18.7563L159.232 20.2796Z" fill="#1E2022"></path><path d="M176.889 23.1144L176.768 22.4285C176.685 21.9543 176.697 21.505 176.806 21.0807C176.918 20.6515 177.126 20.2887 177.429 19.9925C177.735 19.6913 178.136 19.4982 178.632 19.4131C179.136 19.3267 179.58 19.375 179.964 19.5578C180.347 19.7364 180.66 20.0098 180.905 20.3779C181.149 20.7417 181.312 21.1608 181.396 21.635L181.517 22.3209C181.601 22.7951 181.588 23.2465 181.48 23.6751C181.375 24.0987 181.172 24.4608 180.869 24.7613C180.57 25.0569 180.172 25.2472 179.676 25.3323C179.172 25.4187 178.727 25.3729 178.34 25.195C177.953 25.0128 177.635 24.7401 177.387 24.3769C177.139 24.0095 176.973 23.5886 176.889 23.1144ZM177.954 22.2251L178.075 22.9111C178.145 23.3048 178.292 23.6437 178.518 23.9278C178.743 24.2077 179.065 24.3117 179.484 24.2399C179.891 24.1701 180.15 23.9664 180.262 23.6287C180.378 23.2862 180.4 22.918 180.331 22.5243L180.21 21.8383C180.141 21.4446 179.997 21.1071 179.78 20.8259C179.562 20.5405 179.244 20.4337 178.825 20.5055C178.418 20.5753 178.153 20.7821 178.03 21.126C177.91 21.465 177.885 21.8314 177.954 22.2251ZM169.647 16.6879L169.526 16.002C169.442 15.5278 169.455 15.0785 169.564 14.6542C169.676 14.2249 169.883 13.8622 170.186 13.5659C170.493 13.2648 170.894 13.0717 171.39 12.9866C171.894 12.9002 172.337 12.9484 172.721 13.1313C173.104 13.3099 173.418 13.5832 173.662 13.9513C173.906 14.3152 174.07 14.7342 174.153 15.2084L174.274 15.8943C174.358 16.3685 174.346 16.8199 174.238 17.2485C174.133 17.6722 173.929 18.0343 173.627 18.3347C173.327 18.6303 172.93 18.8207 172.434 18.9057C171.93 18.9921 171.484 18.9464 171.098 18.7684C170.71 18.5862 170.393 18.3135 170.145 17.9503C169.896 17.5829 169.73 17.1621 169.647 16.6879ZM170.712 15.7986L170.833 16.4845C170.902 16.8783 171.05 17.2172 171.276 17.5013C171.501 17.7811 171.822 17.8851 172.241 17.8134C172.648 17.7436 172.907 17.5399 173.02 17.2022C173.135 16.8596 173.158 16.4915 173.088 16.0977L172.967 15.4118C172.898 15.018 172.755 14.6806 172.537 14.3994C172.319 14.114 172.001 14.0072 171.582 14.079C171.175 14.1487 170.91 14.3556 170.787 14.6995C170.668 15.0385 170.642 15.4048 170.712 15.7986ZM171.831 26.4943L177.723 12.0838L179.049 11.8565L173.157 26.267L171.831 26.4943Z" fill="#1E2022"></path><path d="M184.575 24.3091L182.855 14.5539L184.227 14.3186L185.947 24.0738L184.575 24.3091ZM183.266 12.8084C182.998 12.8543 182.75 12.7943 182.521 12.6286C182.296 12.4621 182.159 12.2392 182.11 11.9597C182.06 11.6803 182.113 11.4248 182.268 11.1932C182.427 10.961 182.64 10.8219 182.907 10.7761C183.175 10.7302 183.421 10.7905 183.646 10.957C183.875 11.1227 184.014 11.3453 184.063 11.6248C184.112 11.9042 184.058 12.1601 183.899 12.3923C183.744 12.6238 183.533 12.7626 183.266 12.8084Z" fill="#1E2022"></path><path fill-rule="evenodd" clip-rule="evenodd" d="M291.5 209.957C293.195 208.808 294.093 207.002 293.821 205.279C293.714 204.623 293.446 204.013 293.047 203.515C292.053 202.292 290.019 201.365 290.167 199.921C290.248 199.157 290.955 198.534 291.434 197.853C292.613 196.211 292.266 193.922 290.609 192.494C289.715 191.89 288.849 191.235 288.015 190.533C287.622 190.138 287.342 189.623 287.211 189.052C287.08 188.482 287.103 187.88 287.279 187.324C287.5 186.61 287.949 185.937 288.14 185.215C288.271 184.844 288.275 184.433 288.153 184.058C288.031 183.684 287.791 183.372 287.477 183.18C287.057 182.965 286.599 182.853 286.137 182.853C285.674 182.853 285.216 182.965 284.796 183.18C284.081 183.547 283.488 184.156 283.101 184.92C282.639 185.732 282.368 186.661 282.316 187.621C282.263 188.581 282.429 189.541 282.799 190.41C283.104 190.961 283.316 191.57 283.425 192.207C283.499 193.446 282.379 194.504 281.436 195.489C280.493 196.474 279.653 197.803 280.316 198.928C280.795 199.748 281.996 200.282 282.217 201.168C282.49 202.21 281.303 203.096 280.648 204.032C280.207 204.68 279.984 205.48 280.017 206.293C280.051 207.105 280.339 207.879 280.832 208.48C282.998 211.475 288.074 212.254 291.5 209.957Z" fill="#13CA7C"></path><path fill-rule="evenodd" clip-rule="evenodd" d="M285.848 219.313H287.306L286.94 194.52H286.175L285.848 219.313Z" fill="#377DFF"></path><path d="M334.622 120.142C335.299 119.986 335.983 119.871 336.638 119.666C338.683 118.992 340.589 117.876 342.247 116.382C344.494 114.382 346.476 112.038 348.136 109.421C350.073 106.532 351.68 103.386 352.92 100.054C353.874 97.6371 354.375 95.028 354.393 92.3871C354.408 90.6687 353.993 88.9797 353.193 87.5109C352.817 86.9403 352.414 86.3923 351.986 85.8691L346.185 95.6543C347.142 96.3274 347.105 97.2961 346.782 98.2073C346.5 99.067 346.14 99.8922 345.707 100.67C344.554 102.706 343.359 104.717 342.122 106.704C341.395 107.909 340.512 108.987 339.502 109.905C339.237 110.19 338.901 110.378 338.539 110.446C338.176 110.513 337.803 110.456 337.47 110.283L331.788 119.756L333.216 120.134L334.622 120.142Z" fill="#B7D2F9"></path><path d="M345.449 95.3487L351.476 86.1309L351.314 86.0137C350.459 85.5528 349.611 85.0763 348.74 84.6233C348.44 84.43 348.077 84.365 347.731 84.4426C347.384 84.5202 347.082 84.7341 346.89 85.0373C345.349 87.4172 343.789 89.805 342.212 92.2006C342.113 92.331 342.046 92.4828 342.015 92.644C341.985 92.8052 341.991 92.9714 342.035 93.1296C342.078 93.2878 342.157 93.4336 342.265 93.5557C342.373 93.6778 342.508 93.7728 342.659 93.8332C343.576 94.341 344.501 94.8331 345.449 95.3487Z" fill="#B7D2F9"></path><path d="M330.654 119.412L336.163 109.626L335.932 109.448L333.707 108.032C333.558 107.905 333.388 107.818 333.208 107.775C333.028 107.732 332.842 107.735 332.663 107.783C332.484 107.831 332.315 107.924 332.169 108.054C332.022 108.185 331.901 108.351 331.813 108.54C330.426 110.989 329.043 113.439 327.665 115.893C327.554 116.042 327.476 116.22 327.439 116.413C327.401 116.606 327.404 116.806 327.448 116.997C327.493 117.188 327.576 117.363 327.692 117.506C327.808 117.649 327.952 117.756 328.111 117.818L330.654 119.412Z" fill="#B7D2F9"></path><path d="M334.705 87.0144L334.009 85.1396C326.136 87.8072 321.01 96.33 322.596 104.828C323.21 104.679 323.816 104.547 324.415 104.374C324.482 104.374 324.527 104.118 324.512 103.994C324.467 103.276 324.355 102.565 324.34 101.855C324.228 95.4712 328.284 89.4672 334.248 87.196L334.705 87.0144Z" fill="#B7D2F9"></path><path d="M336.163 91.9786L335.62 90.2441C330.584 92.0432 327.325 97.8033 328.321 103.37C328.864 103.225 329.407 103.096 329.944 102.934C329.999 102.934 330.048 102.749 330.034 102.652C329.866 101.372 329.938 100.065 330.245 98.8201C330.553 97.5754 331.089 96.4223 331.817 95.4395C332.854 93.9735 334.214 92.8587 335.752 92.2126L336.058 92.0754C336.096 92.0478 336.131 92.0154 336.163 91.9786Z" fill="#B7D2F9"></path><path d="M200.54 66.1809L188.135 59.6068L190.313 58.1597L202.719 64.7338L200.54 66.1809Z" fill="#EAEAEA"></path><path d="M206.489 61.8052L194.698 55.231L196.761 53.7839L208.552 60.3581L206.489 61.8052Z" fill="#EAEAEA"></path><path d="M211.369 58.1594L198.343 51.5839L200.63 50.1382L213.657 56.706L211.369 58.1594Z" fill="#EAEAEA"></path><path d="M223.136 53.0549L239.942 26.7213C230.486 22.4792 224.709 16.8877 225.517 11.5789C226.77 3.00577 244.725 -1.5111 265.602 1.47052C286.479 4.45214 302.365 13.8737 301.09 22.4792C299.814 31.0847 281.881 35.5773 260.982 32.5634C256.774 31.9662 252.606 31.0646 248.508 29.8646L223.136 53.0549Z" fill="#B7D2F9"></path><path d="M242.825 13.6781C243.228 13.6781 243.554 13.1884 243.554 12.5843C243.554 11.9802 243.228 11.4905 242.825 11.4905C242.422 11.4905 242.096 11.9802 242.096 12.5843C242.096 13.1884 242.422 13.6781 242.825 13.6781Z" fill="black"></path><path d="M263.972 19.5116C264.374 19.5116 264.701 19.0219 264.701 18.4178C264.701 17.8137 264.374 17.324 263.972 17.324C263.569 17.324 263.243 17.8137 263.243 18.4178C263.243 19.0219 263.569 19.5116 263.972 19.5116Z" fill="black"></path><path d="M241.366 6.38574L248.255 12.2194L249.388 11.4036" stroke="black" stroke-width="1.11006" stroke-miterlimit="10"></path><path d="M269.805 15.8654L261.229 15.7328L261.055 14.407" stroke="black" stroke-width="1.11006" stroke-miterlimit="10"></path><path d="M246.471 16.5945L258.138 20.3356L249.392 21.6989L246.471 16.5945Z" stroke="black" stroke-width="1.11006" stroke-miterlimit="10"></path><path d="M46.2564 39.724C46.2564 39.724 45.1817 36.55 42.7619 35.3031C40.342 34.0562 34.7052 34.6149 33.6305 31.5705C32.5558 28.5261 31.7516 20.3564 36.5842 18.8665C41.4167 17.3767 49.4734 13.7574 52.6975 15.6926C55.9216 17.6277 60.6972 25.0849 58.5122 28.1212C56.3273 31.1575 53.5302 33.0927 54.1708 35.1655C54.8113 37.2382 52.5623 40.8251 46.2564 39.724Z" fill="#B7D2F9"></path><path d="M40.1062 28.9913C40.9116 28.9913 41.5646 28.3383 41.5646 27.5329C41.5646 26.7274 40.9116 26.0745 40.1062 26.0745C39.3007 26.0745 38.6478 26.7274 38.6478 27.5329C38.6478 28.3383 39.3007 28.9913 40.1062 28.9913Z" fill="black"></path><path d="M51.7735 26.0743C52.5789 26.0743 53.2319 25.4213 53.2319 24.6159C53.2319 23.8104 52.5789 23.1575 51.7735 23.1575C50.968 23.1575 50.3151 23.8104 50.3151 24.6159C50.3151 25.4213 50.968 26.0743 51.7735 26.0743Z" fill="black"></path><path d="M46.7372 32.6376C46.7372 32.6376 46.4068 27.1061 47.2011 27.5596C47.9954 28.0132 50.3151 30.9746 50.3151 30.9746L46.7372 32.6376Z" fill="black"></path><path d="M40.1509 53.5356L66.8892 35.8965C66.8892 35.8965 65.2336 31.8296 66.8892 31.9094C68.5448 31.9891 70.9329 34.2538 68.9623 37.0129C68.9623 37.0129 73.9364 35.2745 74.354 37.3159C74.7715 39.3573 69.7901 39.2537 68.3397 39.0463C66.8892 38.839 41.8138 54.9949 41.8138 54.9949C41.8138 54.9949 41.2937 58.8305 40.1509 59.5402C39.0081 60.25 38.803 55.8641 38.803 55.8641C38.803 55.8641 32.6934 54.2692 34.664 53.4718C36.6346 52.6744 40.1509 53.5356 40.1509 53.5356Z" fill="#B7D2F9"></path><path d="M69.6417 46.8752L37.351 43.6176C37.351 43.6176 36.8709 39.171 35.4455 40.0424C34.02 40.9138 32.9786 44.1144 36.0585 45.6211C36.0585 45.6211 30.7924 46.4355 31.4054 48.447C32.0184 50.4586 36.3982 48.0398 37.5947 47.1684C38.7912 46.297 68.8809 49.009 68.8809 49.009C68.8809 49.009 71.1927 52.2178 72.5738 52.3236C73.955 52.4295 72.0051 48.3737 72.0051 48.3737C72.0051 48.3737 76.6803 44.0655 74.5532 44.3017C72.4261 44.5379 69.6417 46.8752 69.6417 46.8752Z" fill="#B7D2F9"></path><path d="M125.207 58.5423C126.867 55.431 123.846 49.4089 123.846 49.4089C123.942 51.0127 122.164 53.7391 120.869 55.5433C118.779 54.59 116.531 54.1018 114.262 54.1079C111.941 54.0776 109.642 54.587 107.52 55.6013C105.399 56.6157 103.506 58.1111 101.969 59.9856C99.9158 59.3682 97.0287 58.3819 96.2549 57.3475C96.2549 57.3475 97.6017 63.145 99.3577 64.9412C98.9297 66.3356 98.7111 67.7947 98.7104 69.2633C98.7104 77.6269 105.675 84.4107 114.262 84.4107C122.848 84.4107 129.798 77.6349 129.798 69.2713C129.779 67.2352 129.359 65.2265 128.568 63.3774C127.777 61.5282 126.631 59.8805 125.207 58.5423Z" fill="#B7D2F9"></path><path d="M102.818 70.0471L110.839 69.8264L107.347 72.014L102.818 70.0471Z" fill="black"></path><path d="M125.423 64.7224L118.131 69.0976L122.237 68.7051L125.423 64.7224Z" fill="black"></path><path d="M121.777 73.8411C121.777 73.8411 115.192 70.1169 111.568 76.3897" stroke="black" stroke-width="1.11006" stroke-miterlimit="10"></path><path d="M321.579 55.272L312.017 45.7629L295.711 58.0061C295.711 58.0061 286.357 58.3669 284.341 61.59C282.325 64.8132 283.6 66.529 283.6 66.529C283.6 66.529 267.901 77.7539 269.147 79.7102C270.911 82.5245 286.676 71.8528 286.676 71.8528C286.676 71.8528 292.05 83.2621 298.676 81.2577C305.302 79.2532 308.03 68.2929 308.03 68.2929L321.579 55.272Z" fill="#B7D2F9"></path><path d="M297.515 61.8054C297.515 61.8054 290.576 61.8054 289.404 63.3808C288.231 64.9562 286.579 67.9008 285.481 67.6204L284.389 67.3482" stroke="black" stroke-width="1.11006" stroke-miterlimit="10"></path><path d="M305.536 73.4729C305.536 73.4729 298.158 59.0449 291.393 67.2418L286.577 71.6181" stroke="black" stroke-width="1.11006" stroke-miterlimit="10"></path><path d="M353.299 57.4303C361.958 57.4303 368.977 50.5743 368.977 42.117C368.977 33.6597 361.958 26.8037 353.299 26.8037C344.641 26.8037 337.621 33.6597 337.621 42.117C337.621 50.5743 344.641 57.4303 353.299 57.4303Z" fill="#B7D2F9"></path><path d="M344.913 33.3665L350.747 37.7417" stroke="black" stroke-width="1.11006" stroke-miterlimit="10"></path><path d="M357.31 39.2002L365.331 38.4709" stroke="black" stroke-width="1.11006" stroke-miterlimit="10"></path><path d="M344.913 41.3877L346.153 44.3518L350.315 42.8661L351.827 45.8302L356.005 44.0208L357.588 46.4921L360.956 44.7637" stroke="black" stroke-width="1.11006" stroke-miterlimit="10"></path><path fill-rule="evenodd" clip-rule="evenodd" d="M20.5926 224.969C19.4941 223.978 18.6428 222.718 18.1137 221.298C17.5846 219.878 17.3938 218.343 17.5582 216.828C17.6744 215.739 18.0219 214.693 18.5747 213.767C19.8871 211.627 22.5498 210.016 22.3678 207.5C22.2616 206.17 21.3285 205.096 20.7064 203.903C19.9529 202.419 19.6526 200.725 19.8469 199.053C20.0411 197.382 20.7203 195.815 21.7912 194.567C22.8533 193.357 24.2719 192.476 25.1974 191.154C25.7399 190.352 26.1083 189.433 26.2761 188.464C26.4439 187.494 26.4072 186.498 26.1684 185.545C25.8725 184.303 25.2884 183.141 25.0305 181.875C24.8582 181.253 24.849 180.594 25.004 179.967C25.159 179.34 25.4723 178.77 25.9105 178.317C26.4305 177.947 27.0433 177.749 27.6704 177.749C28.2976 177.749 28.9104 177.947 29.4304 178.317C30.4323 179.051 31.2016 180.087 31.638 181.29C32.8854 184.334 33.0258 187.758 32.0324 190.905C31.6255 191.9 31.3474 192.949 31.2056 194.022C31.1069 196.186 32.5862 198.029 33.8228 199.784C35.0593 201.539 36.1745 203.79 35.34 205.762C34.7027 207.196 33.1324 208.165 32.829 209.664C32.48 211.483 34.0428 213.021 34.9076 214.656C35.4886 215.863 35.7704 217.207 35.7266 218.56C35.6828 219.914 35.3149 221.234 34.6572 222.397C33.983 223.65 33.0542 224.73 31.9378 225.559C30.8213 226.388 29.5448 226.946 28.2001 227.192C26.8553 227.437 25.4757 227.366 24.1603 226.981C22.845 226.597 21.6265 225.91 20.5926 224.969Z" fill="#00C9A7"></path><path fill-rule="evenodd" clip-rule="evenodd" d="M27.7098 242.648L25.5222 242.363L26.5522 198.166H27.7098V242.648Z" fill="#377DFF"></path><path fill-rule="evenodd" clip-rule="evenodd" d="M2.59718 223.287C1.69287 222.544 0.981485 221.556 0.53309 220.421C0.0846959 219.285 -0.0852374 218.042 0.0400278 216.814C0.143328 215.938 0.434527 215.101 0.889927 214.371C1.99331 212.677 4.22989 211.39 4.06587 209.404C3.98386 208.337 3.20106 207.474 2.67919 206.537C2.04596 205.369 1.79062 204.003 1.95423 202.658C2.11784 201.312 2.6909 200.066 3.58128 199.119C4.47591 198.158 5.6613 197.49 6.4441 196.416C6.89178 195.797 7.19885 195.072 7.34012 194.299C7.48138 193.526 7.4528 192.728 7.25672 191.97C7.0107 190.984 6.5112 190.056 6.30245 189.054C6.16189 188.555 6.15755 188.022 6.28995 187.52C6.42235 187.018 6.68577 186.57 7.04798 186.229C7.49677 185.929 8.01278 185.77 8.53903 185.77C9.06527 185.77 9.58128 185.929 10.0301 186.229C10.8771 186.806 11.5348 187.661 11.9088 188.672C12.422 189.851 12.7154 191.13 12.7717 192.434C12.828 193.739 12.6462 195.042 12.2368 196.269C11.897 197.056 11.6635 197.892 11.5435 198.753C11.4615 200.463 12.6991 201.936 13.7353 203.321C14.7716 204.705 15.711 206.513 14.9804 208.076C14.4436 209.216 13.124 209.949 12.878 211.179C12.5798 212.62 13.8919 213.841 14.6151 215.136C15.106 216.081 15.3465 217.157 15.3096 218.243C15.2727 219.328 14.96 220.381 14.4063 221.284C11.9759 225.388 6.377 226.487 2.59718 223.287Z" fill="#13CA7C"></path><path fill-rule="evenodd" clip-rule="evenodd" d="M8.75048 236.814H6.56287L7.11198 201.812H8.26336L8.75048 236.814Z" fill="#377DFF"></path><path fill-rule="evenodd" clip-rule="evenodd" d="M391.412 224.218C392.509 223.228 393.359 221.968 393.888 220.549C394.416 219.13 394.606 217.595 394.442 216.08C394.325 214.994 393.981 213.949 393.434 213.021C392.124 210.882 389.457 209.272 389.647 206.757C389.745 205.428 390.677 204.355 391.298 203.161C392.052 201.679 392.354 199.986 392.161 198.315C391.969 196.644 391.291 195.078 390.222 193.83C389.154 192.613 387.745 191.74 386.814 190.418C386.275 189.615 385.91 188.697 385.743 187.728C385.577 186.759 385.614 185.764 385.851 184.812C386.139 183.562 386.73 182.409 386.98 181.144C387.153 180.523 387.163 179.864 387.01 179.238C386.857 178.612 386.545 178.041 386.109 177.587C385.59 177.217 384.978 177.02 384.352 177.02C383.725 177.02 383.113 177.217 382.594 177.587C381.575 178.329 380.796 179.383 380.36 180.607C379.118 183.651 378.977 187.072 379.966 190.218C380.376 191.211 380.653 192.26 380.791 193.334C380.89 195.496 379.42 197.338 378.186 199.085C376.951 200.831 375.837 203.089 376.671 205.068C377.299 206.501 378.875 207.47 379.17 208.968C379.519 210.786 377.966 212.324 377.102 213.95C376.516 215.155 376.231 216.498 376.273 217.852C376.316 219.206 376.684 220.526 377.345 221.687C378.022 222.939 378.953 224.018 380.071 224.844C381.19 225.671 382.467 226.225 383.812 226.467C385.158 226.709 386.537 226.633 387.851 226.244C389.165 225.855 390.381 225.163 391.412 224.218Z" fill="#00C9A7"></path><path fill-rule="evenodd" clip-rule="evenodd" d="M384.29 241.919L386.478 241.634L385.448 197.438H384.29V241.919Z" fill="#377DFF"></path><path fill-rule="evenodd" clip-rule="evenodd" d="M409.408 222.554C410.313 221.812 411.024 220.825 411.471 219.691C411.918 218.556 412.086 217.314 411.958 216.087C411.862 215.209 411.57 214.37 411.108 213.644C410.012 211.95 407.768 210.663 407.932 208.668C408.021 207.609 408.804 206.745 409.326 205.809C409.956 204.639 410.209 203.273 410.044 201.928C409.879 200.583 409.306 199.337 408.417 198.389C407.522 197.428 406.336 196.76 405.553 195.685C405.106 195.067 404.798 194.342 404.657 193.569C404.516 192.796 404.544 191.997 404.741 191.239C404.987 190.253 405.486 189.325 405.695 188.323C405.836 187.824 405.84 187.29 405.708 186.789C405.575 186.287 405.312 185.838 404.949 185.497C404.5 185.198 403.984 185.041 403.458 185.041C402.932 185.041 402.416 185.198 401.967 185.497C401.123 186.076 400.469 186.931 400.095 187.94C399.582 189.12 399.289 190.399 399.232 191.703C399.176 193.008 399.358 194.312 399.767 195.539C400.105 196.326 400.336 197.163 400.453 198.023C400.543 199.733 399.305 201.207 398.261 202.592C397.217 203.976 396.292 205.784 397.023 207.348C397.553 208.488 398.872 209.221 399.126 210.451C399.417 211.893 398.112 213.114 397.389 214.409C396.896 215.354 396.655 216.429 396.69 217.515C396.726 218.601 397.037 219.655 397.59 220.558C400.021 224.655 405.62 225.763 409.408 222.554Z" fill="#13CA7C"></path><path fill-rule="evenodd" clip-rule="evenodd" d="M403.25 235.356H405.437L404.89 201.083H403.735L403.25 235.356Z" fill="#377DFF"></path></svg>