<svg xmlns="http://www.w3.org/2000/svg" width="399" height="279" viewBox="0 0 399 279" fill="none"><path d="M51.0174 277.5C51.0174 277.5 -4.1826 217.4 8.51739 189.1C21.2174 160.8 61.1174 192.6 70.4174 174.3C79.7174 156 17.9174 99.3 59.0174 82.6C100.117 65.9 138.817 105.6 161.217 95.5C183.617 85.4 260.217 34.3 299.617 75.2C320.317 96.7 301.417 116.6 316.817 125.4C330.617 133.3 379.617 116.4 391.717 140C417.417 189.7 357.717 275.9 357.717 275.9L51.0174 277.5Z" fill="#F2F5FF"></path><path d="M50.7174 276.5C39.9582 268.242 30.517 258.396 22.7174 247.3C14.5887 235.976 8.34166 223.415 4.21739 210.1C2.01739 202.7 0.71739 195 1.41739 187.2C2.01739 180.6 4.41739 173.7 10.5174 170.3C16.6174 166.9 23.9174 167.9 30.3174 169.9C37.6174 172.1 44.6174 175.7 52.4174 176.3C55.8135 176.589 59.2311 176.11 62.4174 174.9C65.0061 173.796 67.3767 172.238 69.4174 170.3C73.6765 166.123 76.5703 160.754 77.7174 154.9C78.0317 153.488 78.1993 152.047 78.2174 150.6C78.2174 150 77.3174 150 77.2174 150.6C76.9077 156.752 74.629 162.642 70.7174 167.4C68.8104 169.692 66.5072 171.623 63.9174 173.1C61.0523 174.628 57.8641 175.451 54.6174 175.5C46.7174 175.6 39.4174 172 32.0174 169.6C25.6174 167.5 18.4174 166.1 11.9174 168.7C9.00851 169.848 6.47954 171.788 4.61739 174.3C2.70421 177.058 1.40809 180.196 0.817392 183.5C-0.682608 190.8 0.017392 198.5 1.81739 205.7C3.6118 212.868 6.12451 219.836 9.31739 226.5C12.1966 232.709 15.5394 238.693 19.3174 244.4C26.7352 255.747 35.8398 265.897 46.3174 274.5C47.5174 275.5 48.8174 276.5 50.1174 277.5C50.2458 277.54 50.384 277.536 50.5097 277.488C50.6354 277.44 50.7414 277.351 50.8106 277.236C50.8798 277.12 50.9083 276.985 50.8914 276.852C50.8745 276.718 50.8132 276.594 50.7174 276.5Z" fill="#B1E2FF"></path><path d="M143.117 110.4C146.772 111.894 150.67 112.707 154.617 112.8C158.937 112.949 163.26 112.647 167.517 111.9C174.953 110.821 182.215 108.77 189.117 105.8C199.717 101.2 209.417 94.8999 219.217 88.7999C228.817 82.7999 238.617 76.6999 249.417 72.9999C254.733 71.0904 260.284 69.913 265.917 69.4999C272.484 68.8999 279.099 69.1014 285.617 70.0999C290.448 70.8704 295.094 72.5319 299.317 74.9999C298.417 74.0999 297.617 73.2999 296.717 72.4999C291.178 70.0935 285.25 68.7046 279.217 68.3999C272.974 67.9649 266.701 68.2333 260.517 69.1999C249.317 70.9999 239.017 75.9999 229.317 81.5999C219.217 87.3999 209.717 94.0999 199.517 99.6999C191.885 104.096 183.671 107.395 175.117 109.5C166.917 111.4 158.117 112.8 149.717 111.4C146.017 110.8 142.317 109.6 139.517 107C137.617 105.3 136.317 103.1 136.717 100.5C137.117 98.4009 138.046 96.4389 139.417 94.7999C139.117 94.6999 138.817 94.5999 138.417 94.4999C137.667 95.5286 137.03 96.6349 136.517 97.7999C135.593 99.7385 135.449 101.959 136.117 104C137.417 106.9 140.317 109.1 143.117 110.4Z" fill="white"></path><path d="M64.9174 150.7C65.0335 150.039 65.1003 149.371 65.1174 148.7C65.5174 142.8 63.9174 136.9 62.2174 131.3C60.5174 125.7 58.4174 120.1 57.0174 114.4C56.3674 111.954 56.0645 109.43 56.1174 106.9C56.2174 102.9 57.1174 98.6 60.0174 95.6C62.7174 92.7 66.6174 91.6 70.4174 91C72.4022 90.6845 74.4078 90.5174 76.4174 90.5C78.5289 90.5511 80.6342 90.7516 82.7174 91.1C87.0174 91.8 91.2174 92.9 95.5174 93.6C97.6006 93.9483 99.7059 94.1488 101.817 94.2C103.636 94.2479 105.453 94.046 107.217 93.6C107.717 93.5156 108.178 93.2777 108.537 92.9193C108.895 92.5609 109.133 92.0998 109.217 91.6C109.157 90.4514 108.776 89.3428 108.117 88.3999C107.163 86.9492 106.093 85.578 104.917 84.2999C104.117 83.3999 103.317 82.5 102.517 81.7C101.917 81.5 101.317 81.4 100.717 81.2C102.422 82.9046 104.024 84.7077 105.517 86.6C106.521 87.6887 107.332 88.9398 107.917 90.2999C108.11 90.6708 108.213 91.0819 108.217 91.5V91.7C108.224 91.7542 108.218 91.8093 108.201 91.8612C108.184 91.913 108.155 91.9604 108.117 92L108.017 92.2L107.917 92.2999C107.817 92.3999 107.917 92.2999 107.717 92.3999C107.517 92.4999 107.517 92.5 107.417 92.6C107.317 92.7 107.217 92.7 107.117 92.7C107.017 92.7 106.817 92.7999 106.717 92.7999C104.681 93.2346 102.593 93.3694 100.517 93.2C96.2336 92.8499 91.9859 92.1475 87.8174 91.1C83.7294 90.0703 79.5329 89.5331 75.3174 89.5C73.3415 89.5958 71.3721 89.7961 69.4174 90.1C67.5212 90.387 65.6716 90.925 63.9174 91.7C62.1433 92.4701 60.5442 93.5928 59.2174 95C57.933 96.4609 56.9477 98.1596 56.3174 100C55.2355 103.319 54.8942 106.835 55.3174 110.3C55.6485 112.773 56.1837 115.215 56.9174 117.6C57.7174 120.4 58.7174 123.2 59.6174 126.1C61.5174 131.8 63.4174 137.7 64.0174 143.8C64.2006 145.561 64.234 147.334 64.1174 149.1C64.4174 149.6 64.6174 150.2 64.9174 150.7Z" fill="white"></path><path d="M69.6174 273.9C65.9174 271 62.2174 269.8 60.2174 267.9C56.2174 264.2 58.9174 255.1 56.0174 248.9C53.1174 242.7 45.1174 243.7 45.5174 233.7C45.9174 223.7 41.7174 221.4 33.8174 213.7C25.9174 206 27.5174 189.2 30.7174 188.2C33.9174 187.2 31.2174 191.9 36.3174 197.1C41.4174 202.3 53.9174 200 59.4174 203.9C64.9174 207.8 60.9174 217 67.7174 222.5C74.5174 228 86.3174 221.3 92.0174 227C97.7174 232.7 92.8174 243.7 97.6174 250C102.417 256.3 112.417 257.3 118.117 261.8C121.317 264.3 126.017 268.1 128.517 274L69.6174 273.9Z" fill="#B7D1F9"></path><path d="M96.3174 273.9L88.3174 264.6L57.7174 259.4C57.7174 258.8 57.6174 258.3 57.6174 257.7L86.6174 262.6L81.1174 256.3L57.0174 252.2C56.9174 251.6 56.7174 251 56.6174 250.4L79.5174 254.3L75.4174 249.5L75.3174 249.4L63.4174 235.6L45.5174 232.6C45.537 232.031 45.5035 231.462 45.4174 230.9L61.7174 233.7L51.3174 221.6L51.2174 221.5L34.0174 201.6C33.9174 201.5 33.9174 201.4 33.8174 201.3C33.7174 201.2 33.7174 201.1 33.8174 201C33.8108 200.946 33.8164 200.891 33.8337 200.839C33.851 200.787 33.8796 200.739 33.9174 200.7C33.9174 200.6 34.0174 200.5 34.1174 200.4C34.2174 200.3 34.3174 200.3 34.4174 200.2H34.7174C34.7717 200.193 34.8267 200.199 34.8786 200.216C34.9305 200.234 34.9779 200.262 35.0174 200.3C35.1174 200.4 35.2174 200.4 35.3174 200.5L50.9174 218.6L49.9174 201.1C50.5174 201.2 51.0174 201.2 51.6174 201.3L52.7174 220.6L64.4174 234.2V234.3L75.2174 246.9L77.3174 224.7C77.8859 224.716 78.4547 224.683 79.0174 224.6L76.8174 248.6L80.9174 253.4L83.7174 224.3H85.4174L82.5174 254.7H82.7174C82.8677 254.725 83.0071 254.795 83.1174 254.9C83.2174 255 83.3174 255.1 83.3174 255.2C83.3969 255.317 83.4323 255.459 83.4174 255.6C83.3923 255.75 83.3226 255.89 83.2174 256L89.3174 263.1L89.4174 263.2L98.5174 273.8L96.3174 273.9ZM99.3174 273.9L101.317 253.2C101.817 253.5 102.317 253.9 102.917 254.2L101.017 273.9H99.3174ZM103.817 273.9L105.617 255.6C106.117 255.8 106.717 256.1 107.217 256.3L105.517 273.9H103.817ZM114.717 273.9L116.017 260.3C116.517 260.6 117.117 261 117.617 261.3L116.417 273.9H114.717Z" fill="#E1E8F6"></path><path d="M341.217 273.9C344.917 271 348.617 269.8 350.617 267.9C354.617 264.2 351.917 255.1 354.817 248.9C357.717 242.7 365.717 243.7 365.317 233.7C364.917 223.7 369.117 221.4 377.017 213.7C384.917 206 383.317 189.2 380.117 188.2C376.917 187.2 379.617 191.9 374.517 197.1C369.417 202.3 356.917 200 351.417 203.9C345.917 207.8 349.917 217 343.117 222.5C336.317 228 324.517 221.3 318.817 227C313.117 232.7 318.017 243.7 313.217 250C308.417 256.3 298.417 257.3 292.717 261.8C289.517 264.3 284.817 268.1 282.317 274L341.217 273.9Z" fill="#B7D1F9"></path><path d="M314.517 273.9H312.317L321.417 263.3L321.517 263.2L327.617 256.1C327.517 256 327.517 255.9 327.417 255.7C327.402 255.559 327.438 255.417 327.517 255.3C327.617 255.2 327.617 255.1 327.717 255C327.817 254.9 327.917 254.9 328.117 254.8H328.317L325.417 224.4H327.117L329.917 253.5L334.017 248.7L331.817 224.7C332.417 224.7 332.917 224.8 333.517 224.8L335.617 247L346.417 234.4V234.3L358.117 220.7L359.217 201.4C359.817 201.3 360.317 201.3 360.917 201.2L359.917 218.7L375.517 200.6C375.617 200.5 375.717 200.4 375.817 200.4C375.857 200.362 375.904 200.334 375.956 200.316C376.008 200.299 376.063 200.293 376.117 200.3H376.417C376.517 200.3 376.617 200.4 376.717 200.5C376.817 200.6 376.917 200.7 376.917 200.8C376.955 200.84 376.984 200.887 377.001 200.939C377.018 200.991 377.024 201.046 377.017 201.1V201.4C377.017 201.5 376.917 201.6 376.817 201.7L359.617 221.6L359.517 221.7L349.117 233.8L365.417 231C365.417 231.5 365.317 232.1 365.317 232.7L347.417 235.7L335.517 249.5L335.417 249.6L331.317 254.4L354.217 250.5C354.037 251.088 353.903 251.69 353.817 252.3L329.717 256.4L324.217 262.7L353.217 257.8C353.217 258.4 353.117 258.9 353.117 259.5L322.517 264.7L314.517 273.9ZM311.517 273.9H309.817L307.917 254.2C308.473 253.903 309.007 253.569 309.517 253.2L311.517 273.9ZM307.017 273.9H305.317L303.617 256.3C304.117 256.1 304.717 255.8 305.217 255.6L307.017 273.9ZM294.417 273.9L293.217 261.3C293.713 260.909 294.249 260.574 294.817 260.3L296.117 273.9H294.417Z" fill="#E1E8F6"></path><path d="M46.5174 248.1C46.653 250.199 46.3813 252.304 45.7174 254.3C45.4015 255.235 44.9998 256.139 44.5174 257C43.8247 258.045 43.4115 259.25 43.3174 260.5C43.4174 260.6 43.0174 260.5 43.0174 260.4C39.8174 258.2 35.5174 257.6 33.2174 254.2C32.1637 252.591 31.5754 250.722 31.5174 248.8C31.2643 246.681 31.4689 244.533 32.1174 242.5C32.3746 241.646 32.8108 240.856 33.3971 240.183C33.9833 239.511 34.7061 238.971 35.5174 238.6C37.3435 237.965 39.3412 238.036 41.1174 238.8C44.7174 240.3 46.2174 244.4 46.5174 248.1Z" fill="#00C7B1"></path><path d="M46.3174 273.1C46.0174 271.5 45.6174 270 45.3174 268.4C44.6174 265.3 43.9174 262.3 43.1174 259.3C42.6174 257.5 42.1174 255.7 41.5174 253.9C41.7174 252.8 41.8174 251.8 42.1174 250.7C42.5174 249.4 43.0174 248.2 43.5174 247C43.5174 246.973 43.5068 246.948 43.4881 246.929C43.4693 246.91 43.4439 246.9 43.4174 246.9C42.3337 248.718 41.5884 250.717 41.2174 252.8C40.5174 250.8 39.8174 248.8 39.0174 246.8C39.0353 245.188 39.2026 243.581 39.5174 242C39.1307 243.37 38.896 244.779 38.8174 246.2C38.2174 244.7 37.5174 243.3 36.8174 241.8C36.7174 241.7 36.6174 241.8 36.6174 241.9C37.7174 244.4 38.7174 247 39.6174 249.6C38.1933 248.146 36.4935 246.99 34.6174 246.2C34.5174 246.2 34.4174 246.3 34.5174 246.3C36.5438 247.382 38.3702 248.802 39.9174 250.5C40.5174 252.4 41.2174 254.3 41.7174 256.2C39.7019 254.016 37.1511 252.396 34.3174 251.5C34.2174 251.5 34.2174 251.6 34.3174 251.6C37.3048 252.857 39.9707 254.771 42.1174 257.2C42.2907 257.984 42.5247 258.753 42.8174 259.5C43.6174 262.5 44.4174 265.4 45.1174 268.4C45.4174 269.8 45.8174 271.3 46.1174 272.7C46.3889 274.287 46.7562 275.857 47.2174 277.4C47.2174 277.5 47.5174 277.5 47.5174 277.4C47.025 275.994 46.6242 274.558 46.3174 273.1Z" fill="#68E0B1"></path><path d="M42.8174 244.9C42.1344 245.746 41.6554 246.739 41.4174 247.8C41.9174 246.8 42.4174 245.9 42.9174 244.9C43.0174 244.9 42.9174 244.8 42.8174 244.9Z" fill="#68E0B1"></path><path d="M36.3174 251.4C35.4378 250.815 34.4528 250.408 33.4174 250.2C33.9174 250.4 34.4174 250.6 34.8174 250.8C35.2174 251 35.7173 251.3 36.2173 251.5H36.3174V251.4Z" fill="#68E0B1"></path><path d="M35.3174 242.9C35.0424 242.636 34.7408 242.401 34.4174 242.2C34.6923 242.464 34.9939 242.698 35.3174 242.9Z" fill="#68E0B1"></path><path d="M58.0174 256.4C55.6174 257.3 53.3174 258.1 50.9174 259C50.7174 259.1 46.0174 251.5 47.2174 247.4C47.8022 245.519 48.7957 243.79 50.1269 242.338C51.4581 240.886 53.094 239.746 54.9174 239C56.6548 238.147 58.5865 237.768 60.5174 237.9C61.312 238.051 62.0532 238.407 62.6673 238.933C63.2814 239.46 63.7469 240.138 64.0174 240.9C64.9174 242.9 64.8174 245.4 64.6174 247.5C64.47 249.513 63.7787 251.449 62.6174 253.1C61.4592 254.646 59.8531 255.798 58.0174 256.4Z" fill="#08CF7A"></path><path d="M60.9174 248.7C59.455 249.573 57.9151 250.31 56.3174 250.9C55.2482 251.283 54.2115 251.751 53.2173 252.3C54.1173 250 55.0173 247.6 56.0173 245.4C57.5903 244.85 59.0238 243.963 60.2173 242.8C58.9811 243.752 57.6388 244.557 56.2173 245.2C56.5254 244.619 56.7928 244.018 57.0173 243.4C57.1173 243.2 56.8173 243.1 56.7173 243.3C55.5983 245.238 54.5965 247.242 53.7173 249.3C53.3149 247.562 53.1136 245.784 53.1174 244C52.9353 245.948 53.1046 247.912 53.6174 249.8C52.8958 251.534 52.2617 253.303 51.7173 255.1C51.4173 254.1 50.9174 253.1 50.6174 252C50.1411 250.514 49.9048 248.961 49.9174 247.4H49.8174C49.5988 250.324 50.1504 253.255 51.4174 255.9L50.5173 259.2C49.1022 264.753 48.4297 270.47 48.5173 276.2V276.3H48.7173V276.2C48.913 270.53 49.7177 264.898 51.1174 259.4C51.7174 257.2 52.3173 255.1 53.0173 253.1C54.4173 252.6 55.8174 251.9 57.1174 251.3C58.5039 250.623 59.7841 249.747 60.9174 248.7C61.0174 248.8 61.0174 248.7 60.9174 248.7Z" fill="#68E0B1"></path><path d="M63.0174 246.3C61.6174 246.9 60.2174 247.8 58.8174 248.4C58.7174 248.4 58.8174 248.5 58.8174 248.5C60.4047 248.2 61.8667 247.434 63.0174 246.3Z" fill="#68E0B1"></path><path d="M50.7174 244C50.7174 243.9 50.6174 243.9 50.6174 244C50.2174 245.371 50.2174 246.828 50.6174 248.2C50.6174 248.3 50.7174 248.2 50.7174 248.2C50.6173 246.802 50.6173 245.398 50.7174 244Z" fill="#68E0B1"></path><path d="M56.6174 240.4C56.2036 241.128 56.0288 241.967 56.1174 242.8C56.1174 242.9 56.2174 242.9 56.2174 242.8C56.3704 242.022 56.5708 241.254 56.8174 240.5V240.4H56.7174C56.7174 240.3 56.7174 240.3 56.6174 240.4Z" fill="#68E0B1"></path><path d="M65.8174 260.2C65.1174 262.5 63.4174 265.6 60.7174 265.6C59.0174 265.6 57.2174 265.4 55.5174 265.4C53.6174 265.4 51.8174 265.4 49.9174 265.5C49.7174 265.5 50.1174 259.9 54.6174 257.2C55.9319 256.528 57.3529 256.088 58.8174 255.9C60.4575 255.531 62.1366 255.363 63.8174 255.4C64.2781 255.326 64.7503 255.415 65.1521 255.653C65.5538 255.89 65.8599 256.261 66.0174 256.7C66.3006 257.861 66.231 259.079 65.8174 260.2Z" fill="#2566CE"></path><path d="M63.9174 257.4L60.6174 258.3L61.5174 257.4C61.9936 257.032 62.4948 256.698 63.0174 256.4V256.3C61.9515 256.709 61.0417 257.444 60.4174 258.4C59.047 258.795 57.7096 259.297 56.4174 259.9C55.5217 260.273 54.653 260.707 53.8174 261.2C54.1174 260.6 54.4174 260.1 54.7174 259.6C55.3338 258.896 56.081 258.319 56.9174 257.9C56.0972 258.248 55.3607 258.767 54.7571 259.422C54.1535 260.077 53.6968 260.854 53.4174 261.7C52.4916 262.36 51.6518 263.132 50.9174 264C47.9174 267.4 45.6174 271.8 45.6174 276.4C45.6174 276.5 45.8174 276.5 45.8174 276.4C46.5543 271.934 48.4898 267.752 51.4174 264.3C51.6174 264.1 51.8174 263.8 52.0174 263.6C52.8125 263.484 53.614 263.417 54.4174 263.4C55.3538 263.413 56.2886 263.48 57.2174 263.6C58.8096 263.81 60.4289 263.603 61.9174 263C62.0174 263 61.9174 262.9 61.9174 262.9C58.8174 264 55.5174 262.6 52.3174 263.3C53.6389 262.008 55.202 260.988 56.9174 260.3L57.2174 260.2C59.2174 260.4 61.3174 261 63.3174 260.3C61.4174 260.8 59.6174 260.2 57.7174 260.1C59.7174 259.3 61.8174 258.7 63.9174 257.9C64.1174 257.5 64.1174 257.3 63.9174 257.4Z" fill="white"></path><path d="M64.8174 259.3C63.8601 259.466 62.8883 259.533 61.9174 259.5C62.8766 259.784 63.9062 259.713 64.8174 259.3Z" fill="white"></path><path d="M58.1174 257.4C57.5735 257.662 57.0687 257.999 56.6174 258.4C56.5174 258.4 56.6173 258.5 56.7173 258.5C56.9694 258.311 57.2371 258.144 57.5173 258C57.7173 257.9 58.0173 257.7 58.2173 257.6V257.5C58.3173 257.5 58.3174 257.5 58.1174 257.4Z" fill="white"></path><path d="M41.8174 264.7C41.8174 264.726 41.8068 264.752 41.7881 264.771C41.7693 264.789 41.7439 264.8 41.7174 264.8C39.9048 265.239 38.0684 265.572 36.2174 265.8C34.7174 265.9 33.0174 266 31.7174 265.2C29.9174 264 28.8174 260.9 29.7174 259C30.8174 256.7 34.2174 257.9 35.9174 258.8C38.5624 259.945 40.672 262.055 41.8174 264.7Z" fill="#00C7B1"></path><path d="M43.1174 265.7C42.1308 264.727 41.0214 263.886 39.8174 263.2C38.9848 261.835 37.8572 260.673 36.5174 259.8C36.5043 259.8 36.4913 259.803 36.4791 259.808C36.467 259.813 36.456 259.82 36.4467 259.829C36.4374 259.839 36.43 259.85 36.425 259.862C36.42 259.874 36.4174 259.887 36.4174 259.9C37.4975 260.713 38.4424 261.692 39.2174 262.8C37.9174 262.1 36.5174 261.5 35.1174 260.9C34.5977 259.98 33.8371 259.22 32.9174 258.7C33.6826 259.299 34.3563 260.006 34.9174 260.8C34.1174 260.5 33.2174 260.2 32.4174 259.9C32.3174 259.9 32.3174 260 32.4174 260C33.9174 260.6 35.4174 261.2 36.9174 261.9C35.1299 262.2 33.3049 262.2 31.5174 261.9C33.4097 262.433 35.4078 262.468 37.3174 262C38.2174 262.5 39.2174 263 40.0174 263.5C39.2781 263.417 38.5297 263.485 37.8174 263.7C36.5451 264.03 35.2302 264.165 33.9174 264.1C33.9174 264.1 33.8174 264.2 33.9174 264.2C36.2174 264.6 38.3174 263.6 40.5174 263.8C41.3279 264.378 42.0965 265.013 42.8174 265.7C44.204 267.105 45.3524 268.726 46.2174 270.5C47.1174 272.4 47.7174 274.5 48.4174 276.4H48.5174V276.3C47.7702 272.322 45.8959 268.643 43.1174 265.7Z" fill="#68E0B1"></path><path d="M36.3174 260.4C36.1746 260.123 35.9692 259.883 35.7174 259.7C35.5282 259.479 35.2879 259.307 35.0174 259.2L35.6174 259.8C35.9174 260 36.0174 260.2 36.3174 260.4Z" fill="#68E0B1"></path><path d="M32.5174 261.6C32.1909 261.517 31.8538 261.484 31.5174 261.5C31.2174 261.4 30.8174 261.3 30.5174 261.2C31.1554 261.563 31.884 261.737 32.6174 261.7L32.5174 261.6Z" fill="#68E0B1"></path><path d="M320.817 269.2C320.704 270.107 320.433 270.986 320.017 271.8C319.117 273.6 317.317 275 313.917 275.4C311.622 275.6 309.313 275.6 307.017 275.4C304.217 275.3 301.417 275.3 298.617 275.4C288.017 275.7 277.717 276.2 267.317 274.5V274.6C267.317 274.9 266.717 274.9 266.617 274.7C266.624 274.646 266.618 274.591 266.601 274.539C266.584 274.487 266.555 274.439 266.517 274.4C266.117 274.3 265.717 274.3 265.317 274.2C265.217 274.2 265.117 274.1 265.017 274.1C265.017 274.113 265.015 274.126 265.01 274.138C265.005 274.15 264.997 274.161 264.988 274.171C264.979 274.18 264.968 274.187 264.956 274.192C264.944 274.197 264.931 274.2 264.917 274.2C264.904 274.2 264.891 274.203 264.879 274.208C264.867 274.213 264.856 274.22 264.847 274.229C264.837 274.239 264.83 274.25 264.825 274.262C264.82 274.274 264.817 274.287 264.817 274.3H264.717C264.417 274.2 264.417 274.2 264.317 274C264.217 273.8 264.317 273.9 264.417 273.8H264.617C264.317 272.8 263.017 269 262.917 268.7C262.568 267.594 262.568 266.406 262.917 265.3C263.012 265.047 263.147 264.81 263.317 264.6C263.417 264.6 263.417 264.5 263.517 264.5H263.717C265.217 265.3 265.217 266.8 265.417 268C265.817 269.5 266.217 271 266.517 272.5C266.502 272.295 266.536 272.089 266.617 271.9C266.812 269.819 267.113 267.75 267.517 265.7C268.017 263.4 268.317 260.6 270.617 258.8L270.717 258.7H271.117C271.131 258.7 271.144 258.703 271.156 258.708C271.168 258.713 271.179 258.72 271.188 258.729C271.197 258.739 271.205 258.75 271.21 258.762C271.215 258.774 271.217 258.787 271.217 258.8C272.717 260.4 271.617 263.2 271.417 265C271.217 266.8 271.117 268.6 270.917 270.4C271.852 268.476 273.141 266.746 274.717 265.3C274.763 265.247 274.822 265.206 274.888 265.181C274.954 265.156 275.025 265.149 275.095 265.159C275.164 265.169 275.231 265.196 275.287 265.238C275.343 265.28 275.388 265.336 275.417 265.4C276.117 267.1 275.617 269 275.017 270.8C275.43 270.221 275.899 269.685 276.417 269.2C276.738 268.783 277.145 268.442 277.612 268.2C278.078 267.958 278.592 267.821 279.117 267.8C279.527 267.766 279.934 267.894 280.252 268.155C280.569 268.416 280.772 268.791 280.817 269.2C281 270.189 281.034 271.201 280.917 272.2C281.35 271.454 281.852 270.751 282.417 270.1C282.717 269.7 283.217 268.7 284.117 268.8C284.363 268.792 284.605 268.867 284.804 269.012C285.003 269.157 285.149 269.363 285.217 269.6C285.41 269.906 285.545 270.245 285.617 270.6V270.7C285.729 269.406 285.998 268.13 286.417 266.9C286.717 265.9 287.217 263 289.017 262.7H289.517C290.917 262.9 290.917 264.9 291.017 265.5L292.217 270.6C292.632 269.453 293.318 268.424 294.217 267.6C294.417 267.4 295.017 267.4 295.117 267.7C295.493 268.765 295.728 269.874 295.817 271C296.096 270.481 296.496 270.037 296.984 269.706C297.472 269.375 298.032 269.167 298.617 269.1C299.717 269.1 300.117 269.9 300.117 270.9C300.817 269.6 301.917 268.4 303.317 268.5C304.317 268.6 304.717 269.5 304.917 270.5C305.14 270.089 305.474 269.75 305.881 269.52C306.287 269.29 306.751 269.179 307.217 269.2C307.558 269.167 307.902 269.204 308.228 269.307C308.555 269.41 308.857 269.578 309.117 269.8C309.101 269.464 309.135 269.126 309.217 268.8C309.317 267.6 309.517 266.4 309.717 265.2C310.017 263.7 310.117 262.1 311.617 260.9C311.704 260.835 311.809 260.8 311.917 260.8C312.026 260.8 312.131 260.835 312.217 260.9C312.244 260.9 312.269 260.91 312.288 260.929C312.307 260.948 312.317 260.973 312.317 261C313.817 261.9 313.417 263.4 313.417 264.6C313.417 266.1 313.317 267.5 313.317 269C313.776 268.2 314.394 267.503 315.134 266.952C315.874 266.401 316.719 266.009 317.617 265.8H317.817C317.917 265.8 317.917 265.8 318.017 265.9C318.117 266 318.117 266 318.217 266C318.317 266 318.317 266.1 318.317 266.2C318.517 267.492 318.517 268.808 318.317 270.1L319.817 269.2C320.317 268.7 320.917 268.9 320.817 269.2Z" fill="#00C7B1"></path><path d="M368.617 269.9C368.538 270.801 368.301 271.681 367.917 272.5C367.017 274.4 365.317 275.8 362.017 276.3C359.726 276.55 357.421 276.65 355.117 276.6C352.317 276.6 349.517 276.7 346.717 276.9C336.117 277.5 325.817 278.5 315.417 277.1V277.2C315.417 277.5 314.817 277.6 314.717 277.3C314.717 277.2 314.617 277.1 314.617 277C314.217 276.9 313.817 276.9 313.417 276.8C313.317 276.8 313.217 276.7 313.117 276.7C313.117 276.713 313.115 276.726 313.11 276.738C313.105 276.75 313.097 276.761 313.088 276.771C313.079 276.78 313.068 276.787 313.056 276.792C313.044 276.797 313.031 276.8 313.017 276.8C312.991 276.8 312.965 276.811 312.947 276.829C312.928 276.848 312.917 276.873 312.917 276.9H312.817C312.517 276.8 312.517 276.8 312.417 276.6C312.317 276.4 312.417 276.5 312.517 276.4L312.617 276.3H312.717C312.417 275.3 311.017 271.6 310.917 271.2C310.585 270.095 310.55 268.922 310.817 267.8C310.912 267.547 311.047 267.31 311.217 267.1C311.271 267.046 311.342 267.011 311.417 267H311.617C313.217 267.7 313.117 269.3 313.517 270.4C313.917 271.9 314.417 273.4 314.817 274.8V274.2C314.917 272.1 315.117 266.5 317.417 264.6L317.517 264.5H317.917C317.944 264.5 317.969 264.511 317.988 264.529C318.007 264.548 318.017 264.573 318.017 264.6C319.617 266.1 319.117 270.7 319.017 272.5C319.912 270.574 321.13 268.815 322.617 267.3C322.817 267.1 323.217 267.1 323.317 267.3C324.117 269 323.717 270.9 323.117 272.7C323.495 272.124 323.931 271.588 324.417 271.1C324.738 270.676 325.144 270.323 325.609 270.065C326.074 269.807 326.588 269.648 327.117 269.6C327.52 269.582 327.917 269.701 328.243 269.937C328.57 270.173 328.807 270.512 328.917 270.9C329.186 271.876 329.254 272.897 329.117 273.9C329.517 273.2 330.017 272.5 330.517 271.8C330.817 271.4 331.317 270.4 332.217 270.4C332.463 270.392 332.705 270.467 332.904 270.612C333.103 270.757 333.249 270.964 333.317 271.2C333.51 271.506 333.645 271.845 333.717 272.2V272.3C333.812 271.019 334.012 269.748 334.317 268.5C334.617 267.5 334.917 264.6 336.817 264.2C337.017 264.2 337.117 264.1 337.317 264.2C338.717 264.3 338.717 266.4 338.917 267C339.417 268.7 339.817 270.4 340.317 272.1C340.693 270.929 341.345 269.866 342.217 269C342.347 268.903 342.505 268.85 342.667 268.85C342.83 268.85 342.988 268.903 343.117 269C343.582 270.042 343.853 271.161 343.917 272.3C344.16 271.765 344.536 271.3 345.008 270.95C345.481 270.6 346.034 270.377 346.617 270.3C347.717 270.2 348.117 271.1 348.217 272C348.917 270.7 349.917 269.4 351.317 269.5C352.317 269.6 352.817 270.5 353.017 271.5C353.221 271.067 353.548 270.703 353.957 270.454C354.366 270.205 354.839 270.082 355.317 270.1C355.658 270.067 356.002 270.104 356.328 270.207C356.655 270.31 356.957 270.478 357.217 270.7V269.7L357.517 266.1C357.717 264.6 357.817 263 359.317 261.7C359.404 261.635 359.509 261.6 359.617 261.6C359.726 261.6 359.831 261.635 359.917 261.7C359.944 261.7 359.969 261.711 359.988 261.729C360.007 261.748 360.017 261.773 360.017 261.8C361.517 262.7 361.217 264.1 361.217 265.4V269.8C362.094 268.18 363.563 266.961 365.317 266.4H365.517C365.617 266.4 365.617 266.4 365.717 266.5C365.817 266.6 365.817 266.6 365.917 266.6C366.017 266.6 366.017 266.7 366.017 266.8C366.3 268.082 366.334 269.406 366.117 270.7C366.58 270.342 367.084 270.04 367.617 269.8C368.017 269.4 368.617 269.6 368.617 269.9Z" fill="#00C7B1"></path><path d="M112.117 271.2C112.004 272.107 111.733 272.986 111.317 273.8C110.417 275.6 108.617 277 105.217 277.4C102.922 277.6 100.613 277.6 98.3174 277.4C95.5174 277.3 92.7174 277.3 89.9174 277.4C79.3174 277.7 69.0174 278.2 58.6174 276.5V276.6C58.6174 276.9 58.0174 276.9 57.9174 276.7C57.9239 276.646 57.9183 276.591 57.9011 276.539C57.8838 276.487 57.8552 276.439 57.8174 276.4C57.4174 276.3 57.0174 276.3 56.6174 276.2C56.5174 276.2 56.4174 276.1 56.3174 276.1C56.3174 276.126 56.3068 276.152 56.2881 276.171C56.2693 276.189 56.2439 276.2 56.2174 276.2C56.2043 276.2 56.1912 276.203 56.1791 276.208C56.167 276.213 56.156 276.22 56.1467 276.229C56.1374 276.239 56.13 276.25 56.125 276.262C56.12 276.274 56.1174 276.287 56.1174 276.3H56.0174C55.7174 276.2 55.7174 276.2 55.6174 276C55.5174 275.8 55.6174 275.9 55.7174 275.8H55.9174C55.6174 274.8 54.3174 271 54.2174 270.7C53.8676 269.594 53.8676 268.406 54.2174 267.3C54.3121 267.047 54.4472 266.81 54.6174 266.6C54.7174 266.6 54.7174 266.5 54.8174 266.5H55.0174C56.5174 267.3 56.5174 268.8 56.7174 270C57.1174 271.5 57.5174 273 57.8174 274.5C57.8016 274.295 57.836 274.089 57.9174 273.9C58.1122 271.819 58.4125 269.75 58.8174 267.7C59.3174 265.4 59.6174 262.6 61.9174 260.8L62.0174 260.7H62.4174C62.4305 260.7 62.4435 260.703 62.4557 260.708C62.4678 260.713 62.4788 260.72 62.4881 260.729C62.4974 260.739 62.5047 260.75 62.5098 260.762C62.5148 260.774 62.5174 260.787 62.5174 260.8C64.0174 262.4 62.9174 265.2 62.7174 267C62.5174 268.8 62.4174 270.6 62.2174 272.4C63.1519 270.476 64.4412 268.746 66.0174 267.3C66.0634 267.247 66.1221 267.206 66.188 267.181C66.2539 267.156 66.325 267.149 66.3947 267.159C66.4644 267.169 66.5305 267.196 66.5869 267.238C66.6433 267.28 66.6881 267.336 66.7174 267.4C67.4174 269.1 66.9174 271 66.3174 272.8C66.7298 272.221 67.1988 271.685 67.7174 271.2C68.0375 270.783 68.4453 270.442 68.9118 270.2C69.3783 269.958 69.8923 269.821 70.4174 269.8C70.8272 269.766 71.2341 269.894 71.5515 270.155C71.8689 270.416 72.0719 270.791 72.1174 271.2C72.3004 272.189 72.3341 273.201 72.2174 274.2C72.65 273.454 73.1522 272.751 73.7174 272.1C74.0174 271.7 74.5174 270.7 75.4174 270.8C75.6635 270.792 75.9051 270.867 76.1043 271.012C76.3034 271.157 76.4487 271.363 76.5174 271.6C76.71 271.906 76.8455 272.245 76.9174 272.6V272.7C77.0294 271.406 77.298 270.13 77.7174 268.9C78.0174 267.9 78.5174 265 80.3174 264.7H80.8174C82.2174 264.9 82.2174 266.9 82.3174 267.5L83.5174 272.6C83.932 271.453 84.6182 270.424 85.5174 269.6C85.7174 269.4 86.3174 269.4 86.4174 269.7C86.7931 270.765 87.0284 271.874 87.1174 273C87.3961 272.481 87.7963 272.037 88.2839 271.706C88.7715 271.375 89.332 271.167 89.9174 271.1C91.0174 271.1 91.4174 271.9 91.4174 272.9C92.1174 271.6 93.2174 270.4 94.6174 270.5C95.6174 270.6 96.0174 271.5 96.2174 272.5C96.4402 272.089 96.774 271.75 97.1808 271.52C97.5875 271.29 98.0507 271.179 98.5174 271.2C98.8581 271.167 99.202 271.204 99.5284 271.307C99.8548 271.41 100.157 271.578 100.417 271.8C100.401 271.464 100.435 271.126 100.517 270.8C100.617 269.6 100.817 268.4 101.017 267.2C101.317 265.7 101.417 264.1 102.917 262.9C103.004 262.835 103.109 262.8 103.217 262.8C103.326 262.8 103.431 262.835 103.517 262.9C103.544 262.9 103.569 262.91 103.588 262.929C103.607 262.948 103.617 262.973 103.617 263C105.117 263.9 104.717 265.4 104.717 266.6C104.717 268.1 104.617 269.5 104.617 271C105.076 270.2 105.694 269.503 106.434 268.952C107.174 268.401 108.019 268.009 108.917 267.8H109.117C109.217 267.8 109.217 267.8 109.317 267.9C109.417 268 109.417 268 109.517 268C109.617 268 109.617 268.1 109.617 268.2C109.817 269.492 109.817 270.808 109.617 272.1L111.117 271.2C111.517 270.7 112.117 270.9 112.117 271.2Z" fill="#00C7B1"></path><path d="M159.817 269.8C159.738 270.701 159.501 271.581 159.117 272.4C158.217 274.3 156.517 275.7 153.217 276.2C150.926 276.45 148.621 276.55 146.317 276.5C143.517 276.5 140.717 276.6 137.917 276.8C127.317 277.4 117.017 278.4 106.617 277V277.1C106.617 277.4 106.017 277.5 105.917 277.2C105.917 277.1 105.817 277 105.817 276.9C105.417 276.8 105.017 276.8 104.617 276.7C104.517 276.7 104.417 276.6 104.317 276.6C104.317 276.627 104.307 276.652 104.288 276.671C104.269 276.689 104.244 276.7 104.217 276.7C104.204 276.7 104.191 276.703 104.179 276.708C104.167 276.713 104.156 276.72 104.147 276.729C104.137 276.739 104.13 276.75 104.125 276.762C104.12 276.774 104.117 276.787 104.117 276.8H104.017C103.717 276.7 103.717 276.7 103.617 276.5C103.517 276.3 103.617 276.4 103.717 276.3L103.817 276.2H103.917C103.617 275.2 102.217 271.5 102.117 271.1C101.785 269.995 101.75 268.822 102.017 267.7C102.112 267.447 102.247 267.21 102.417 267C102.471 266.946 102.542 266.911 102.617 266.9H102.817C104.417 267.6 104.317 269.2 104.717 270.3C105.117 271.8 105.617 273.3 106.017 274.7V274.1C106.117 272 106.317 266.4 108.617 264.5L108.717 264.4H109.117C109.144 264.4 109.169 264.411 109.188 264.429C109.207 264.448 109.217 264.473 109.217 264.5C110.817 266 110.317 270.6 110.217 272.4C111.112 270.474 112.33 268.715 113.817 267.2C114.017 267 114.417 267 114.517 267.2C115.317 268.9 114.917 270.8 114.317 272.6C114.695 272.024 115.131 271.488 115.617 271C115.938 270.576 116.344 270.223 116.809 269.965C117.274 269.707 117.788 269.548 118.317 269.5C118.72 269.482 119.117 269.601 119.443 269.837C119.77 270.073 120.007 270.412 120.117 270.8C120.386 271.776 120.454 272.797 120.317 273.8C120.717 273.1 121.217 272.4 121.717 271.7C122.017 271.3 122.517 270.3 123.417 270.3C123.664 270.292 123.905 270.367 124.104 270.512C124.303 270.657 124.449 270.864 124.517 271.1C124.71 271.406 124.845 271.745 124.917 272.1V272.2C125.012 270.919 125.212 269.648 125.517 268.4C125.817 267.4 126.117 264.5 128.017 264.1C128.217 264.1 128.317 264 128.517 264.1C129.917 264.2 129.917 266.3 130.117 266.9C130.617 268.6 131.017 270.3 131.517 272C131.893 270.829 132.545 269.766 133.417 268.9C133.547 268.803 133.705 268.75 133.867 268.75C134.03 268.75 134.188 268.803 134.317 268.9C134.782 269.942 135.053 271.061 135.117 272.2C135.36 271.665 135.736 271.2 136.208 270.85C136.681 270.5 137.235 270.277 137.817 270.2C138.917 270.1 139.317 271 139.417 271.9C140.117 270.6 141.117 269.3 142.517 269.4C143.517 269.5 144.017 270.4 144.217 271.4C144.421 270.967 144.748 270.603 145.157 270.354C145.566 270.105 146.039 269.982 146.517 270C146.858 269.967 147.202 270.004 147.528 270.107C147.855 270.21 148.157 270.378 148.417 270.6V269.6L148.717 266C148.917 264.5 149.017 262.9 150.517 261.6C150.604 261.535 150.709 261.5 150.817 261.5C150.926 261.5 151.031 261.535 151.117 261.6C151.144 261.6 151.169 261.611 151.188 261.629C151.207 261.648 151.217 261.673 151.217 261.7C152.717 262.6 152.417 264 152.417 265.3V269.7C153.294 268.08 154.763 266.861 156.517 266.3H156.717C156.817 266.3 156.817 266.3 156.917 266.4C157.017 266.5 157.017 266.5 157.117 266.5C157.217 266.5 157.217 266.6 157.217 266.7C157.5 267.982 157.534 269.306 157.317 270.6C157.78 270.242 158.284 269.94 158.817 269.7C159.317 269.3 159.817 269.5 159.817 269.8Z" fill="#00C7B1"></path><path d="M299.117 275.6L300.017 263.2L293.117 255.3L293.517 255L297.517 258.5L298.117 255L298.717 255.2L298.617 259.5L300.217 261.1L300.817 248.4L297.417 244.2L297.817 243.9L301.317 246.7L301.517 240.1H302.417L303.017 248.2L303.917 256.3L308.417 251.4L308.817 251.7L307.117 254.3H310.017V254.8L306.917 255.3L303.817 260.1L304.517 275.7H299.117V275.6Z" fill="#994F61"></path><path d="M328.417 230.8C328.537 229.266 328.297 227.725 327.717 226.3C327.43 225.586 326.968 224.956 326.374 224.467C325.78 223.977 325.073 223.645 324.317 223.5C323.882 223.415 323.433 223.444 323.012 223.584C322.592 223.724 322.214 223.971 321.917 224.3C323.745 222.21 325.109 219.756 325.917 217.1C326.299 215.78 326.372 214.389 326.129 213.036C325.886 211.684 325.335 210.405 324.517 209.3C323.62 208.317 322.491 207.574 321.234 207.137C319.977 206.701 318.631 206.585 317.317 206.8C314.693 207.266 312.319 208.648 310.617 210.7C310.817 206.6 311.717 202.4 311.017 198.3C310.317 194.2 307.017 190.2 302.917 190.3C300.117 190.4 297.717 192.4 295.917 194.6C292.201 199.126 289.936 204.667 289.417 210.5C288.407 208.978 287.196 207.599 285.817 206.4C285.119 205.804 284.307 205.354 283.431 205.079C282.554 204.805 281.631 204.709 280.717 204.8C277.717 205.3 275.817 208.3 275.117 211.2C274.317 214.331 274.421 217.625 275.417 220.7C277.017 225.7 280.817 229.8 284.517 233.6C283.652 233.288 282.701 233.31 281.85 233.661C281 234.012 280.311 234.668 279.917 235.5C278.817 237.8 279.817 240.4 281.417 242.1C282.772 243.57 284.403 244.759 286.217 245.6C296.217 250.6 308.317 249.9 318.417 245.5C322.006 243.893 324.936 241.105 326.717 237.6C327.818 235.501 328.401 233.17 328.417 230.8Z" fill="#479DA3"></path><path d="M296.317 251.8C295.817 251.3 294.517 251 294.517 252C294.117 249 290.117 250.1 292.017 253C288.917 249.8 286.217 253.9 290.217 255.7C286.817 255.8 288.717 260.6 291.717 258.5C291.473 258.64 291.288 258.865 291.198 259.133C291.109 259.4 291.121 259.692 291.232 259.951C291.343 260.21 291.546 260.419 291.801 260.539C292.057 260.659 292.347 260.68 292.617 260.6C295.917 260.1 299.417 254.6 296.317 251.8Z" fill="#479DA3"></path><path d="M290.417 242.8C290.073 242.014 289.969 241.145 290.117 240.3C290.157 239.874 290.308 239.466 290.553 239.115C290.798 238.764 291.131 238.483 291.517 238.3C291.739 238.193 291.985 238.146 292.231 238.163C292.476 238.181 292.713 238.262 292.917 238.4C291.608 237.573 290.484 236.483 289.617 235.2C289.196 234.557 288.931 233.824 288.844 233.059C288.758 232.295 288.851 231.521 289.117 230.8C289.445 230.143 289.924 229.574 290.515 229.139C291.107 228.704 291.793 228.417 292.517 228.3C293.992 228.116 295.484 228.471 296.717 229.3C295.917 227.1 294.817 225.1 294.517 222.8C294.217 220.5 295.317 217.8 297.617 217.3C298.394 217.177 299.188 217.22 299.946 217.427C300.705 217.634 301.411 218 302.017 218.5C304.718 220.305 306.809 222.885 308.017 225.9C308.306 224.906 308.744 223.962 309.317 223.1C309.605 222.679 309.975 222.321 310.405 222.046C310.834 221.771 311.315 221.585 311.817 221.5C313.517 221.3 314.917 222.6 315.817 224C316.749 225.532 317.202 227.308 317.117 229.1C317.017 232 315.717 234.8 314.317 237.4C314.729 237.071 315.255 236.917 315.779 236.974C316.304 237.03 316.785 237.291 317.117 237.7C318.117 238.7 317.917 240.3 317.417 241.5C316.958 242.508 316.273 243.397 315.417 244.1C310.917 248.4 304.317 249.9 298.317 249.2C296.147 248.898 294.14 247.877 292.617 246.3C291.559 245.373 290.794 244.156 290.417 242.8Z" fill="#7BBFBA"></path><path d="M279.117 232.5C279.469 233.215 279.54 234.035 279.317 234.8C278.571 234.561 277.933 234.065 277.517 233.4C277.166 232.685 277.095 231.865 277.317 231.1C278.073 231.321 278.717 231.822 279.117 232.5Z" fill="#479DA3"></path><path d="M275.617 234.7C276.714 234.713 277.772 235.101 278.617 235.8C278.255 236.215 277.812 236.553 277.316 236.794C276.821 237.034 276.281 237.173 275.731 237.201C275.181 237.229 274.63 237.146 274.112 236.956C273.595 236.767 273.12 236.476 272.717 236.1C273.51 235.336 274.526 234.846 275.617 234.7Z" fill="#479DA3"></path><path d="M311.317 255.7C310.916 255.523 310.595 255.202 310.417 254.8C310.607 254.718 310.811 254.676 311.017 254.676C311.224 254.676 311.428 254.718 311.617 254.8C312.019 254.977 312.34 255.298 312.517 255.7C312.126 255.816 311.709 255.816 311.317 255.7Z" fill="#479DA3"></path><path d="M312.017 253.6C311.571 253.971 310.996 254.151 310.417 254.1C310.487 253.509 310.731 252.952 311.117 252.5C311.564 252.129 312.139 251.949 312.717 252C312.702 252.604 312.451 253.179 312.017 253.6Z" fill="#479DA3"></path><path d="M311.217 219.6C310.594 220.119 309.826 220.434 309.017 220.5C309.038 219.699 309.319 218.927 309.817 218.3C310.441 217.781 311.209 217.466 312.017 217.4C311.997 218.201 311.716 218.973 311.217 219.6Z" fill="#7BBFBA"></path><path d="M291.217 226.3C291.73 226.52 292.153 226.908 292.417 227.4C291.915 227.632 291.344 227.668 290.817 227.5C290.305 227.279 289.882 226.892 289.617 226.4C290.119 226.168 290.69 226.132 291.217 226.3Z" fill="#7BBFBA"></path><path d="M308.117 216.9C308.443 217.955 308.372 219.093 307.917 220.1C306.953 219.593 306.181 218.786 305.717 217.8C305.392 216.745 305.463 215.607 305.917 214.6C306.882 215.107 307.654 215.914 308.117 216.9Z" fill="#7BBFBA"></path><path d="M294.417 258.8H293.517C293.1 258.782 292.705 258.603 292.417 258.3C292.292 258.163 292.221 257.985 292.217 257.8V257.2C292.417 256.7 293.017 256.8 293.317 256.5C293.417 256.4 293.417 256.3 293.417 256.1V255.7C293.317 255.443 293.317 255.157 293.417 254.9C293.517 254.6 293.717 254.4 294.017 254.5C294.317 254.6 294.317 254.7 294.417 254.9L294.517 255H294.717C295.217 255 295.317 254.3 295.817 254.4C296.317 254.5 296.617 255 296.817 255.5C296.95 255.885 296.984 256.298 296.917 256.7C296.812 257.091 296.643 257.463 296.417 257.8C295.905 258.379 295.188 258.737 294.417 258.8Z" fill="#7BBFBA"></path><path d="M267.217 17V257.4C267.217 266.8 259.217 274.4 249.317 274.4H149.117C139.217 274.4 131.217 266.8 131.217 257.4V17C131.217 7.6 139.217 0 149.117 0H249.417C259.217 0 267.217 7.6 267.217 17Z" fill="#B7D2F8"></path><path d="M262.917 17V257.4C262.93 257.836 262.897 258.271 262.817 258.7C262.404 261.944 260.808 264.922 258.336 267.062C255.863 269.203 252.687 270.356 249.417 270.3H149.117C141.717 270.3 135.617 264.5 135.617 257.5V17C135.617 9.89995 141.717 4.19995 149.117 4.19995H175.417L178.417 10.4H220.817L223.817 4.19995H249.317C256.817 4.19995 262.917 9.89995 262.917 17Z" fill="#F5F5FC"></path><path d="M262.917 32V17C262.917 9.89995 256.817 4.19995 249.417 4.19995H223.917L220.917 10.4H178.517L175.517 4.19995H149.217C141.817 4.19995 135.717 9.99995 135.717 17V32H262.917Z" fill="white"></path><path d="M232.417 16.6C232.88 16.6082 233.328 16.4349 233.664 16.1171C234.001 15.7993 234.199 15.3624 234.217 14.9C234.216 14.6685 234.168 14.4396 234.076 14.2272C233.984 14.0149 233.85 13.8234 233.682 13.6644C233.513 13.5055 233.314 13.3824 233.097 13.3025C232.88 13.2227 232.649 13.1878 232.417 13.2C231.955 13.1918 231.507 13.3651 231.171 13.6829C230.834 14.0007 230.636 14.4376 230.617 14.9C230.618 15.1315 230.666 15.3604 230.759 15.5728C230.851 15.7851 230.985 15.9766 231.153 16.1356C231.322 16.2945 231.52 16.4176 231.738 16.4975C231.955 16.5773 232.186 16.6122 232.417 16.6Z" fill="#BDB0FF"></path><path d="M241.017 16.6C241.48 16.6082 241.928 16.4349 242.264 16.1171C242.601 15.7993 242.799 15.3624 242.817 14.9C242.816 14.6685 242.768 14.4396 242.676 14.2272C242.584 14.0149 242.45 13.8234 242.282 13.6644C242.113 13.5055 241.914 13.3824 241.697 13.3025C241.48 13.2227 241.249 13.1878 241.017 13.2C240.555 13.1918 240.107 13.3651 239.771 13.6829C239.434 14.0007 239.236 14.4376 239.217 14.9C239.218 15.1315 239.266 15.3604 239.359 15.5728C239.451 15.7851 239.585 15.9766 239.753 16.1356C239.922 16.2945 240.12 16.4176 240.338 16.4975C240.555 16.5773 240.786 16.6122 241.017 16.6Z" fill="#BDB0FF"></path><path d="M249.617 16.6C250.08 16.6082 250.528 16.4349 250.864 16.1171C251.201 15.7993 251.399 15.3624 251.417 14.9C251.416 14.6685 251.368 14.4396 251.276 14.2272C251.184 14.0149 251.05 13.8234 250.882 13.6644C250.713 13.5055 250.514 13.3824 250.297 13.3025C250.08 13.2227 249.849 13.1878 249.617 13.2C249.155 13.1918 248.707 13.3651 248.371 13.6829C248.034 14.0007 247.836 14.4376 247.817 14.9C247.818 15.1315 247.866 15.3604 247.959 15.5728C248.051 15.7851 248.185 15.9766 248.353 16.1356C248.522 16.2945 248.72 16.4176 248.938 16.4975C249.155 16.5773 249.386 16.6122 249.617 16.6Z" fill="#BDB0FF"></path><path d="M260.117 38.2999H137.417V173.2H260.017V38.2999H260.117Z" fill="#FBFBFB"></path><path d="M154.817 57.3999C155.905 57.3999 156.969 57.0773 157.873 56.473C158.777 55.8686 159.482 55.0097 159.899 54.0047C160.315 52.9997 160.424 51.8938 160.212 50.8269C159.999 49.76 159.476 48.78 158.706 48.0108C157.937 47.2416 156.957 46.7178 155.89 46.5056C154.823 46.2934 153.718 46.4023 152.713 46.8186C151.708 47.2349 150.849 47.9398 150.244 48.8443C149.64 49.7487 149.317 50.8121 149.317 51.8999C149.33 53.3546 149.914 54.7459 150.943 55.7746C151.971 56.8032 153.363 57.3869 154.817 57.3999Z" fill="#B7D1F9"></path><path d="M227.017 47.4H169.817C169.662 47.4116 169.516 47.4785 169.406 47.5886C169.296 47.6987 169.229 47.8447 169.217 48V50.2C169.229 50.3553 169.296 50.5013 169.406 50.6114C169.516 50.7215 169.662 50.7885 169.817 50.8H226.917C227.073 50.7885 227.219 50.7215 227.329 50.6114C227.439 50.5013 227.506 50.3553 227.517 50.2V48C227.532 47.9265 227.531 47.8506 227.512 47.7779C227.494 47.7051 227.46 47.6374 227.412 47.5798C227.364 47.5222 227.303 47.4761 227.235 47.445C227.167 47.4139 227.092 47.3985 227.017 47.4Z" fill="#EBE8FE"></path><path d="M189.517 52.8999H169.817C169.662 52.9114 169.516 52.9784 169.406 53.0885C169.296 53.1986 169.229 53.3446 169.217 53.4999V55.6999C169.229 55.8552 169.296 56.0012 169.406 56.1113C169.516 56.2214 169.662 56.2883 169.817 56.2999H189.517C189.673 56.2883 189.819 56.2214 189.929 56.1113C190.039 56.0012 190.106 55.8552 190.117 55.6999V53.4999C190.12 53.4204 190.107 53.3411 190.077 53.267C190.048 53.193 190.004 53.1257 189.948 53.0694C189.892 53.0131 189.824 52.969 189.75 52.9399C189.676 52.9107 189.597 52.8971 189.517 52.8999Z" fill="#EBE8FE"></path><path d="M260.117 62.6H137.417V132.5H260.017V62.6H260.117Z" fill="#F2F5FF"></path><path d="M137.417 124.3C137.417 124.3 151.017 104.6 172.317 117C181.517 122.2 186.917 126.9 193.217 116.1C199.517 105.3 212.817 66.1999 260.117 92.3999V133.2H137.417V124.3Z" fill="#B7D1F9"></path><path d="M220.917 142.2H149.917C149.762 142.212 149.616 142.278 149.506 142.389C149.396 142.499 149.329 142.645 149.317 142.8V145C149.329 145.155 149.396 145.301 149.506 145.411C149.616 145.521 149.762 145.588 149.917 145.6H220.917C221.073 145.588 221.219 145.521 221.329 145.411C221.439 145.301 221.506 145.155 221.517 145V142.8C221.617 142.5 221.317 142.2 220.917 142.2Z" fill="#B7D1F9"></path><path d="M174.617 147.7H149.917C149.762 147.711 149.616 147.778 149.506 147.889C149.396 147.999 149.329 148.145 149.317 148.3V150.5C149.329 150.655 149.396 150.801 149.506 150.911C149.616 151.021 149.762 151.088 149.917 151.1H174.617C174.773 151.088 174.919 151.021 175.029 150.911C175.139 150.801 175.206 150.655 175.217 150.5V148.3C175.22 148.22 175.207 148.141 175.177 148.067C175.148 147.993 175.104 147.926 175.048 147.869C174.992 147.813 174.924 147.769 174.85 147.74C174.776 147.711 174.697 147.697 174.617 147.7Z" fill="#B7D1F9"></path><path d="M157.017 156.6C156.49 156.59 155.97 156.729 155.517 157C155.108 157.29 154.767 157.665 154.517 158.1C154.247 157.53 153.787 157.071 153.217 156.8C152.656 156.537 152.023 156.467 151.417 156.6C150.837 156.738 150.313 157.053 149.917 157.5C149.53 157.982 149.318 158.582 149.317 159.2C149.317 162 154.517 166.2 154.517 166.2C154.517 166.2 159.717 162.1 159.717 159.2C159.709 158.486 159.422 157.804 158.917 157.3C158.378 156.865 157.71 156.619 157.017 156.6Z" fill="#CA3C21"></path><path d="M176.217 163.5C176.705 162.821 177.014 162.03 177.117 161.2C177.215 160.387 177.112 159.563 176.817 158.8C176.566 158.006 176.078 157.308 175.417 156.8C174.801 156.269 174.088 155.861 173.317 155.6C172.531 155.417 171.717 155.383 170.917 155.5C170.098 155.66 169.337 156.04 168.717 156.6C168.111 157.141 167.603 157.784 167.217 158.5C166.891 159.256 166.754 160.079 166.817 160.9C166.957 162.092 167.482 163.206 168.312 164.072C169.142 164.938 170.233 165.51 171.417 165.7C172.532 165.817 173.654 165.572 174.617 165C174.717 165 174.817 164.9 174.917 164.9C174.972 164.893 175.027 164.899 175.079 164.916C175.13 164.934 175.178 164.962 175.217 165L176.417 165.6H176.517C176.531 165.6 176.544 165.597 176.556 165.592C176.568 165.587 176.579 165.58 176.588 165.571C176.597 165.561 176.605 165.55 176.61 165.538C176.615 165.526 176.617 165.513 176.617 165.5L176.717 165.4V165.3L176.217 163.9V163.6C176.117 163.7 176.217 163.6 176.217 163.5Z" stroke="#B8B5EA" stroke-miterlimit="10"></path><path d="M251.517 156.6H244.917C244.863 156.591 244.807 156.596 244.755 156.613C244.702 156.63 244.655 156.659 244.616 156.698C244.577 156.737 244.547 156.785 244.53 156.837C244.513 156.89 244.509 156.945 244.517 157V166.3C244.517 166.4 244.517 166.4 244.617 166.5C244.717 166.6 244.717 166.6 244.817 166.6H245.017C245.117 166.6 245.117 166.6 245.217 166.5L248.017 164C248.104 163.935 248.209 163.9 248.317 163.9C248.426 163.9 248.531 163.935 248.617 164L251.417 166.5C251.517 166.5 251.517 166.6 251.617 166.6H251.817C251.917 166.6 251.917 166.5 252.017 166.5C252.117 166.5 252.117 166.4 252.117 166.3V156.9C252.117 156.873 252.107 156.848 252.088 156.829C252.069 156.81 252.044 156.8 252.017 156.8L251.917 156.7C251.617 156.6 251.617 156.6 251.517 156.6Z" fill="#B7D1F9"></path><path d="M170.017 97.3C172.608 97.3 175.141 96.5317 177.295 95.0922C179.45 93.6528 181.129 91.6068 182.12 89.2131C183.112 86.8194 183.371 84.1854 182.866 81.6443C182.36 79.1031 181.113 76.769 179.28 74.9369C177.448 73.1048 175.114 71.8572 172.573 71.3517C170.032 70.8462 167.398 71.1057 165.004 72.0972C162.611 73.0887 160.565 74.7677 159.125 76.922C157.686 79.0763 156.917 81.609 156.917 84.2C156.915 85.921 157.252 87.6257 157.909 89.2162C158.567 90.8068 159.531 92.252 160.748 93.469C161.965 94.6859 163.411 95.6508 165.001 96.3082C166.592 96.9656 168.296 97.3026 170.017 97.3Z" fill="#B7D1F9"></path><path d="M260.117 180.8H137.417V232.5H260.017V180.8H260.117Z" fill="white"></path><path d="M185.317 186.3H149.417C149.062 186.299 148.711 186.368 148.383 186.503C148.054 186.638 147.756 186.837 147.505 187.088C147.254 187.339 147.055 187.637 146.92 187.965C146.785 188.293 146.716 188.645 146.717 189V223.8C146.716 224.155 146.785 224.507 146.92 224.835C147.055 225.163 147.254 225.461 147.505 225.712C147.756 225.963 148.054 226.162 148.383 226.297C148.711 226.432 149.062 226.501 149.417 226.5H185.317C185.672 226.501 186.024 226.432 186.352 226.297C186.68 226.162 186.979 225.963 187.23 225.712C187.48 225.461 187.679 225.163 187.815 224.835C187.95 224.507 188.019 224.155 188.017 223.8V189C187.988 188.293 187.694 187.624 187.194 187.123C186.694 186.623 186.024 186.329 185.317 186.3Z" fill="#F2F5FF"></path><path d="M253.317 190.4H193.517C193.362 190.411 193.216 190.478 193.106 190.589C192.996 190.699 192.929 190.845 192.917 191V193.2C192.929 193.355 192.996 193.501 193.106 193.611C193.216 193.721 193.362 193.788 193.517 193.8H253.317C253.473 193.788 253.619 193.721 253.729 193.611C253.839 193.501 253.906 193.355 253.917 193.2V191C253.929 190.918 253.922 190.835 253.896 190.757C253.87 190.679 253.826 190.608 253.768 190.55C253.709 190.492 253.638 190.448 253.56 190.422C253.482 190.396 253.399 190.388 253.317 190.4Z" fill="#B7D1F9"></path><path d="M214.117 195.8H193.417C193.262 195.811 193.116 195.878 193.006 195.989C192.896 196.099 192.829 196.245 192.817 196.4V198.6C192.829 198.755 192.896 198.901 193.006 199.011C193.116 199.121 193.262 199.188 193.417 199.2H214.117C214.273 199.188 214.419 199.121 214.529 199.011C214.639 198.901 214.706 198.755 214.717 198.6V196.4C214.817 196.1 214.517 195.8 214.117 195.8Z" fill="#B7D1F9"></path><path d="M199.217 278.4C309.117 278.4 398.217 277.4 398.217 276.2C398.217 275 309.117 274 199.217 274C89.3174 274 0.217407 275 0.217407 276.2C0.217407 277.4 89.3174 278.4 199.217 278.4Z" fill="#0F1D40"></path><path d="M94.9174 181.3C94.9801 182.547 94.8451 183.795 94.5174 185C93.9174 186.2 88.9174 192.4 97.8174 197.9C99.4174 198.8 104.617 202 112.317 197.1C113.417 196.5 115.617 193.7 116.017 194.1C116.417 194.5 121.117 196.8 123.017 193C123.417 192.3 123.917 189.3 121.117 188.7C118.317 188.1 112.017 178.4 112.017 178.4L98.3174 173.1C97.432 172.896 96.526 172.795 95.6174 172.8C95.5174 173 94.9174 181.3 94.9174 181.3Z" fill="#EFDCB4"></path><path d="M114.017 187.4C114.017 187.4 114.517 182.5 112.317 182.5C110.117 182.5 108.817 181.4 108.617 180.9C108.417 180.4 107.617 182.6 105.517 179.4C103.717 179.7 97.6174 180.8 96.4174 173.6C95.6026 176.129 95.0989 178.749 94.9174 181.4C93.9174 179.4 90.6174 171.7 96.7174 169.5C97.5763 169.309 98.3696 168.895 99.0174 168.3C100.017 167.6 107.317 163.5 113.617 169.6C113.817 169.9 114.617 169.8 114.817 169.3C115.017 168.8 116.217 167.3 117.017 168.9C117.817 170.5 118.117 170.9 118.817 170.7C119.517 170.5 120.017 170.3 120.217 171.3C120.417 172.3 120.317 172.4 121.017 172.7C121.717 173 126.817 176.8 124.217 181.6C121.617 186.4 120.817 188.4 121.017 188.7C120.377 188.605 119.723 188.685 119.125 188.932C118.526 189.178 118.005 189.582 117.617 190.1C116.917 190.8 113.917 190.9 114.017 187.4Z" fill="#093A66"></path><path d="M91.0174 211L89.5174 218.3L93.3174 225.7L96.4174 218.5L95.5174 213.8L91.0174 211Z" fill="#D3BD94"></path><path d="M104.417 201C104.622 200.598 104.725 200.151 104.717 199.7C104.717 199.1 112.017 197.2 112.017 197.2C112.017 197.2 110.217 199.9 110.417 201C110.264 202.275 109.927 203.521 109.417 204.7L106.817 204.4L104.417 201Z" fill="#FED1A7"></path><path d="M94.6174 246.6C94.6174 246.6 95.1174 258.7 95.1174 260C95.1343 260.87 95.201 261.738 95.3174 262.6C95.3174 262.6 96.1174 267.1 97.3174 266.6C98.5174 266.1 101.817 265.1 101.917 265C102.017 264.9 105.717 255 102.817 247.1C99.9174 239.2 110.117 246.6 110.117 246.6C110.117 246.6 109.717 251.1 110.917 253.6C112.117 256.1 114.117 264.5 114.617 266C115.117 267.5 120.117 268.5 120.617 267.6C121.001 266.939 121.303 266.234 121.517 265.5C121.517 265.5 121.917 264.7 121.517 260.1C121.117 255.5 118.317 248.8 118.617 246.7C118.917 244.6 108.917 239.2 108.917 239.2L94.6174 246.6Z" fill="#EFDCB4"></path><path d="M92.8174 227.9L92.6174 244.8C92.5503 244.95 92.5152 245.113 92.5145 245.277C92.5139 245.441 92.5476 245.604 92.6135 245.755C92.6794 245.905 92.776 246.041 92.8973 246.152C93.0185 246.263 93.1616 246.347 93.3174 246.4C97.7525 248.153 102.648 248.364 107.217 247C110.317 248.2 116.717 249.9 122.117 246C122.376 245.736 122.528 245.387 122.547 245.019C122.565 244.65 122.448 244.288 122.217 244C121.626 241.66 121.159 239.29 120.817 236.9C120.617 235.8 119.817 229.6 119.817 229.6C119.817 229.6 94.2174 226 92.8174 227.9Z" fill="#DE4437"></path><path d="M112.617 201.3L111.317 200.6C111.117 200.5 111.017 200.6 110.817 200.6C110.617 200.6 110.517 200.7 110.417 200.9C109.783 201.633 108.897 202.101 107.934 202.213C106.971 202.324 106.002 202.069 105.217 201.5C104.517 200.9 104.417 200.7 103.917 201C103.417 201.3 100.617 201.8 99.6174 202.3C98.6174 202.8 96.1174 202.9 95.0174 204.5C93.9174 206.1 90.0174 211.4 90.0174 211.4L95.4174 214.6C95.4174 214.6 93.4174 217.6 93.4174 223.1C93.3174 226.7 92.1174 227 92.4174 227.5C92.7174 228 97.2174 235.7 114.517 232.2C118.417 231.2 119.517 230.3 119.517 230.3C120.264 229.755 120.787 228.958 120.989 228.057C121.191 227.155 121.059 226.211 120.617 225.4C120.617 225.4 118.117 222.2 119.117 219.2C119.859 218.623 120.473 217.898 120.92 217.072C121.368 216.246 121.639 215.336 121.717 214.4C121.917 212.7 122.417 209 122.417 209C122.417 209 121.517 204.6 118.117 203.5C116.235 202.897 114.397 202.162 112.617 201.3Z" fill="#377DFF"></path><path d="M112.917 214L111.917 215.5H111.717C111.617 215.5 111.617 215.4 111.517 215.4C111.317 215.2 105.017 211.4 102.117 210.7C102.014 209.356 101.497 208.077 100.637 207.039C99.778 206 98.6183 205.253 97.3174 204.9C96.9174 204.8 92.5174 204.1 91.7174 206.4C91.7174 206.7 91.9174 207.1 92.8174 207.2L95.1174 207.1C95.1174 207.1 95.6174 207 95.2174 207.3C94.8174 207.6 93.7174 209 94.2174 210C94.1174 210.7 93.7174 211.2 94.0174 211.9C93.9174 212.2 93.7174 213.6 94.8174 213.1C95.2174 212.8 96.0174 212 96.3174 212.9C96.6174 213.8 97.2174 215.6 100.717 215.8C102.017 217.2 107.317 222.8 107.317 222.8C108.156 223.698 109.268 224.292 110.48 224.491C111.692 224.69 112.936 224.482 114.017 223.9C116.275 222.554 118.084 220.571 119.217 218.2C118.717 217 117.317 214.3 112.917 214Z" fill="#EFDCB4"></path><path d="M92.7174 226.4H80.0174C79.8319 226.397 79.6541 226.325 79.5174 226.2C79.4256 226.153 79.3487 226.081 79.2957 225.993C79.2427 225.905 79.2155 225.803 79.2174 225.7L76.2174 207.4V207.1C76.228 207.024 76.2631 206.954 76.3174 206.9L76.5174 206.7C76.6174 206.7 76.7174 206.6 76.8174 206.6H89.5174C89.7029 206.603 89.8807 206.675 90.0174 206.8C90.1093 206.847 90.1861 206.919 90.2391 207.007C90.2922 207.095 90.3193 207.197 90.3174 207.3L93.3174 225.6V225.9C93.3068 225.976 93.2717 226.046 93.2174 226.1L93.0174 226.3C92.9779 226.338 92.9305 226.366 92.8786 226.384C92.8268 226.401 92.7717 226.407 92.7174 226.4Z" fill="#093A66"></path><path d="M76.1174 215.4C76.1174 215.4 77.2174 214.2 77.5174 215.3C77.8174 216.4 77.9174 217.2 79.2174 216.4C80.5174 215.6 81.1174 215.4 81.3174 215.7C81.4147 215.848 81.4792 216.015 81.5067 216.19C81.5341 216.364 81.5238 216.543 81.4764 216.714C81.429 216.884 81.3457 217.042 81.2321 217.178C81.1184 217.314 80.977 217.423 80.8174 217.5C79.9004 217.986 78.9262 218.356 77.9174 218.6C77.7174 218.6 77.6174 218.8 77.9174 219C78.3597 219.313 78.8925 219.473 79.4343 219.455C79.9761 219.437 80.497 219.242 80.9174 218.9C81.5174 218.4 81.9174 218.1 82.1174 218.3C82.3187 218.442 82.4605 218.653 82.5159 218.893C82.5713 219.132 82.5362 219.384 82.4174 219.6C82.6174 219.8 83.3174 220.1 82.7174 221.3C82.9831 221.585 83.1309 221.96 83.1309 222.35C83.1309 222.74 82.9831 223.115 82.7174 223.4C82.0174 224.1 79.5174 224.8 78.7174 224.3C78.0419 223.705 77.4378 223.034 76.9174 222.3C76.9174 222.3 76.2174 222.3 76.1174 220.9C75.9174 219.3 75.7174 216.2 76.1174 215.4Z" fill="#FED1A7"></path><path d="M96.3174 264C96.2174 264 96.2174 262.2 95.3174 262C94.4174 261.8 93.5174 262 93.4174 262.8C93.309 263.459 93.107 264.098 92.8174 264.7C92.8174 264.7 91.0174 264.6 90.9174 265.6C90.1174 265.6 88.4174 265.8 88.3174 266.9C87.3174 267 84.9174 267.3 84.8174 270.3C84.7174 272.1 85.0174 272.7 85.5174 273V274.2C86.482 274.834 87.5843 275.229 88.7324 275.351C89.8806 275.472 91.0412 275.318 92.1174 274.9C95.6174 273.4 96.6174 272.8 97.7174 272.8H100.017C100.017 272.8 102.217 272.7 102.217 271.8V270.2C102.217 270.2 103.517 267.4 102.517 266.1C102.384 265.973 102.3 265.802 102.282 265.618C102.263 265.435 102.312 265.251 102.417 265.1C102.517 265 103.317 263.3 102.617 262.2C102.317 263.4 101.417 266.4 96.3174 264Z" fill="#093A66"></path><path d="M115.317 265.9C115.217 265.9 115.217 264.1 114.317 263.9C113.417 263.7 112.517 263.9 112.417 264.7C112.263 265.347 112.063 265.982 111.817 266.6C111.817 266.6 110.017 266.5 109.917 267.5C109.117 267.5 107.417 267.7 107.317 268.8C106.317 268.9 103.917 269.2 103.817 272.2C103.717 274 104.017 274.6 104.517 274.9V276.1C105.482 276.734 106.584 277.129 107.732 277.251C108.881 277.373 110.041 277.218 111.117 276.8C114.617 275.3 115.617 274.7 116.717 274.7H119.017C119.017 274.7 121.217 274.6 121.217 273.7V272.1C121.217 272.1 122.517 269.3 121.517 268C121.384 267.873 121.3 267.702 121.282 267.519C121.263 267.335 121.312 267.151 121.417 267C121.517 266.9 122.317 265.2 121.617 264.1C121.317 265.3 120.417 268.3 115.317 265.9Z" fill="#093A66"></path><path d="M107.417 188.1C107.448 187.966 107.447 187.827 107.416 187.694C107.385 187.56 107.323 187.436 107.236 187.33C107.15 187.224 107.04 187.139 106.915 187.082C106.79 187.024 106.654 186.996 106.517 187C105.917 187 105.417 187.3 105.417 187.9C105.417 188.5 105.717 189 106.317 189C106.449 189.014 106.582 189.001 106.708 188.963C106.835 188.926 106.953 188.863 107.055 188.779C107.157 188.696 107.242 188.593 107.304 188.476C107.366 188.359 107.405 188.231 107.417 188.1Z" fill="#093A66"></path><path d="M97.5174 187.2C97.7109 187.153 97.886 187.048 98.02 186.901C98.154 186.754 98.2409 186.569 98.2695 186.372C98.2981 186.175 98.2671 185.974 98.1806 185.794C98.094 185.615 97.9558 185.465 97.7837 185.365C97.6116 185.264 97.4134 185.218 97.2145 185.231C97.0157 185.244 96.8253 185.316 96.6677 185.438C96.5101 185.56 96.3926 185.726 96.3302 185.915C96.2678 186.105 96.2633 186.308 96.3174 186.5C96.3877 186.749 96.5521 186.962 96.776 187.092C96.9998 187.223 97.2656 187.261 97.5174 187.2Z" fill="#093A66"></path><path d="M109.917 186C109.707 185.375 109.326 184.821 108.817 184.4C108.301 183.976 107.679 183.699 107.017 183.6" stroke="#093A66" stroke-width="0.75" stroke-miterlimit="10" stroke-linecap="round"></path><path d="M98.9174 182.1C98.3873 181.796 97.7905 181.629 97.1799 181.611C96.5693 181.594 95.9639 181.727 95.4174 182" stroke="#093A66" stroke-width="0.75" stroke-miterlimit="10" stroke-linecap="round"></path><path d="M100.017 186.1C100.017 186.1 97.6174 190.5 97.4174 191.2C97.2174 191.9 97.1174 192.8 98.4174 192.5C99.7174 192.2 101.117 191.7 101.117 191.7" stroke="#093A66" stroke-width="0.75" stroke-miterlimit="10" stroke-linecap="round"></path><path d="M98.4174 194.9C98.4174 194.9 100.217 196.7 102.317 196" stroke="#093A66" stroke-width="0.75" stroke-miterlimit="10" stroke-linecap="round"></path><path d="M281.517 266.8L281.617 268.2C281.617 268.2 281.617 268.9 281.417 269.1C280.771 269.473 280.104 269.807 279.417 270.1C279.417 270.1 276.317 276.7 281.017 275.7C283.829 275.118 286.344 273.559 288.117 271.3L288.417 270.5C288.417 270.5 288.417 268.3 288.517 267.2C288.617 266.1 281.517 266.8 281.517 266.8Z" fill="#EFDCB4"></path><path d="M269.017 275.5L278.717 269.3C278.717 269.3 280.917 268.1 281.517 270.9C281.634 271.661 281.7 272.43 281.717 273.2C282.286 272.505 283.004 271.946 283.817 271.566C284.631 271.185 285.519 270.991 286.417 271C287.417 271 288.217 271 288.417 270C288.717 270.9 289.717 272.2 289.217 274.3C288.994 275.323 288.827 276.358 288.717 277.4L283.517 277.6C283.517 277.6 282.917 276.1 282.517 277.6L270.417 277.5C270.317 277.5 266.617 277.6 269.017 275.5Z" fill="#377DFF"></path><path d="M318.417 266.8L318.517 268.2C318.517 268.2 318.517 268.9 318.317 269.1C317.671 269.473 317.004 269.807 316.317 270.1C316.317 270.1 313.217 276.7 317.917 275.7C320.729 275.118 323.244 273.559 325.017 271.3L325.317 270.5C325.317 270.5 325.317 268.3 325.417 267.2C325.517 266.1 318.417 266.8 318.417 266.8Z" fill="#EFDCB4"></path><path d="M305.917 275.5L315.617 269.3C315.617 269.3 317.817 268.1 318.417 270.9C318.534 271.661 318.6 272.43 318.617 273.2C319.186 272.505 319.904 271.946 320.717 271.566C321.531 271.185 322.419 270.991 323.317 271C324.317 271 325.117 271 325.317 270C325.617 270.9 326.617 272.2 326.117 274.3C325.894 275.323 325.727 276.358 325.617 277.4L320.417 277.6C320.417 277.6 319.817 276.1 319.417 277.6L307.317 277.5C307.217 277.5 303.517 277.6 305.917 275.5Z" fill="#377DFF"></path><path d="M286.417 186.9L281.117 225.4C281.117 225.4 281.317 231.3 281.117 236C280.917 240.7 279.917 267.6 279.917 267.6H290.017C290.017 267.6 296.517 233.8 297.117 230.6C297.717 227.4 300.617 215.5 300.617 215.5C300.617 215.5 301.017 214.6 301.317 216.3C301.617 218 302.717 225.9 302.717 225.9C302.717 225.9 303.317 232.9 305.117 236.6C306.917 240.3 317.517 267.6 317.517 267.6H326.917C326.917 267.6 319.917 233.3 319.417 230.5C318.917 227.7 318.617 188.4 318.617 188.4L314.317 182.5L307.917 176.3C307.617 176.2 286.017 177.3 286.417 186.9Z" fill="#377DFF"></path><path d="M310.717 131.1C310.717 131.1 309.617 131.6 309.517 130.1C309.466 128.457 309.6 126.813 309.917 125.2C310.117 124.5 299.517 128.4 299.517 128.4L299.717 131.4C298.644 132.708 297.167 133.622 295.517 134C292.917 134.5 292.317 143.2 294.717 144.7C297.117 146.2 307.317 145.6 307.317 145.6L310.717 131.1Z" fill="#FED1A7"></path><path d="M322.017 134.2L311.217 131.1C311.217 131.1 310.817 130.5 309.617 132.3C308.417 134.1 303.917 139.4 301.517 139.6C300.114 139.118 298.892 138.217 298.015 137.019C297.139 135.821 296.651 134.384 296.617 132.9C290.017 133.7 287.117 134 287.117 134C287.117 134 285.717 134.2 284.517 137.2C283.317 140.2 277.817 151.7 277.817 151.7L279.317 162.3L283.617 164.3L287.917 156.3L285.217 186.7C285.217 186.7 309.217 191.5 319.017 187.4C319.017 187.4 318.817 181.8 319.017 177.6C319.217 173.4 319.817 165 320.717 164.8C321.617 164.6 330.717 165.1 330.617 160.4C330.517 155.7 326.217 136.2 326.217 136.2C326.217 136.2 323.417 134.2 322.017 134.2Z" fill="#DE4437"></path><path d="M304.517 141.4L297.217 131.2C297.217 131.2 296.817 129.3 294.017 129.2C291.217 129.1 285.817 128.6 285.817 128.6C285.766 128.898 285.779 129.204 285.854 129.497C285.93 129.79 286.066 130.063 286.255 130.3C286.444 130.536 286.681 130.729 286.951 130.867C287.22 131.005 287.515 131.085 287.817 131.1C290.217 131.5 292.117 131.7 292.117 131.7C292.117 131.7 292.817 131.7 292.417 132.2C292.135 132.486 291.834 132.753 291.517 133C291.431 133.132 291.377 133.282 291.36 133.438C291.342 133.594 291.362 133.753 291.417 133.9C291.617 134.2 291.817 134.4 292.017 134.7C292.017 134.7 292.117 135 291.417 134.8C290.717 134.6 289.717 134.2 289.217 134.9C288.717 135.6 289.717 137 290.417 137.3C291.626 137.737 292.796 138.272 293.917 138.9C294.492 139.86 295.373 140.599 296.417 141C297.117 141.3 297.617 141.7 297.717 142.1C297.817 142.5 299.917 146.3 299.917 146.3L304.517 141.4Z" fill="#EFDCB4"></path><path d="M302.917 142.2L297.217 131.2C297.217 131.2 296.817 129.3 294.017 129.2C291.217 129.1 285.817 128.6 285.817 128.6C285.766 128.898 285.779 129.204 285.854 129.497C285.93 129.79 286.066 130.063 286.255 130.3C286.444 130.536 286.681 130.729 286.951 130.867C287.22 131.005 287.515 131.085 287.817 131.1C290.217 131.5 292.117 131.7 292.117 131.7C292.117 131.7 292.817 131.7 292.417 132.2C292.135 132.486 291.834 132.753 291.517 133C291.431 133.132 291.377 133.282 291.36 133.438C291.342 133.594 291.362 133.753 291.417 133.9C291.617 134.2 291.817 134.4 292.017 134.7C292.017 134.7 292.117 135 291.417 134.8C290.717 134.6 289.717 134.2 289.217 134.9C288.717 135.6 289.717 137 290.417 137.3C291.626 137.737 292.796 138.272 293.917 138.9C294.492 139.86 295.373 140.599 296.417 141C297.117 141.3 297.617 141.7 297.717 142.1C297.817 142.5 299.817 146 299.817 146L302.917 142.2Z" fill="#EFDCB4"></path><path d="M296.017 137.6C295.917 137.1 295.217 137.4 295.217 137.4L292.617 138.8L293.017 139.6L297.017 141.2C296.76 139.98 296.426 138.778 296.017 137.6Z" fill="#C9AF81"></path><path d="M296.417 132.3L299.017 134.5L299.417 134.7C299.417 134.7 296.517 132 296.217 131.5C295.917 131 294.817 131.5 294.817 131.5L292.117 134.6L292.517 135.4C292.517 135.4 294.017 133.3 294.817 132.4C295.817 131.5 296.417 132.3 296.417 132.3Z" fill="#C9AF81"></path><path d="M295.517 130.3L298.317 132.8C298.401 132.48 298.417 132.146 298.365 131.819C298.314 131.492 298.195 131.179 298.017 130.9C297.517 129.6 294.917 129.2 294.917 129.2L292.317 132.2L290.817 133.5L291.117 134.2L291.817 133.5C291.817 133.5 294.217 130.8 294.517 130.4C294.655 130.286 294.824 130.215 295.002 130.197C295.18 130.18 295.36 130.215 295.517 130.3Z" fill="#C9AF81"></path><path d="M297.317 135.6C297.617 135.9 297.717 136.1 298.117 135.7C298.117 135.7 296.517 133.4 295.117 134.6C293.717 135.8 291.817 137.9 291.817 137.9L292.117 138.2L295.317 134.9C295.682 134.793 296.071 134.803 296.43 134.929C296.788 135.054 297.099 135.289 297.317 135.6Z" fill="#C9AF81"></path><path d="M291.517 111.2C291.738 112.074 291.632 112.999 291.217 113.8C290.517 114.9 290.017 116.7 291.917 119.1C292.111 119.298 292.264 119.533 292.367 119.79C292.47 120.048 292.521 120.323 292.517 120.6C292.517 121.4 292.417 130.3 301.817 128.5C305.317 127.8 310.517 127.5 312.217 120.4C315.117 114.6 313.817 109.5 313.517 107.5C313.217 105.5 310.117 100.1 307.917 100.3C305.717 100.5 292.617 103.6 292.617 103.6L291.517 111.2Z" fill="#EFDCB4"></path><path d="M303.417 140.2L328.217 154.7C329.092 155.522 329.604 156.658 329.642 157.859C329.679 159.059 329.239 160.224 328.417 161.1C326.717 162.8 324.417 164.6 322.317 163C320.217 161.4 299.217 146.1 298.917 144.7C298.617 143.3 298.917 139.3 298.917 139.3L303.417 140.2Z" fill="#EFDCB4"></path><path d="M287.417 119.4H277.217C277.062 119.411 276.916 119.478 276.806 119.589C276.696 119.699 276.629 119.845 276.617 120V137.4C276.629 137.555 276.696 137.701 276.806 137.811C276.916 137.921 277.062 137.988 277.217 138H287.417C287.573 137.988 287.719 137.921 287.829 137.811C287.939 137.701 288.006 137.555 288.017 137.4V120C288.029 119.918 288.022 119.835 287.996 119.757C287.97 119.679 287.926 119.608 287.868 119.55C287.809 119.492 287.738 119.448 287.66 119.422C287.582 119.396 287.499 119.388 287.417 119.4Z" fill="#093A66"></path><path d="M286.417 127C285.471 127.704 284.377 128.183 283.217 128.4C284.873 128.841 286.48 129.444 288.017 130.2C287.517 130.7 287.317 131.6 284.417 130.7C287.117 134 287.617 134.8 287.617 134.8C287.617 134.8 287.017 136 285.717 134.8C284.417 133.6 284.217 132.8 283.217 132.7C282.217 132.6 281.517 132.6 281.517 132.6C281.349 132.686 281.205 132.814 281.1 132.972C280.995 133.129 280.932 133.311 280.917 133.5C280.717 134.2 279.817 136.4 278.317 136.8C278.017 137 277.317 137.1 277.917 138C277.917 140.2 281.917 162.8 281.917 162.8C281.917 162.8 282.317 166.8 278.517 167.1C277.817 167.1 273.617 167.5 273.617 163.7L272.617 138C272.617 138 272.317 134.3 272.917 133.7C273.517 133.1 276.417 128.6 277.017 128.3C277.617 128 278.417 126.3 278.617 125.9C278.817 125.5 278.717 125.4 279.617 125.4C281.099 125.488 282.569 125.102 283.817 124.3C284.317 124.1 285.717 123.7 285.117 124.9C284.857 125.291 284.687 125.735 284.617 126.2L285.717 125.6L286.417 125.3C286.417 125.3 287.617 126.3 286.517 127.1" fill="#EFDCB4"></path><path d="M315.117 99.5C313.917 99.3 312.117 98.2 303.817 90.7C290.317 80.3 280.917 91.5 284.317 99.6C284.82 101.035 285.732 102.292 286.94 103.216C288.148 104.14 289.6 104.691 291.117 104.8C290.367 107.404 290.507 110.185 291.517 112.7L292.117 117.8V121.8C292.817 129.3 300.317 128.9 300.317 128.9C300.786 128.917 301.256 128.883 301.717 128.8H302.117C303.717 128.5 308.917 127.4 311.117 123.5L313.417 119.3C324.317 105.3 316.317 99.7 315.117 99.5ZM313.317 113.8C313.631 114.379 313.77 115.038 313.717 115.695C313.664 116.351 313.421 116.979 313.017 117.5C312.57 117.985 311.996 118.335 311.36 118.512C310.724 118.689 310.051 118.684 309.417 118.5L309.517 117.9L310.417 113.5C310.612 113.298 310.851 113.142 311.115 113.046C311.379 112.949 311.661 112.914 311.941 112.943C312.22 112.972 312.489 113.064 312.728 113.213C312.966 113.361 313.168 113.562 313.317 113.8ZM299.717 121C298.86 120.953 298.002 121.079 297.194 121.371C296.387 121.664 295.646 122.115 295.017 122.7C293.117 121.4 293.017 118.8 292.917 118.1C292.431 115.428 292.197 112.716 292.217 110V108.9C292.217 108.3 292.317 106.6 292.517 104.9C295.917 104.9 299.617 103.5 302.617 102.3C308.417 99.9 309.817 104.6 309.817 104.6C311.217 106.5 310.417 108.5 310.217 109.5C309.98 110.551 309.846 111.623 309.817 112.7V113.8C309.851 115.583 309.248 117.32 308.117 118.7C307.207 120.364 305.858 121.748 304.217 122.7C304.217 122.7 302.917 121 299.717 121Z" fill="#093A66"></path><path d="M304.717 113C304.919 112.999 305.116 112.937 305.282 112.822C305.448 112.707 305.575 112.545 305.647 112.356C305.719 112.167 305.732 111.961 305.684 111.765C305.637 111.569 305.531 111.392 305.381 111.257C305.231 111.122 305.044 111.035 304.844 111.009C304.644 110.982 304.44 111.017 304.26 111.108C304.08 111.199 303.932 111.343 303.835 111.52C303.738 111.697 303.697 111.899 303.717 112.1C303.754 112.343 303.874 112.565 304.056 112.729C304.239 112.893 304.472 112.989 304.717 113Z" fill="#093A66"></path><path d="M296.417 112.6C296.586 112.531 296.73 112.413 296.831 112.262C296.933 112.111 296.987 111.933 296.988 111.751C296.988 111.569 296.935 111.391 296.834 111.24C296.733 111.088 296.59 110.97 296.422 110.9C296.254 110.83 296.069 110.811 295.89 110.846C295.711 110.881 295.547 110.969 295.418 111.097C295.289 111.226 295.202 111.39 295.166 111.568C295.13 111.747 295.148 111.932 295.217 112.1C295.255 112.218 295.317 112.327 295.401 112.418C295.484 112.509 295.587 112.581 295.701 112.629C295.815 112.677 295.939 112.699 296.062 112.694C296.186 112.689 296.307 112.657 296.417 112.6Z" fill="#093A66"></path><path d="M307.617 109.8C307.318 109.251 306.867 108.799 306.317 108.5C305.816 108.17 305.214 108.028 304.617 108.1" stroke="#093A66" stroke-width="0.75" stroke-miterlimit="10" stroke-linecap="round"></path><path d="M297.017 107.7C296.479 107.48 295.893 107.401 295.315 107.471C294.738 107.541 294.188 107.757 293.717 108.1" stroke="#093A66" stroke-width="0.75" stroke-miterlimit="10" stroke-linecap="round"></path><path d="M298.617 111.3C298.617 111.3 297.017 115.7 296.917 116.3C296.817 116.9 296.917 117.8 298.017 117.3L300.417 116.2" stroke="#093A66" stroke-width="0.75" stroke-miterlimit="10" stroke-linecap="round"></path><path d="M199.717 262.5C202.031 262.5 204.294 261.814 206.218 260.528C208.142 259.243 209.641 257.415 210.527 255.277C211.412 253.139 211.644 250.787 211.193 248.517C210.741 246.248 209.627 244.163 207.991 242.527C206.354 240.891 204.27 239.776 202 239.325C199.73 238.873 197.378 239.105 195.24 239.991C193.102 240.876 191.275 242.376 189.989 244.3C188.704 246.224 188.017 248.486 188.017 250.8C188.003 252.341 188.295 253.869 188.878 255.295C189.461 256.721 190.322 258.016 191.412 259.106C192.501 260.195 193.797 261.057 195.223 261.639C196.649 262.222 198.177 262.515 199.717 262.5Z" fill="#377DFF"></path><path d="M203.917 247.8H201.717L201.417 247C201.417 246.9 201.317 246.8 201.217 246.7C201.178 246.662 201.13 246.634 201.079 246.616C201.027 246.599 200.972 246.593 200.917 246.6H198.617C198.563 246.593 198.508 246.599 198.456 246.616C198.404 246.634 198.357 246.662 198.317 246.7C198.217 246.8 198.117 246.9 198.117 247L197.817 247.8H195.617C195.54 247.801 195.464 247.82 195.395 247.855C195.326 247.889 195.265 247.939 195.217 248C195.112 248.11 195.042 248.25 195.017 248.4V254.5C195.019 254.577 195.038 254.653 195.072 254.723C195.107 254.792 195.156 254.852 195.217 254.9C195.328 255.005 195.467 255.075 195.617 255.1H204.117C204.195 255.098 204.271 255.08 204.34 255.045C204.409 255.011 204.47 254.961 204.517 254.9C204.623 254.79 204.692 254.65 204.717 254.5V248.4C204.716 248.323 204.697 248.247 204.663 248.177C204.628 248.108 204.578 248.048 204.517 248C204.351 247.859 204.136 247.787 203.917 247.8ZM196.117 249.5C196.017 249.5 196.017 249.5 195.917 249.4C195.863 249.346 195.828 249.276 195.817 249.2C195.817 249.1 195.817 249.1 195.917 249C195.971 248.946 196.042 248.911 196.117 248.9H196.817C196.917 248.9 196.917 248.9 197.017 249C197.072 249.054 197.107 249.124 197.117 249.2C197.117 249.3 197.117 249.3 197.017 249.4C196.963 249.454 196.893 249.489 196.817 249.5H196.117ZM199.717 253.8C199.099 253.799 198.499 253.587 198.017 253.2C197.533 252.794 197.213 252.225 197.117 251.6C197.012 250.983 197.118 250.349 197.417 249.8C197.558 249.516 197.755 249.264 197.995 249.058C198.236 248.851 198.515 248.696 198.817 248.6C199.39 248.368 200.023 248.333 200.617 248.5C201.213 248.714 201.734 249.096 202.117 249.6C202.304 249.857 202.435 250.149 202.504 250.458C202.573 250.768 202.577 251.089 202.517 251.4C202.44 252.038 202.159 252.634 201.717 253.1C201.468 253.367 201.16 253.572 200.817 253.7C200.456 253.779 200.087 253.812 199.717 253.8Z" fill="white"></path><path d="M197.617 251.1C197.622 251.518 197.724 251.929 197.917 252.3C198.143 252.64 198.453 252.916 198.817 253.1L199.117 252.6C198.911 252.525 198.736 252.384 198.617 252.2C198.517 252 198.317 251.8 198.317 251.6C198.236 251.411 198.202 251.205 198.217 251C198.238 250.787 198.306 250.582 198.417 250.4C198.517 250.2 198.717 250.1 198.917 249.9C199.1 249.789 199.305 249.721 199.517 249.7H200.117L200.717 250L201.017 249.5C200.704 249.235 200.323 249.062 199.917 249C199.507 248.968 199.095 249.037 198.717 249.2C198.333 249.352 198.014 249.636 197.817 250C197.694 250.354 197.626 250.725 197.617 251.1Z" fill="white"></path><path d="M163.717 197.8C161.39 197.821 159.164 198.755 157.518 200.4C155.872 202.046 154.938 204.272 154.917 206.6C154.938 208.927 155.872 211.154 157.518 212.799C159.164 214.445 161.39 215.379 163.717 215.4H170.817C171.977 215.404 173.129 215.201 174.217 214.8C175.31 214.383 176.299 213.735 177.117 212.9C177.95 212.059 178.628 211.077 179.117 210C179.579 208.926 179.817 207.769 179.817 206.6C179.817 205.431 179.579 204.274 179.117 203.2C178.664 202.102 177.982 201.114 177.117 200.3C176.292 199.478 175.307 198.832 174.224 198.402C173.141 197.973 171.982 197.768 170.817 197.8H163.717ZM172.617 209.3C172.628 209.501 172.598 209.702 172.529 209.891C172.46 210.08 172.354 210.253 172.217 210.4C171.948 210.692 171.601 210.9 171.217 211C170.806 211.082 170.38 211.011 170.017 210.8C169.653 210.603 169.37 210.285 169.217 209.9C169.036 209.526 169 209.098 169.117 208.7C169.256 208.309 169.498 207.964 169.817 207.7C170.184 207.496 170.598 207.392 171.017 207.4C171.435 207.417 171.83 207.597 172.117 207.9C172.284 208.075 172.42 208.278 172.517 208.5C172.589 208.76 172.623 209.03 172.617 209.3ZM172.617 205.8C172.417 205.81 172.216 205.78 172.027 205.712C171.838 205.643 171.665 205.537 171.517 205.4C171.226 205.131 171.017 204.784 170.917 204.4C170.836 203.989 170.907 203.562 171.117 203.2C171.314 202.836 171.633 202.552 172.017 202.4C172.391 202.219 172.819 202.183 173.217 202.3C173.608 202.439 173.954 202.68 174.217 203C174.421 203.367 174.525 203.78 174.517 204.2C174.5 204.618 174.321 205.012 174.017 205.3C173.842 205.467 173.639 205.602 173.417 205.7C173.158 205.777 172.888 205.81 172.617 205.8ZM162.017 203.1C162.134 203.097 162.25 203.122 162.355 203.175C162.46 203.227 162.55 203.304 162.617 203.4C162.705 203.475 162.777 203.566 162.828 203.669C162.88 203.773 162.91 203.885 162.917 204V205.8H164.717C164.834 205.797 164.95 205.822 165.055 205.875C165.16 205.927 165.25 206.004 165.317 206.1C165.405 206.175 165.477 206.266 165.528 206.369C165.58 206.473 165.61 206.585 165.617 206.7C165.621 206.817 165.595 206.933 165.543 207.038C165.49 207.142 165.413 207.232 165.317 207.3C165.243 207.388 165.151 207.459 165.048 207.511C164.945 207.562 164.832 207.593 164.717 207.6H162.917V209.4C162.921 209.517 162.895 209.633 162.843 209.738C162.79 209.842 162.713 209.932 162.617 210C162.543 210.088 162.451 210.159 162.348 210.211C162.245 210.262 162.132 210.293 162.017 210.3C161.9 210.303 161.784 210.278 161.68 210.225C161.575 210.173 161.485 210.096 161.417 210C161.33 209.925 161.258 209.833 161.206 209.73C161.155 209.627 161.125 209.515 161.117 209.4V207.6H159.317C159.2 207.603 159.084 207.578 158.98 207.525C158.875 207.473 158.785 207.396 158.717 207.3C158.63 207.225 158.558 207.133 158.506 207.03C158.455 206.927 158.425 206.815 158.417 206.7C158.414 206.583 158.44 206.467 158.492 206.362C158.544 206.258 158.622 206.167 158.717 206.1C158.792 206.012 158.884 205.941 158.987 205.889C159.09 205.837 159.202 205.807 159.317 205.8H161.117V204C161.114 203.883 161.14 203.767 161.192 203.662C161.244 203.558 161.322 203.467 161.417 203.4C161.476 203.296 161.565 203.212 161.672 203.158C161.778 203.105 161.899 203.084 162.017 203.1Z" fill="#B7D1F9"></path></svg>