<svg xmlns="http://www.w3.org/2000/svg" width="341" height="292" viewBox="0 0 341 292" fill="none"><path d="M321.897 53.324C321.897 53.324 315.802 52.7293 312.605 55.4798C309.409 58.2303 306.807 60.9065 306.732 64.326C306.658 67.6712 310.821 71.6855 309.409 73.3952C307.996 75.105 310.152 82.8361 318.404 83.2078C326.655 83.5795 330.446 82.3158 332.528 80.0856C334.609 77.8555 340.11 76.7404 340.11 73.0979C340.11 69.4553 335.055 63.0623 335.427 60.2374C335.65 57.3382 328.29 53.993 321.897 53.324Z" fill="#F2F4FA"></path><path d="M219.27 5.85565C219.27 5.85565 215.65 0.940909 211.5 0.373824C207.349 -0.193261 203.488 -0.382289 200.93 1.79154C198.372 3.96536 198.082 9.58895 195.862 9.63621C193.642 9.68347 189.25 16.2995 194.414 22.6792C199.579 29.0116 203.053 30.9964 206.142 31.0909C209.231 31.1854 213.72 34.5407 216.471 32.1306C219.222 29.7205 220.766 21.8758 223.083 20.2691C225.399 18.6151 223.034 10.9594 219.27 5.85565Z" fill="#F2F4FA"></path><path d="M38.7034 228.842C38.7034 228.842 34.5355 224.689 30.4326 225.019C26.395 225.348 22.6829 225.941 20.5338 228.644C18.3847 231.347 18.9708 236.949 16.8217 237.543C14.6726 238.07 11.4815 245.584 17.3427 250.792C23.2039 255.999 26.8508 257.185 29.7814 256.658C32.7771 256.065 37.5312 258.438 39.8105 255.472C42.0898 252.505 42.4155 244.398 44.3692 242.288C46.4532 240.245 43.0667 233.126 38.7034 228.842Z" fill="#F2F4FA"></path><path d="M278.41 150.186C278.41 150.186 282.945 106.996 262.354 84.6944C241.762 62.3931 221.171 43.66 195.748 43.3627C170.325 42.991 140.442 72.1313 127.508 62.0957C114.573 52.0602 56.4421 67.4481 53.4687 125.431C50.4952 183.415 60.0846 210.102 77.1076 224.895C94.1306 239.688 102.308 278.27 129.961 278.121C157.614 277.972 205.932 242.811 227.193 244.892C248.453 247.048 273.876 194.937 278.41 150.186Z" fill="#F2F4FA"></path><path d="M34.365 119.038C34.365 119.038 39.42 113.983 39.1227 109.003C38.8253 104.022 38.0819 99.4875 34.8854 96.8113C31.6889 94.1352 24.8498 94.7299 24.1807 92.128C23.586 89.5262 14.5168 85.4376 8.12373 92.5741C1.73066 99.7105 0.169574 104.096 0.838615 107.739C1.50766 111.382 -1.46586 117.18 2.10236 120.005C5.67058 122.83 15.4832 123.35 18.0107 125.803C20.5382 128.331 29.1614 124.316 34.365 119.038Z" fill="#F2F4FA"></path><path d="M72.3502 32.8068C72.3502 32.8068 74.283 34.7396 76.2158 34.6653C78.1485 34.5909 79.9326 34.2936 80.9734 33.0298C82.0141 31.7661 81.7911 29.0899 82.7575 28.8669C83.7982 28.6439 85.3593 25.15 82.6088 22.6225C79.8583 20.1694 78.1485 19.5747 76.7361 19.7977C75.3237 20.0207 73.0935 18.9056 71.9785 20.318C70.8634 21.7305 70.6404 25.5217 69.7483 26.4881C68.8563 27.4545 70.2687 30.7997 72.3502 32.8068Z" fill="#F2F4FA"></path><path d="M171.961 268.16L128.994 261.321C120 259.908 113.756 251.359 115.168 242.29L130.184 147.881C131.596 138.887 140.145 132.642 149.214 134.055L192.18 140.894C201.175 142.306 207.419 150.855 206.007 159.924L190.991 254.333C189.579 263.402 181.03 269.572 171.961 268.16Z" fill="#26364A"></path><path d="M186.148 256.042L202.074 156.05L135.267 145.409L119.341 245.401L186.148 256.042Z" fill="#DE4437"></path><path d="M169.508 144.833C169.359 145.874 168.393 146.543 167.352 146.395C166.311 146.246 165.642 145.279 165.791 144.239C165.939 143.198 166.906 142.529 167.947 142.678C168.987 142.826 169.656 143.793 169.508 144.833Z" fill="#525E6E"></path><path d="M173.373 145.428C173.299 146.023 172.704 146.469 172.035 146.395C171.44 146.32 170.994 145.726 171.069 145.057C171.143 144.462 171.738 144.016 172.407 144.09C173.076 144.164 173.448 144.759 173.373 145.428Z" fill="#525E6E"></path><path d="M155.83 262.436L146.166 260.874C143.713 260.503 142.003 258.124 142.449 255.671C142.821 253.218 145.2 251.508 147.653 251.954L157.317 253.515C159.77 253.887 161.48 256.266 161.034 258.719C160.588 261.097 158.283 262.807 155.83 262.436Z" stroke="#525E6E" stroke-width="1.48676" stroke-miterlimit="10"></path><path d="M183.306 203.274C184.867 190.809 176.029 179.438 163.564 177.877C151.099 176.315 139.728 185.154 138.167 197.619C136.605 210.084 145.444 221.455 157.909 223.016C170.374 224.578 181.744 215.739 183.306 203.274Z" fill="white"></path><path d="M149.065 244.966C148.991 245.635 148.322 246.081 147.653 246.007C146.984 245.933 146.538 245.264 146.612 244.595C146.686 243.926 147.355 243.48 148.024 243.554C148.768 243.703 149.214 244.297 149.065 244.966Z" fill="white"></path><path d="M154.715 245.858C154.641 246.528 153.972 246.974 153.302 246.899C152.633 246.825 152.187 246.156 152.262 245.487C152.336 244.818 153.005 244.372 153.674 244.446C154.418 244.595 154.864 245.189 154.715 245.858Z" fill="white"></path><path d="M160.364 246.751C160.29 247.42 159.621 247.866 158.952 247.791C158.283 247.717 157.837 247.048 157.911 246.379C157.985 245.71 158.655 245.264 159.324 245.338C160.067 245.487 160.513 246.156 160.364 246.751Z" fill="white"></path><path d="M169.913 224.923C183.446 219.857 190.31 204.778 185.243 191.244C180.177 177.71 165.098 170.846 151.565 175.913C138.031 180.98 131.167 196.058 136.234 209.592C141.3 223.126 156.379 229.99 169.913 224.923Z" stroke="white" stroke-miterlimit="10"></path><path d="M189.712 211.256C195.681 195.254 187.549 177.444 171.547 171.475C155.546 165.506 137.736 173.638 131.767 189.64C125.798 205.641 133.93 223.452 149.932 229.421C165.933 235.39 183.743 227.257 189.712 211.256Z" stroke="white" stroke-miterlimit="10"></path><path d="M151.214 195.54C151.248 194.813 150.997 194.204 150.463 193.711C149.928 193.219 149.225 192.9 148.353 192.756C147.716 192.651 147.141 192.662 146.629 192.789C146.122 192.917 145.705 193.139 145.378 193.456C145.056 193.773 144.857 194.161 144.782 194.62C144.718 195.005 144.755 195.35 144.892 195.657C145.034 195.96 145.236 196.226 145.496 196.457C145.757 196.683 146.037 196.881 146.336 197.051C146.636 197.216 146.914 197.356 147.17 197.47L148.566 198.105C148.925 198.266 149.32 198.471 149.75 198.72C150.185 198.97 150.589 199.28 150.961 199.649C151.339 200.015 151.627 200.453 151.827 200.962C152.027 201.472 152.071 202.064 151.959 202.738C151.831 203.516 151.511 204.185 150.999 204.746C150.493 205.307 149.82 205.708 148.981 205.95C148.147 206.192 147.177 206.222 146.071 206.039C145.04 205.869 144.175 205.555 143.476 205.098C142.781 204.641 142.267 204.08 141.934 203.413C141.606 202.748 141.479 202.017 141.553 201.22L143.353 201.518C143.31 202.069 143.418 202.549 143.678 202.958C143.943 203.363 144.307 203.692 144.77 203.947C145.239 204.198 145.759 204.371 146.331 204.465C146.996 204.575 147.612 204.566 148.177 204.438C148.742 204.305 149.212 204.07 149.586 203.732C149.96 203.39 150.191 202.956 150.277 202.432C150.356 201.954 150.287 201.543 150.07 201.199C149.852 200.855 149.541 200.553 149.136 200.293C148.731 200.034 148.288 199.792 147.805 199.568L146.117 198.769C145.046 198.26 144.232 197.651 143.676 196.943C143.119 196.235 142.921 195.396 143.081 194.426C143.214 193.62 143.548 192.953 144.083 192.426C144.623 191.894 145.291 191.523 146.086 191.313C146.887 191.099 147.747 191.067 148.665 191.219C149.593 191.373 150.39 191.675 151.057 192.127C151.724 192.574 152.221 193.119 152.548 193.76C152.88 194.402 152.998 195.088 152.901 195.818L151.214 195.54Z" fill="#1E2022"></path><path d="M167.513 201.931C167.262 203.449 166.771 204.715 166.04 205.731C165.309 206.746 164.416 207.474 163.362 207.916C162.307 208.358 161.165 208.477 159.938 208.274C158.71 208.071 157.668 207.591 156.811 206.833C155.955 206.075 155.344 205.098 154.978 203.902C154.613 202.705 154.556 201.348 154.807 199.83C155.058 198.312 155.548 197.045 156.279 196.03C157.01 195.015 157.903 194.287 158.958 193.845C160.013 193.403 161.155 193.284 162.382 193.487C163.61 193.69 164.652 194.17 165.509 194.928C166.365 195.686 166.976 196.663 167.342 197.859C167.707 199.056 167.764 200.413 167.513 201.931ZM165.827 201.652C166.033 200.406 165.998 199.319 165.723 198.393C165.452 197.467 165 196.726 164.365 196.168C163.735 195.612 162.984 195.261 162.113 195.117C161.241 194.973 160.415 195.063 159.635 195.387C158.859 195.711 158.192 196.267 157.633 197.056C157.079 197.845 156.699 198.863 156.493 200.109C156.287 201.355 156.32 202.441 156.59 203.367C156.865 204.293 157.318 205.035 157.948 205.591C158.583 206.149 159.336 206.499 160.207 206.644C161.079 206.788 161.902 206.698 162.678 206.373C163.458 206.05 164.125 205.493 164.679 204.704C165.238 203.916 165.621 202.898 165.827 201.652Z" fill="#1E2022"></path><path d="M178.91 200.118C178.944 199.392 178.693 198.783 178.159 198.29C177.624 197.797 176.921 197.479 176.049 197.335C175.412 197.229 174.837 197.24 174.325 197.367C173.818 197.495 173.401 197.718 173.074 198.034C172.752 198.352 172.553 198.74 172.478 199.199C172.414 199.583 172.451 199.929 172.588 200.235C172.73 200.538 172.932 200.805 173.192 201.036C173.453 201.262 173.733 201.46 174.032 201.629C174.332 201.795 174.61 201.934 174.866 202.049L176.262 202.684C176.621 202.844 177.016 203.049 177.446 203.298C177.881 203.549 178.285 203.858 178.657 204.228C179.035 204.594 179.323 205.031 179.523 205.541C179.723 206.05 179.767 206.642 179.655 207.317C179.527 208.095 179.207 208.764 178.695 209.324C178.189 209.886 177.516 210.287 176.677 210.529C175.843 210.771 174.873 210.801 173.767 210.618C172.736 210.448 171.871 210.134 171.172 209.676C170.477 209.22 169.963 208.658 169.631 207.992C169.302 207.326 169.175 206.595 169.249 205.799L171.049 206.096C171.006 206.648 171.114 207.128 171.374 207.536C171.639 207.941 172.003 208.271 172.466 208.526C172.935 208.777 173.455 208.949 174.027 209.044C174.692 209.154 175.308 209.145 175.873 209.017C176.438 208.884 176.908 208.649 177.282 208.311C177.656 207.969 177.887 207.535 177.973 207.01C178.052 206.532 177.983 206.121 177.766 205.777C177.548 205.433 177.237 205.132 176.832 204.872C176.427 204.613 175.984 204.371 175.501 204.147L173.813 203.348C172.742 202.839 171.928 202.23 171.372 201.522C170.815 200.814 170.617 199.975 170.777 199.005C170.91 198.199 171.244 197.532 171.779 197.004C172.319 196.473 172.987 196.102 173.782 195.891C174.583 195.677 175.443 195.646 176.361 195.798C177.289 195.951 178.086 196.254 178.753 196.706C179.42 197.153 179.917 197.697 180.244 198.339C180.576 198.981 180.694 199.667 180.597 200.397L178.91 200.118Z" fill="#1E2022"></path><path d="M107.511 143.57C106.322 138.961 106.47 133.906 107.957 129.297C109.37 124.614 111.897 120.228 115.54 116.808C117.249 115.024 119.331 113.612 121.412 112.348L123.048 111.53C123.345 111.382 123.568 111.233 123.866 111.084L124.683 110.713C125.278 110.49 125.798 110.267 126.393 110.044L128.177 109.523C128.772 109.3 129.367 109.226 129.961 109.077C130.556 108.929 131.151 108.854 131.745 108.706C132.935 108.631 134.124 108.408 135.388 108.482C135.983 108.482 136.577 108.482 137.172 108.482C137.767 108.557 138.361 108.631 138.956 108.706C139.254 108.78 139.551 108.78 139.848 108.854L140.74 109.003C141.335 109.152 141.93 109.226 142.45 109.375L140.666 109.449H139.774C139.477 109.449 139.179 109.523 138.882 109.523C138.287 109.598 137.692 109.598 137.172 109.672C136.577 109.746 136.057 109.821 135.462 109.969C134.347 110.118 133.232 110.415 132.117 110.713L130.482 111.233C129.961 111.382 129.367 111.53 128.846 111.828C126.69 112.645 124.683 113.686 122.825 114.876L121.412 115.842L120.743 116.288C120.52 116.437 120.297 116.66 120.074 116.808L118.736 117.849L117.547 119.038L116.952 119.633L116.357 120.228L115.242 121.492L114.202 122.83L113.681 123.499C113.533 123.722 113.384 123.945 113.235 124.168L112.343 125.58C112.046 126.026 111.823 126.547 111.525 127.067C110.931 128.033 110.559 129.074 110.113 130.115C108.403 134.203 107.586 138.812 107.511 143.57Z" fill="#BA746A"></path><path d="M122.601 141.414C121.412 138.961 121.189 136.062 121.858 133.237C122.527 130.486 124.088 127.885 126.244 125.952C127.285 124.985 128.549 124.168 129.812 123.573C130.11 123.424 130.481 123.276 130.779 123.201C131.076 123.053 131.448 122.978 131.819 122.83L132.86 122.532L133.901 122.384C136.726 122.012 139.625 122.607 141.929 123.945C139.253 123.722 136.726 123.87 134.421 124.614C133.232 124.911 132.191 125.506 131.076 126.026C130.556 126.323 130.035 126.621 129.589 126.992C129.366 127.141 129.069 127.29 128.846 127.513L128.177 128.108C126.393 129.669 125.055 131.676 124.014 133.906C123.122 136.21 122.601 138.664 122.601 141.414Z" fill="#BA746A"></path><path d="M203.703 264.368C204.669 267.045 204.669 270.018 203.926 272.843C203.182 275.668 201.621 278.344 199.466 280.425C198.425 281.466 197.161 282.358 195.897 283.102C195.228 283.399 194.559 283.771 193.89 284.068C193.519 284.217 193.221 284.365 192.849 284.44L191.809 284.737C188.984 285.48 185.936 285.332 183.334 284.365C186.159 284.142 188.761 283.622 191.065 282.581C192.255 282.135 193.37 281.466 194.411 280.797C194.931 280.425 195.451 280.128 195.897 279.682L196.641 279.087L197.31 278.418C199.168 276.709 200.581 274.553 201.621 272.248C202.811 269.721 203.405 267.193 203.703 264.368Z" fill="#AF5D52"></path><path d="M194.931 265.632C195.897 266.97 196.12 268.829 195.823 270.538C195.526 272.248 194.559 273.884 193.221 275.073C192.552 275.668 191.809 276.188 190.991 276.485C190.173 276.783 189.281 277.08 188.464 277.154C186.754 277.303 184.97 276.783 183.706 275.742C185.341 275.593 186.754 275.37 188.018 274.85C189.281 274.404 190.396 273.661 191.288 272.843C192.255 272.025 192.998 270.984 193.667 269.795C194.188 268.606 194.634 267.268 194.931 265.632Z" fill="#AF5D52"></path><path d="M77.9253 177.616L49.3058 186.314C46.7784 187.057 44.1023 185.645 43.2846 183.117L37.0404 162.6C36.297 160.073 37.7094 157.397 40.2368 156.579L68.8563 147.881C71.3837 147.138 74.0598 148.55 74.8775 151.078L81.1218 171.595C81.8651 174.122 80.4527 176.799 77.9253 177.616Z" fill="#B7D2F9"></path><path d="M60.8285 172.71L38.1554 159.701L38.5271 159.032L60.4568 171.595L71.7562 148.996L72.4252 149.294L60.8285 172.71Z" fill="white"></path><path d="M55.0267 168.913L45.2441 185.668L45.9503 186.081L55.7329 169.325L55.0267 168.913Z" fill="white"></path><path d="M63.5835 166.31L63.2245 167.045L80.6573 175.562L81.0163 174.828L63.5835 166.31Z" fill="white"></path><path d="M332.23 290.833H15.7802V291.65H332.23V290.833Z" fill="#093A66"></path><path d="M128.177 61.2038C133.227 61.2038 137.321 56.5443 137.321 50.7965C137.321 45.0487 133.227 40.3892 128.177 40.3892C123.127 40.3892 119.033 45.0487 119.033 50.7965C119.033 56.5443 123.127 61.2038 128.177 61.2038Z" fill="white"></path><path d="M127.954 34.8882C119.033 34.8882 111.748 42.1733 111.748 51.0939C111.748 53.3983 112.269 55.6285 113.161 57.6356C113.384 58.0816 113.532 58.4533 113.755 58.8994L127.954 87.5938L142.153 58.8994C143.416 56.5949 144.16 53.9187 144.16 51.0939C144.085 42.099 136.875 34.8882 127.954 34.8882ZM127.954 57.7099C123.865 57.7099 120.595 54.4391 120.595 50.3505C120.595 46.2619 123.865 42.991 127.954 42.991C132.043 42.991 135.313 46.2619 135.313 50.3505C135.313 54.4391 131.968 57.7099 127.954 57.7099Z" fill="#B7D2F9"></path><path d="M271.2 98.5215C268.375 98.5958 265.848 94.5815 265.55 94.1355C265.327 93.8382 265.327 93.4665 265.55 93.1691C265.773 92.8718 266.071 92.6488 266.368 92.6488L275.809 92.5001C276.181 92.5001 276.478 92.7231 276.627 93.0204C276.775 93.3178 276.85 93.6895 276.627 93.9868C276.478 94.4329 274.099 98.5215 271.2 98.5215ZM279.006 67.8199C275.735 67.8942 272.984 65.218 272.984 61.9472C272.91 58.6763 275.586 55.9258 278.857 55.9258C282.128 55.9258 284.878 58.5276 284.878 61.7985C284.878 65.0694 282.276 67.7455 279.006 67.8199ZM287.777 84.2486L285.919 81.3494C285.473 80.606 284.953 79.1936 284.878 78.3015L283.912 68.1172C282.574 69.158 280.864 69.827 279.006 69.9013C274.62 69.9757 270.977 66.4075 270.903 62.0215C270.903 59.494 272.092 57.1895 273.876 55.7028C273.802 55.7028 273.802 55.6284 273.802 55.6284C273.282 54.0673 271.943 53.0266 270.308 53.0266C268.673 53.0266 267.334 54.1417 266.888 55.7028C261.462 57.6356 257.522 62.6162 257.15 68.3402L256.481 78.6732C256.407 79.5653 255.961 81.052 255.515 81.7954L253.731 84.7689C252.764 86.4044 252.616 87.9655 253.359 89.2292C254.102 90.493 255.515 91.162 257.448 91.0877L270.903 90.8646L284.358 90.6416C286.216 90.6416 287.703 89.8983 288.372 88.6345C289.041 87.3708 288.818 85.8097 287.777 84.2486Z" fill="#B7D2F9"></path><path d="M299.67 191.963C299.67 192.781 299.001 193.525 298.109 193.525H272.017C271.571 193.525 271.125 193.748 270.902 194.045L262.8 203.263V195.086C262.8 194.268 262.131 193.525 261.239 193.525H258.191C257.373 193.525 256.63 192.855 256.63 191.963V164.31C256.63 163.492 257.299 162.749 258.191 162.749H298.109C298.927 162.749 299.67 163.418 299.67 164.31V191.963ZM298.109 159.701C300.637 159.701 302.718 161.782 302.718 164.31V191.963C302.718 194.491 300.637 196.572 298.109 196.572H272.686L262.354 208.318C262.056 208.615 261.685 208.838 261.239 208.838C260.421 208.838 259.677 208.169 259.677 207.277V196.572H258.116C255.589 196.572 253.508 194.491 253.508 191.963V164.31C253.508 161.782 255.589 159.701 258.116 159.701H298.109ZM295.062 167.358H261.239C260.421 167.358 259.677 168.027 259.677 168.919C259.677 169.811 260.347 170.48 261.239 170.48H295.062C295.879 170.48 296.623 169.811 296.623 168.919C296.623 168.027 295.879 167.358 295.062 167.358ZM295.062 175.089H261.239C260.421 175.089 259.677 175.758 259.677 176.65C259.677 177.542 260.347 178.211 261.239 178.211H295.062C295.879 178.211 296.623 177.542 296.623 176.65C296.623 175.758 295.879 175.089 295.062 175.089ZM278.187 182.746H261.313C260.495 182.746 259.752 183.415 259.752 184.307C259.752 185.124 260.421 185.868 261.313 185.868H278.187C279.005 185.868 279.748 185.199 279.748 184.307C279.674 183.415 279.005 182.746 278.187 182.746Z" fill="#B7D2F9" stroke="white" stroke-width="0.74338" stroke-miterlimit="10"></path></svg>