<svg xmlns="http://www.w3.org/2000/svg" width="436" height="272" viewBox="0 0 436 272" fill="none"><path d="M78.1329 192.127H38.6728C28.4162 192.127 18.5796 196.202 11.327 203.454C4.07445 210.707 0 220.544 0 230.801C0 241.058 4.07445 250.895 11.327 258.148C18.5796 265.4 28.4162 269.475 38.6728 269.475H372.755C389.354 269.475 405.272 262.881 417.009 251.144C428.746 239.406 435.34 223.487 435.34 206.888C435.34 190.289 428.746 174.37 417.009 162.633C405.272 150.895 389.354 144.301 372.755 144.301C365.735 144.301 359.002 141.513 354.037 136.548C349.073 131.584 346.284 124.851 346.284 117.83C346.284 110.809 349.073 104.076 354.037 99.1119C359.002 94.1476 365.735 91.3586 372.755 91.3586H404.638C408.256 91.3586 411.839 90.6459 415.182 89.2612C418.525 87.8765 421.563 85.8469 424.121 83.2883C426.68 80.7297 428.709 77.6922 430.094 74.3492C431.479 71.0062 432.191 67.4232 432.191 63.8048C432.191 60.1863 431.479 56.6033 430.094 53.2603C428.709 49.9174 426.68 46.8798 424.121 44.3212C421.563 41.7626 418.525 39.733 415.182 38.3483C411.839 36.9636 408.256 36.2509 404.638 36.2509H364.391C361.548 36.2431 358.825 35.1105 356.815 33.1006C354.805 31.0907 353.672 28.3669 353.665 25.5245C353.696 22.6868 354.824 19.9712 356.814 17.9472C358.828 15.9438 361.55 14.8128 364.391 14.7982H371.476C373.433 14.7982 375.31 14.0206 376.695 12.6365C378.079 11.2524 378.856 9.37512 378.856 7.41769C378.856 5.46026 378.079 3.583 376.695 2.19888C375.31 0.814769 373.433 0.0371822 371.476 0.0371822H324.832C314.992 0.0371822 313.909 11.6492 289.112 11.6492H231.643C230.377 11.6368 229.121 11.8836 227.954 12.3744C226.786 12.8651 225.731 13.5895 224.854 14.503C223.046 16.3027 222.021 18.7424 222 21.293C221.988 22.5596 222.234 23.8153 222.725 24.983C223.216 26.1507 223.94 27.2057 224.854 28.0831C226.653 29.8907 229.093 30.9161 231.643 30.9369H240.893C242.728 30.9272 244.545 31.2883 246.236 31.9985C247.927 32.7088 249.457 33.7535 250.734 35.07C252.035 36.3585 253.07 37.8907 253.779 39.5792C254.488 41.2677 254.858 43.0793 254.867 44.9107C254.877 46.7448 254.516 48.562 253.805 50.2531C253.095 51.9441 252.05 53.4742 250.734 54.7513C249.445 56.0527 247.913 57.0875 246.225 57.7967C244.536 58.5058 242.725 58.8755 240.893 58.8844H213.045C175.356 58.8844 170.042 68.7251 163.449 88.308C156.856 107.891 122.612 109.465 122.612 109.465H75.7712C70.1862 109.465 64.8299 111.684 60.8806 115.634C56.9314 119.583 54.7127 124.939 54.7127 130.525C54.7127 136.11 56.9314 141.466 60.8806 145.416C64.8299 149.365 70.1862 151.584 75.7712 151.584H78.2313C83.6076 151.597 88.7585 153.745 92.5509 157.556C96.3433 161.367 98.4665 166.528 98.4534 171.905C98.4404 177.281 96.2921 182.432 92.4813 186.224C88.6705 190.017 83.5092 192.14 78.1329 192.127ZM392.141 14.7982C390.663 14.8144 389.218 14.367 388.008 13.5189C386.787 12.6911 385.831 11.5296 385.252 10.1731C384.685 8.83767 384.547 7.35874 384.859 5.94159C385.124 4.504 385.849 3.19156 386.925 2.20213C387.944 1.16386 389.244 0.445626 390.665 0.135588C392.084 -0.135149 393.551 0.00131892 394.896 0.529216C396.256 1.10012 397.418 2.05674 398.24 3.28092C399.062 4.5051 399.507 5.94323 399.521 7.41769C399.518 9.37432 398.74 11.2501 397.357 12.6336C395.973 14.0172 394.097 14.7956 392.141 14.7982Z" fill="#F2F5FF"></path><path d="M311.056 114.287H358.782V70.1028H311.056V114.287Z" fill="white"></path><path d="M259.295 114.287H307.021V70.1028H259.295V114.287Z" fill="white"></path><path d="M311.056 161.621H358.782V117.535H311.056V161.621Z" fill="white"></path><path d="M259.295 161.621H307.021V117.535H259.295V161.621Z" fill="white"></path><path d="M329.26 68.1346C329.26 68.1346 336.542 112.811 356.421 156.996C356.421 156.996 342.053 201.377 339.199 271.442L362.915 271.934V68.1346H329.26Z" fill="#C1CBE5"></path><path d="M292.064 68.1346C292.064 68.1346 284.782 112.811 264.904 156.996C264.904 156.996 279.272 201.377 282.125 271.442L258.409 271.934V68.1346H292.064Z" fill="#C1CBE5"></path><path d="M204.779 72.1693H200.253C200.154 72.1693 200.056 72.1693 200.056 72.2677C200.056 72.3661 199.957 72.3661 199.957 72.4645L191.888 86.143V86.3398C191.888 86.4382 191.888 86.4382 191.986 86.5367C192.085 86.6351 192.085 86.6351 192.183 86.6351C192.282 86.6351 192.282 86.7335 192.38 86.7335H200.253C200.351 86.7335 200.449 86.7335 200.449 86.6351C200.449 86.5367 200.548 86.5367 200.548 86.4382L205.271 72.7597V72.5629C205.271 72.4645 205.271 72.4645 205.173 72.3661C205.075 72.2677 205.075 72.2677 204.976 72.2677C204.878 72.2677 204.878 72.1693 204.779 72.1693Z" fill="#C1CBE5"></path><path d="M196.021 66.757H219.835L223.083 86.8319H199.269L196.021 66.757Z" fill="#C1CBE5"></path><path d="M196.808 66.757H220.623L223.87 86.8319H200.056L196.808 66.757Z" fill="#377DFF"></path><path d="M198.973 68.5283H219.048L221.705 84.8638H201.63L198.973 68.5283Z" fill="#377DFF"></path><path d="M202.319 71.6772H216.686L218.261 81.7147H203.992L202.319 71.6772Z" fill="white"></path><path d="M240.992 79.8451C241.016 81.0658 240.673 82.2656 240.008 83.2893C239.323 84.3026 238.414 85.1444 237.351 85.7495C237.338 85.7495 237.325 85.752 237.313 85.757C237.302 85.7619 237.291 85.7692 237.282 85.7783C237.272 85.7874 237.265 85.7983 237.26 85.8102C237.255 85.8222 237.253 85.835 237.253 85.8479C236.341 86.3183 235.326 86.555 234.301 86.5367C233.306 86.5545 232.324 86.3174 231.447 85.8479C230.573 85.4276 229.801 84.8233 229.183 84.0766C229.062 83.9644 228.962 83.831 228.888 83.683C228.058 82.5381 227.611 81.1607 227.609 79.7467C227.599 78.1581 228.16 76.6188 229.19 75.4089C230.219 74.1989 231.648 73.3986 233.218 73.1535C233.271 73.1599 233.326 73.1544 233.377 73.1374C233.428 73.1204 233.474 73.0923 233.513 73.0551H234.301C235.901 73.0566 237.444 73.6528 238.63 74.728C239.829 75.8115 240.626 77.2678 240.894 78.861C240.879 78.9997 240.914 79.1392 240.992 79.2547V79.8451Z" fill="#08CF7A"></path><path d="M233.12 80.2387C232.496 81.2858 231.697 82.2178 230.758 82.9941C230.295 83.4125 229.762 83.7456 229.183 83.9782C229.062 83.866 228.962 83.7326 228.888 83.5845C229.707 83.2083 230.443 82.6731 231.053 82.01C231.946 81.1265 232.679 80.0942 233.218 78.9594C233.809 77.7376 234.015 76.3648 233.808 75.0232C233.716 74.4339 233.516 73.8668 233.218 73.3503C233.208 73.2757 233.173 73.2065 233.12 73.1535C233.173 73.1599 233.227 73.1544 233.278 73.1374C233.329 73.1204 233.376 73.0923 233.415 73.0551C233.513 73.1535 233.513 73.3503 233.612 73.4487C234.144 74.5212 234.379 75.7167 234.292 76.9108C234.205 78.1049 233.801 79.2541 233.12 80.2387Z" fill="white"></path><path d="M240.992 79.2546C240.686 79.4298 240.419 79.6639 240.205 79.9434C238.62 81.4862 237.643 83.5465 237.449 85.7494C237.423 85.7494 237.398 85.7598 237.38 85.7782C237.361 85.7967 237.351 85.8217 237.351 85.8478C237.435 83.5516 238.384 81.3721 240.008 79.7466C240.303 79.4514 240.697 79.1562 240.992 78.861V79.2546Z" fill="white"></path><path d="M237.154 103.266H241.582V92.4412H237.154V103.266Z" fill="#C1CBE5"></path><path d="M234.3 94.6061H244.535V91.5555H234.3V94.6061Z" fill="#C1CBE5"></path><path d="M192.971 103.266H197.399V92.4412H192.971V103.266Z" fill="#C1CBE5"></path><path d="M190.018 94.6061H200.253V91.5555H190.018V94.6061Z" fill="#C1CBE5"></path><path d="M182.441 92.0476H252.112V86.2416H182.441V92.0476Z" fill="#C1CBE5"></path><path d="M83.6435 267.999H81.577L81.2817 258.945H86.4973L83.6435 267.999Z" fill="#C1CBE5"></path><path d="M121.824 267.999H123.891L124.186 258.945H118.97L121.824 267.999Z" fill="#C1CBE5"></path><path d="M126.843 171.462H78.6248V260.028H126.843V171.462Z" fill="#C1CBE5"></path><path d="M122.809 178.153H82.7579V195.571H122.809V178.153Z" fill="white"></path><path d="M102.734 189.47C103.259 189.47 103.773 189.314 104.21 189.022C104.647 188.73 104.988 188.316 105.189 187.83C105.39 187.345 105.442 186.81 105.34 186.295C105.237 185.779 104.984 185.306 104.613 184.934C104.241 184.563 103.768 184.31 103.252 184.207C102.737 184.105 102.203 184.157 101.717 184.359C101.232 184.56 100.817 184.9 100.525 185.337C100.233 185.774 100.077 186.288 100.077 186.813C100.076 187.163 100.143 187.509 100.277 187.832C100.41 188.154 100.605 188.448 100.852 188.695C101.099 188.942 101.393 189.138 101.716 189.271C102.039 189.404 102.385 189.472 102.734 189.47Z" fill="#C1CBE5"></path><path d="M122.809 197.441H82.7579V214.761H122.809V197.441Z" fill="white"></path><path d="M102.734 208.758C103.259 208.758 103.773 208.602 104.21 208.31C104.647 208.018 104.988 207.603 105.189 207.118C105.39 206.632 105.442 206.098 105.34 205.583C105.237 205.067 104.984 204.594 104.613 204.222C104.241 203.851 103.768 203.598 103.252 203.495C102.737 203.393 102.203 203.445 101.717 203.646C101.232 203.847 100.817 204.188 100.525 204.625C100.233 205.062 100.077 205.575 100.077 206.101C100.076 206.45 100.143 206.796 100.277 207.119C100.41 207.442 100.605 207.736 100.852 207.983C101.099 208.23 101.393 208.425 101.716 208.558C102.039 208.691 102.385 208.759 102.734 208.758Z" fill="#C1CBE5"></path><path d="M122.809 216.63H82.7579V234.048H122.809V216.63Z" fill="white"></path><path d="M102.734 228.046C103.259 228.046 103.773 227.89 104.21 227.598C104.647 227.306 104.988 226.891 105.189 226.405C105.39 225.92 105.442 225.386 105.34 224.87C105.237 224.355 104.984 223.881 104.613 223.51C104.241 223.138 103.768 222.885 103.252 222.783C102.737 222.68 102.203 222.733 101.717 222.934C101.232 223.135 100.817 223.476 100.525 223.913C100.233 224.349 100.077 224.863 100.077 225.389C100.076 225.738 100.143 226.084 100.277 226.407C100.41 226.73 100.605 227.023 100.852 227.27C101.099 227.517 101.393 227.713 101.716 227.846C102.039 227.979 102.385 228.047 102.734 228.046Z" fill="#C1CBE5"></path><path d="M122.809 235.918H82.7579V253.336H122.809V235.918Z" fill="white"></path><path d="M102.734 247.333C103.259 247.333 103.773 247.178 104.21 246.886C104.647 246.594 104.988 246.179 105.189 245.693C105.39 245.208 105.442 244.673 105.34 244.158C105.237 243.643 104.984 243.169 104.613 242.798C104.241 242.426 103.768 242.173 103.252 242.07C102.737 241.968 102.203 242.021 101.717 242.222C101.232 242.423 100.817 242.763 100.525 243.2C100.233 243.637 100.077 244.151 100.077 244.676C100.076 245.026 100.143 245.372 100.277 245.695C100.41 246.018 100.605 246.311 100.852 246.558C101.099 246.805 101.393 247.001 101.716 247.134C102.039 247.267 102.385 247.335 102.734 247.333Z" fill="#C1CBE5"></path><path d="M128.319 169.986H77.2471V173.332H128.319V169.986Z" fill="#C1CBE5"></path><path d="M217.67 271.738C328.867 271.738 419.103 270.754 419.103 269.475C419.103 268.196 328.965 267.212 217.67 267.212C106.375 267.212 16.2366 268.196 16.2366 269.475C16.2366 270.754 106.375 271.738 217.67 271.738Z" fill="#0F1D40"></path><path d="M379.25 216.729C385.646 213.285 387.319 220.764 384.761 226.865C382.202 232.966 369.508 253.73 368.819 261.897C368.524 265.046 367.933 264.751 367.441 262.488C364.981 251.368 370.393 221.452 379.25 216.729Z" fill="#2566CE"></path><path d="M365.67 188.584C358.29 181.991 353.665 191.241 354.944 200.196C356.223 209.151 366.359 240.74 364.489 251.761C363.8 256.091 364.686 255.796 366.064 253.041C373.149 239.067 375.806 197.638 365.67 188.584Z" fill="#08CF7A"></path><path d="M364.391 254.812C364.587 255.206 364.883 255.009 365.375 254.32C373.05 228.734 361.143 190.553 361.045 190.454C361.04 190.404 361.018 190.356 360.982 190.32C360.946 190.284 360.899 190.262 360.848 190.257C360.75 190.257 360.651 190.159 360.553 190.257C360.502 190.262 360.455 190.284 360.419 190.32C360.383 190.356 360.36 190.404 360.356 190.454C360.334 190.472 360.315 190.494 360.303 190.52C360.29 190.545 360.284 190.573 360.284 190.602C360.284 190.63 360.29 190.658 360.303 190.684C360.315 190.71 360.334 190.732 360.356 190.75C360.356 190.848 372.46 229.522 364.391 254.812Z" fill="#1B7154"></path><path d="M349.63 209.84C342.545 206.691 341.364 214.761 344.513 221.157C347.662 227.554 363.112 248.514 364.489 257.174C364.982 260.52 365.67 260.126 365.966 257.666C367.737 245.562 359.372 214.072 349.63 209.84Z" fill="#00C7B1"></path><path d="M365.178 259.437C365.375 259.732 365.572 259.437 365.769 258.847C365.08 237.886 346.678 212.399 346.678 212.399C346.678 212.399 346.579 212.301 346.481 212.301C346.383 212.301 346.284 212.301 346.284 212.399C346.284 212.497 346.186 212.497 346.186 212.596C346.186 212.694 346.186 212.793 346.284 212.793C346.186 212.793 364.785 238.575 365.178 259.437Z" fill="white"></path><path d="M359.667 254.812H373.346L376.888 258.06L373.936 269.278H358.978L356.026 258.06L359.667 254.812Z" fill="#3B405F"></path><path d="M356.026 250.581H376.889C377.034 250.565 377.182 250.583 377.32 250.632C377.459 250.681 377.584 250.76 377.688 250.864C377.792 250.967 377.871 251.093 377.92 251.231C377.969 251.37 377.986 251.517 377.971 251.663V256.78C377.986 256.926 377.969 257.074 377.92 257.212C377.871 257.351 377.792 257.476 377.688 257.58C377.584 257.684 377.459 257.763 377.32 257.812C377.182 257.861 377.034 257.878 376.889 257.863H356.026C355.88 257.878 355.733 257.861 355.594 257.812C355.456 257.763 355.33 257.684 355.227 257.58C355.123 257.476 355.044 257.351 354.995 257.212C354.946 257.074 354.928 256.926 354.944 256.78V251.663C354.936 251.373 355.042 251.09 355.239 250.876C355.476 250.719 355.745 250.619 356.026 250.581Z" fill="#3B405F"></path><path d="M376.888 258.06L376.298 260.421H356.617L356.026 258.06H376.888Z" fill="#101537"></path><path d="M206.944 178.547C206.944 178.547 208.322 177.366 212.652 176.972L237.155 176.874C237.155 176.874 233.809 177.169 232.628 178.35L206.944 178.547Z" fill="white"></path><path opacity="0.49" d="M206.944 178.547C206.944 178.547 208.322 177.366 212.652 176.972L237.155 176.874C237.155 176.874 233.809 177.169 232.628 178.35L206.944 178.547Z" fill="#8D4BC3"></path><path d="M201.729 180.318H237.942C237.968 180.318 237.993 180.308 238.012 180.29C238.03 180.271 238.04 180.246 238.04 180.22V179.137C238.04 179.111 238.03 179.086 238.012 179.068C237.993 179.049 237.968 179.039 237.942 179.039H201.729C201.702 179.039 201.677 179.049 201.659 179.068C201.64 179.086 201.63 179.111 201.63 179.137V180.22C201.532 180.22 201.63 180.318 201.729 180.318Z" fill="#FF473A"></path><path d="M201.729 180.318H214.226C214.252 180.318 214.277 180.308 214.296 180.29C214.314 180.271 214.325 180.246 214.325 180.22V179.137C214.325 179.111 214.314 179.086 214.296 179.068C214.277 179.049 214.252 179.039 214.226 179.039H201.729C201.702 179.039 201.677 179.049 201.659 179.068C201.64 179.086 201.63 179.111 201.63 179.137V180.22C201.532 180.22 201.63 180.318 201.729 180.318Z" fill="#8D4BC3"></path><path d="M201.729 180.318H214.226C214.252 180.318 214.277 180.308 214.296 180.29C214.314 180.271 214.325 180.246 214.325 180.22V179.137C214.325 179.111 214.314 179.086 214.296 179.068C214.277 179.049 214.252 179.039 214.226 179.039H201.729C201.702 179.039 201.677 179.049 201.659 179.068C201.64 179.086 201.63 179.111 201.63 179.137V180.22C201.532 180.22 201.63 180.318 201.729 180.318Z" fill="#FF473A"></path><g opacity="0.49"><path d="M207.633 178.842H206.944C206.918 178.842 206.893 178.853 206.874 178.871C206.856 178.889 206.846 178.914 206.846 178.941V180.22C206.846 180.246 206.856 180.271 206.874 180.289C206.893 180.308 206.918 180.318 206.944 180.318H207.633C207.659 180.318 207.684 180.308 207.702 180.289C207.721 180.271 207.731 180.246 207.731 180.22L207.633 178.842Z" fill="#8D4BC3"></path></g><path d="M202.614 178.35V178.941H237.45L236.86 178.35L237.548 178.055L236.958 177.661L237.253 177.366L213.832 177.563C213.832 177.563 208.519 177.661 207.338 178.449C205.665 177.465 202.614 178.35 202.614 178.35Z" fill="white"></path><path opacity="0.26" d="M207.338 178.35C208.519 177.661 213.439 177.563 213.832 177.465C213.832 177.563 213.734 177.661 213.734 177.76C213.736 177.836 213.754 177.911 213.788 177.979C213.822 178.047 213.871 178.107 213.931 178.153C213.822 178.333 213.754 178.535 213.734 178.744H202.614V178.35C202.614 178.35 205.665 177.465 207.338 178.35Z" fill="#8D4BC3"></path><path d="M234.104 269.77H232.135L238.729 211.021H244.141L234.104 269.77Z" fill="black"></path><path d="M299.444 269.77H301.412L294.819 211.021H289.407L299.444 269.77Z" fill="black"></path><path d="M285.766 269.77H287.734L281.141 211.021H275.729L285.766 269.77Z" fill="black"></path><path d="M247.093 269.77H245.125L251.718 211.021H257.229L247.093 269.77Z" fill="black"></path><path d="M305.546 144.302L295.213 204.428H270.907L281.239 144.302H305.546Z" fill="#004CC2"></path><g opacity="0.45"><path d="M302.594 144.302L292.261 204.428H270.907L281.239 144.302H302.594Z" fill="#004CC2"></path></g><path d="M295.212 204.428H237.941V212.497H295.212V204.428Z" fill="#004CC2"></path><g opacity="0.45"><path d="M258.508 204.428H237.941V212.497H258.508V204.428Z" fill="#004CC2"></path></g><path d="M250.734 163.196C250.734 163.196 242.173 172.839 240.894 173.331C239.614 173.823 226.92 174.02 226.92 174.02L225.838 179.039C225.838 179.039 241.681 181.794 243.551 180.712C245.42 179.629 256.639 168.805 256.639 168.805L250.734 163.196Z" fill="#EFDCB4"></path><g opacity="0.3"><path d="M250.734 163.196C250.734 163.196 242.173 172.839 240.894 173.331C239.614 173.823 226.92 174.02 226.92 174.02L225.838 179.039C225.838 179.039 241.681 181.794 243.551 180.712C245.42 179.629 256.639 168.805 256.639 168.805L250.734 163.196Z" fill="#EFDCB4"></path></g><g opacity="0.3"><path d="M248.372 172.249C249.217 170.862 249.785 169.325 250.045 167.722C250.291 166.538 250.188 165.307 249.75 164.18C250.066 163.871 250.362 163.542 250.636 163.196L256.54 168.805C256.54 168.805 245.322 179.629 243.452 180.712C242.773 181.02 242.01 181.089 241.287 180.909C241.681 181.007 242.96 178.842 243.157 178.645C244.928 176.48 246.995 174.611 248.372 172.249Z" fill="#EFDCB4"></path></g><path d="M256.343 155.815C259.492 154.733 263.527 157.488 259.689 164.672C258.705 166.443 257.721 168.214 256.737 169.69C255.598 169.393 254.55 168.818 253.686 168.018C252.003 166.805 250.424 165.455 248.963 163.983L248.667 163.688C251.128 160.342 254.769 156.406 256.343 155.815Z" fill="#377DFF"></path><path opacity="0.14" d="M251.619 166.148C252.702 163.884 253.883 161.621 255.064 159.456C255.654 158.374 256.245 157.291 256.835 156.307C256.933 156.11 257.13 155.913 257.229 155.717C260.082 155.421 262.936 158.374 259.492 164.77C258.508 166.541 257.524 168.313 256.54 169.789C255.401 169.491 254.353 168.916 253.489 168.116C252.8 167.624 252.111 167.033 251.423 166.541C251.619 166.345 251.619 166.246 251.619 166.148Z" fill="#EC3D0C"></path><path opacity="0.04" d="M250.931 167.034C251.132 166.76 251.297 166.463 251.423 166.148V166.049C251.62 166.148 251.718 166.345 251.915 166.443C252.35 166.803 252.811 167.132 253.292 167.427C253.941 167.834 254.634 168.165 255.359 168.411C255.949 168.608 256.737 168.411 256.934 169.789C256.934 170.183 256.835 170.773 256.54 170.675C256.245 170.576 256.245 170.281 256.146 170.183C256.048 170.084 255.753 170.183 255.556 170.379C255.359 170.576 254.867 170.675 254.67 170.084C254.572 169.887 254.572 169.494 254.473 169.297C254.375 169.1 254.375 169.198 254.375 169.1C254.375 169.002 254.277 169.002 254.178 169.002H253.785C253.588 169.1 253.292 169.198 253.096 169.002C252.899 168.805 252.702 168.214 252.505 167.919C252.308 167.624 251.915 167.624 251.521 167.624C251.243 167.665 250.96 167.594 250.734 167.427C250.708 167.427 250.683 167.417 250.664 167.398C250.646 167.38 250.635 167.355 250.635 167.329C250.832 167.23 250.931 167.132 250.931 167.034Z" fill="#EC3D0C"></path><path d="M253.489 167.722C253.194 162.507 254.375 156.996 256.048 156.012C257.721 155.028 260.082 154.142 264.412 154.044C268.742 153.945 273.269 155.815 274.745 157.488C276.221 159.161 278.583 161.523 279.468 173.036C279.862 178.645 280.649 185.14 279.173 186.813C276.418 189.962 263.822 191.537 257.032 187.502C258.114 176.481 253.784 172.249 253.489 167.722Z" fill="#377DFF"></path><g opacity="0.14"><path d="M270.808 189.47C271.688 188.25 272.477 186.967 273.17 185.632C275.529 180.917 277.029 175.818 277.598 170.576C277.942 168.033 278.041 165.463 277.893 162.9C278.794 166.18 279.355 169.543 279.566 172.938C279.96 178.547 280.747 185.042 279.271 186.715C277.992 188.191 274.646 189.273 270.808 189.667C270.611 189.569 270.71 189.569 270.808 189.47Z" fill="#EC3D0C"></path></g><path d="M265.003 185.042C264.102 184.358 263.363 183.484 262.838 182.483C262.149 181.204 262.051 179.236 261.854 179.039C261.46 178.449 256.146 177.76 255.654 178.449C255.162 179.137 255.162 182.779 254.965 183.566C254.877 184.745 255.08 185.928 255.556 187.01C255.851 187.305 259.886 188.683 265.003 188.486C266.184 188.486 265.298 185.435 265.003 185.042Z" fill="#8D4BC3"></path><g opacity="0.22"><path d="M254.965 183.566C255.162 182.779 255.064 179.138 255.654 178.449C255.753 178.35 255.851 178.35 255.949 178.252C255.929 178.713 255.962 179.176 256.048 179.63C256.14 180.503 256.338 181.362 256.638 182.188C257.194 184.185 258.129 186.056 259.394 187.699C259.492 187.896 259.689 187.994 259.787 188.191C258.291 188.027 256.83 187.628 255.457 187.01C255.066 185.906 254.898 184.735 254.965 183.566Z" fill="#8D4BC3"></path></g><path d="M230.856 236.705C228.79 239.166 223.082 241.232 226.133 242.118C227.806 242.61 231.053 241.429 234.497 240.248C237.253 239.362 240.5 238.674 241.091 237.689C242.468 235.623 240.303 230.112 240.303 230.112L232.628 230.998C232.529 231.096 232.923 234.245 230.856 236.705Z" fill="#EFDCB4"></path><g opacity="0.46"><path d="M226.034 241.33C226.264 241.142 226.533 241.007 226.822 240.937C227.117 240.838 227.412 240.74 227.806 240.642C227.971 240.619 228.136 240.586 228.298 240.543C228.396 240.543 228.593 240.445 228.593 240.543H228.199C228.101 240.543 227.904 240.642 227.806 240.642C227.537 240.724 227.274 240.822 227.018 240.937C226.769 241.03 226.536 241.163 226.33 241.33C226.231 241.429 226.133 241.429 226.133 241.527C226.133 241.626 226.034 241.724 225.936 241.823H225.838C225.641 241.724 225.837 241.527 226.034 241.33Z" fill="#BE6D4D"></path></g><g opacity="0.46"><path d="M224.952 240.74C225.187 240.466 225.494 240.261 225.838 240.15L226.92 239.854C227.274 239.768 227.639 239.735 228.003 239.756C228.101 239.756 228.101 239.854 228.003 239.854C227.707 239.953 227.314 239.953 227.018 240.051C226.723 240.15 226.428 240.15 226.133 240.248C225.8 240.332 225.494 240.502 225.247 240.74C225.05 240.937 224.952 241.232 224.755 241.429C224.717 241.307 224.715 241.177 224.75 241.055C224.785 240.932 224.855 240.823 224.952 240.74Z" fill="#BE6D4D"></path></g><path d="M212.061 226.963C209.109 228.144 203.008 227.258 205.271 229.423C206.55 230.703 209.896 231.195 213.439 231.883C216.293 232.375 219.442 233.36 220.426 232.769C222.591 231.588 223.378 225.782 223.378 225.782L216.194 222.928C215.406 224.768 213.919 226.219 212.061 226.963Z" fill="#EFDCB4"></path><g opacity="0.46"><path d="M205.566 228.636C205.853 228.538 206.165 228.538 206.452 228.636C206.788 228.654 207.119 228.72 207.436 228.833C207.633 228.931 207.83 228.931 207.928 229.03C208.026 229.128 208.125 229.128 208.223 229.227H208.125L207.928 229.128C207.83 229.128 207.633 229.03 207.534 229.03C207.247 228.949 206.947 228.915 206.649 228.931H205.861C205.763 228.931 205.665 229.03 205.566 229.03C205.468 229.03 205.369 229.128 205.271 229.227V229.128C205.074 228.833 205.369 228.735 205.566 228.636Z" fill="#BE6D4D"></path></g><g opacity="0.46"><path d="M204.976 227.652C205.297 227.571 205.629 227.538 205.96 227.554C206.332 227.606 206.696 227.705 207.042 227.849C207.386 227.937 207.717 228.069 208.027 228.242C208.125 228.341 208.027 228.341 207.928 228.341L207.042 228.046C206.76 227.934 206.461 227.867 206.157 227.849C205.836 227.75 205.493 227.75 205.173 227.849C204.913 227.92 204.676 228.055 204.484 228.242C204.484 227.849 204.779 227.75 204.976 227.652Z" fill="#BE6D4D"></path></g><path d="M272.678 190.454C272.678 190.454 275.04 203.641 268.348 203.838C261.657 204.034 243.649 204.92 243.649 204.92L242.173 232.376L230.758 234.639C230.758 234.639 232.234 197.441 234.989 194.784C237.744 192.127 252.505 190.651 255.949 190.749C256.244 190.749 256.048 186.912 256.54 186.912C261.165 186.813 272.678 190.454 272.678 190.454Z" fill="#DE4437"></path><g opacity="0.22"><path d="M272.678 190.454C272.678 190.454 275.04 203.641 268.348 203.838C261.657 204.034 243.649 204.92 243.649 204.92L242.173 232.376L230.758 234.639C230.758 234.639 232.234 197.441 234.989 194.784C237.744 192.127 252.505 190.651 255.949 190.749C256.244 190.749 256.048 186.912 256.54 186.912C261.165 186.813 272.678 190.454 272.678 190.454Z" fill="#DE4437"></path></g><g opacity="0.22"><path d="M237.253 220.764C235.709 222.412 233.916 223.807 231.939 224.897C231.262 225.292 230.533 225.59 229.774 225.782H229.478C229.38 225.782 229.38 225.684 229.38 225.585C229.17 225.064 229.078 224.501 229.112 223.94C229.146 223.378 229.305 222.831 229.577 222.338C230.144 221.39 230.803 220.5 231.545 219.681C232.431 218.5 233.218 217.221 234.202 216.04C235.383 214.564 236.761 213.285 237.941 211.809C238.729 210.824 239.418 209.84 240.205 208.856C240.936 207.863 241.973 207.137 243.157 206.79C243.478 206.691 243.82 206.691 244.141 206.79C245.125 207.183 244.928 208.168 244.535 208.856C243.944 209.84 243.551 210.923 243.059 211.907C242.065 213.961 240.914 215.935 239.614 217.811C238.919 218.866 238.128 219.854 237.253 220.764Z" fill="#DE4437"></path></g><path d="M255.949 168.411C255.949 168.411 255.851 162.113 257.524 158.374C259.197 154.634 260.673 154.831 260.87 154.437C260.968 154.241 259.295 154.437 257.917 155.028C257.131 155.431 256.442 156.001 255.898 156.698C255.354 157.395 254.969 158.201 254.768 159.062C254.01 161.952 253.646 164.932 253.686 167.919C253.588 168.903 255.851 169.395 255.949 168.411Z" fill="#DE4437"></path><g opacity="0.22"><path d="M254.768 158.964C255.179 157.676 255.927 156.521 256.933 155.618C256.513 156.411 256.152 157.233 255.851 158.078C255.31 159.631 255.012 161.257 254.965 162.9C254.867 164.376 254.965 165.853 254.867 167.329V169.002C254.276 168.903 253.686 168.411 253.686 167.919C253.64 164.899 254.004 161.886 254.768 158.964Z" fill="#DE4437"></path></g><path d="M264.707 168.608C264.707 168.608 265.101 162.704 267.266 159.161C269.431 155.618 271.399 155.815 271.694 155.421C271.989 155.028 269.628 154.142 268.84 154.241C268.053 154.339 265.495 156.11 264.018 159.456C262.88 162.217 262.183 165.139 261.952 168.116C261.755 169.002 264.511 169.592 264.707 168.608Z" fill="#DE4437"></path><g opacity="0.22"><path d="M264.018 159.358C264.514 158.351 265.108 157.395 265.79 156.504C265.495 157.193 265.199 157.783 264.904 158.472C264.331 159.766 263.902 161.119 263.625 162.507C263.331 164.001 263.134 165.513 263.034 167.033C262.936 167.624 262.936 168.313 262.838 168.903C262.247 168.706 261.854 168.411 261.854 167.919C262.05 167.033 262.444 162.802 264.018 159.358Z" fill="#DE4437"></path></g><path d="M279.468 186.223C279.468 186.223 282.223 202.657 273.76 204.133C266.872 205.314 245.026 206.691 245.026 206.691L223.476 230.506L212.159 224.306C212.159 224.306 233.415 201.377 236.367 198.524C239.319 195.67 256.54 192.226 260.082 192.324C256.736 191.242 256.54 190.553 256.048 188.093C254.867 181.991 252.997 169.002 253.784 167.821C254.572 166.64 265.101 167.919 266.97 168.214C268.25 168.411 270.808 184.55 273.17 185.632C275.115 186.633 277.371 186.844 279.468 186.223Z" fill="#DE4437"></path><path d="M279.468 186.223C279.468 186.223 282.223 202.657 273.76 204.133C266.872 205.314 245.026 206.691 245.026 206.691L223.476 230.506L212.159 224.306C212.159 224.306 233.415 201.377 236.367 198.524C239.319 195.67 256.54 192.226 260.082 192.324C256.736 191.242 256.54 190.553 256.048 188.093C254.867 181.991 252.997 169.002 253.784 167.821C254.572 166.64 265.101 167.919 266.97 168.214C268.25 168.411 270.808 184.55 273.17 185.632C275.115 186.633 277.371 186.844 279.468 186.223Z" fill="#DE4437"></path><g opacity="0.22"><path d="M220.819 231.391C221.901 227.258 224.558 225.881 227.412 222.633C231.151 218.303 237.056 211.415 239.909 208.856C241.96 206.89 244.514 205.528 247.29 204.92C250.34 204.133 253.489 204.034 256.638 203.444C259.787 202.853 263.133 202.165 266.478 201.771C268.245 201.676 269.995 201.379 271.694 200.885C273.928 200.038 275.874 198.57 277.303 196.654C277.893 195.867 278.385 195.079 278.877 194.292C279.173 193.8 279.468 192.422 280.157 192.324C281.928 191.93 281.141 195.375 280.944 196.063C280.353 199.409 279.566 202.952 277.106 205.412C274.941 207.479 271.989 208.364 269.037 208.955C262.686 210.232 256.166 210.431 249.75 209.545L248.274 210.726C247.388 211.415 246.404 212.104 245.42 212.793C238.532 218.107 234.3 226.57 226.822 231.096C225.638 231.852 224.343 232.416 222.984 232.769C222.3 232.253 221.576 231.793 220.819 231.391Z" fill="#8D4BC3"></path></g><g opacity="0.31"><path d="M276.024 186.124C276.122 186.124 276.122 186.124 276.122 186.026L276.221 185.928V184.943H275.827V185.928C275.827 186.026 275.827 186.026 275.925 186.026C276.024 186.026 275.925 186.124 276.024 186.124Z" fill="#8D4BC3"></path><path d="M219.245 227.947L219.146 227.849V227.652L220.13 226.373H220.524V226.766L219.54 228.046H219.343C219.441 227.947 219.343 227.947 219.245 227.947ZM221.311 225.487L221.213 225.389V225.29L222.197 224.011L222.295 223.913H222.393L222.492 224.011V224.109L221.508 225.389H221.311C221.508 225.487 221.409 225.487 221.311 225.487ZM223.378 222.929L223.279 222.83V222.633L224.263 221.354H224.657V221.748L223.673 223.027H223.476L223.378 222.929C223.476 223.027 223.378 223.027 223.378 222.929ZM225.444 220.468L225.346 220.37V220.173L226.33 218.894H226.723V219.287L225.739 220.567H225.542L225.444 220.468ZM227.51 218.008L227.412 217.91V217.713L228.396 216.434H228.79V216.827L227.806 218.107H227.609L227.51 218.008ZM229.577 215.548L229.479 215.45V215.351L230.463 214.072H230.856L230.955 214.17V214.466L229.971 215.745L229.872 215.843C229.675 215.548 229.577 215.548 229.577 215.548ZM231.545 213.088L231.447 212.989V212.891L232.431 211.612H232.824L232.923 211.71V212.005L231.939 213.285L231.84 213.383C231.643 213.088 231.643 213.088 231.545 213.088ZM233.612 210.529L233.513 210.431V210.332L234.497 209.053L234.596 208.955H234.694L234.792 209.053V209.152L233.808 210.431L233.71 210.529H233.612ZM235.678 208.069L235.58 207.971V207.872C235.973 207.38 236.268 206.987 236.564 206.593L236.662 206.495H236.76L236.859 206.593V206.691C236.564 207.085 236.268 207.479 235.875 207.971L235.776 208.069H235.678ZM237.745 205.511L237.646 205.412V205.215C238.015 204.828 238.409 204.467 238.827 204.133H239.122L239.221 204.231V204.526L239.122 204.625C238.705 204.959 238.31 205.32 237.941 205.707H237.745C237.758 205.695 237.768 205.679 237.775 205.662C237.782 205.645 237.786 205.627 237.786 205.609C237.786 205.591 237.782 205.572 237.775 205.556C237.768 205.539 237.758 205.523 237.745 205.511ZM240.205 203.542V203.247L240.303 203.149C240.795 202.854 241.189 202.657 241.681 202.362H241.976V202.755C241.976 202.854 241.976 202.755 241.877 202.755C241.387 202.958 240.924 203.223 240.5 203.542H240.401C240.303 203.641 240.303 203.641 240.205 203.542ZM243.058 202.066V201.771H243.157C243.649 201.574 244.141 201.377 244.731 201.181H244.83L244.928 201.279V201.377L244.83 201.476C244.353 201.684 243.859 201.849 243.354 201.968H243.255C243.255 202.165 243.157 202.165 243.058 202.066C243.157 202.165 243.058 202.165 243.058 202.066ZM246.109 201.082V200.885L246.207 200.787H246.306C246.821 200.621 247.347 200.49 247.88 200.393H248.077L248.175 200.492V200.787L248.077 200.885H247.979C247.446 200.982 246.92 201.113 246.404 201.279H246.207C246.197 201.204 246.162 201.135 246.109 201.082ZM249.258 200.295V200.098L249.356 200C249.871 199.855 250.398 199.756 250.931 199.705H251.127L251.226 199.803V200.098L251.127 200.197H251.029C250.496 200.248 249.97 200.347 249.455 200.492H249.356C249.258 200.393 249.258 200.393 249.258 200.295ZM252.407 199.705V199.606L252.505 199.508L254.08 199.212H254.178L254.276 199.311V199.409L254.178 199.508L252.604 199.803H252.505C252.492 199.803 252.479 199.8 252.467 199.795C252.456 199.791 252.445 199.783 252.436 199.774C252.426 199.765 252.419 199.754 252.414 199.742C252.409 199.73 252.407 199.717 252.407 199.705ZM255.654 199.212V199.114L255.752 199.016L257.327 198.72H257.425L257.524 198.819V198.917L257.425 199.016L255.851 199.311H255.752C255.74 199.311 255.727 199.308 255.715 199.303C255.703 199.298 255.692 199.291 255.683 199.282C255.674 199.273 255.667 199.262 255.662 199.25C255.657 199.238 255.654 199.225 255.654 199.212ZM258.803 198.622V198.425L258.901 198.327H259L260.574 198.032H260.673L260.771 198.13V198.228L260.673 198.327L259.098 198.622H259C258.803 198.72 258.803 198.72 258.803 198.622ZM261.952 198.13V197.933L262.05 197.835H262.149L263.723 197.54H263.92L264.018 197.638V197.933L263.92 198.032H263.822L262.247 198.327C262.221 198.327 262.196 198.316 262.178 198.298C262.159 198.28 262.149 198.255 262.149 198.228C261.952 198.228 261.952 198.13 261.952 198.13ZM265.101 197.54V197.343L265.199 197.244H265.298L266.872 196.949H267.069L267.167 197.048V197.146L267.069 197.244L265.495 197.54C265.468 197.54 265.443 197.529 265.425 197.511C265.406 197.492 265.396 197.467 265.396 197.441C265.306 197.494 265.205 197.528 265.101 197.54ZM268.25 196.851V196.654L268.348 196.556H268.447C268.982 196.471 269.509 196.339 270.021 196.162H270.218L270.316 196.26V196.556L270.218 196.654C269.685 196.75 269.159 196.882 268.643 197.048C268.617 197.048 268.592 197.037 268.574 197.019C268.555 197 268.545 196.975 268.545 196.949C268.438 196.954 268.333 196.919 268.25 196.851ZM271.399 196.162V195.965L271.497 195.867H271.596C272.186 195.67 272.678 195.571 273.17 195.375H273.367L273.465 195.473V195.768H273.367C272.875 195.965 272.383 196.063 271.792 196.26H271.596C271.544 196.204 271.474 196.169 271.399 196.162ZM274.449 195.079V194.784H274.548C275.237 194.489 275.433 194.194 275.433 194.095C275.433 193.997 275.532 193.899 275.532 193.8V193.702L275.63 193.603H275.827C275.925 193.603 275.925 193.603 275.925 193.702V193.899C275.925 193.997 275.827 194.095 275.827 194.194C275.729 194.489 275.335 194.784 274.744 195.079H274.646C274.646 195.276 274.548 195.178 274.449 195.079ZM275.925 192.619C275.827 192.619 275.827 192.619 275.827 192.521V192.324C275.827 191.832 275.925 191.34 275.925 190.75C275.925 190.651 275.925 190.651 276.024 190.651L276.122 190.553C276.221 190.553 276.221 190.553 276.221 190.651L276.319 190.75C276.342 191.276 276.309 191.804 276.221 192.324C276.221 192.422 276.221 192.422 276.122 192.422C276.024 192.619 276.024 192.619 275.925 192.619ZM275.827 189.175V187.404H276.221V189.372H275.827C275.925 189.273 275.925 189.273 275.827 189.175Z" fill="#8D4BC3"></path><path d="M217.965 229.718C218.064 229.718 218.064 229.718 218.162 229.62L218.654 229.03C218.654 229.03 218.752 228.931 218.654 228.931C218.556 228.931 218.654 228.833 218.556 228.833C218.457 228.833 218.457 228.734 218.457 228.833C218.457 228.931 218.359 228.833 218.359 228.931L217.867 229.522V229.62C217.867 229.718 217.867 229.718 217.965 229.718Z" fill="#8D4BC3"></path></g><g opacity="0.22"><path d="M256.54 185.928C257.135 186.87 257.989 187.622 259 188.093C257.244 185.938 256.09 183.358 255.654 180.614C255.196 177.912 254.538 175.247 253.686 172.643C253.227 173.734 253.157 174.95 253.489 176.087C253.981 178.744 254.375 181.499 254.768 184.156C254.965 185.534 255.162 186.813 255.359 188.191C255.316 189.14 255.593 190.076 256.146 190.848C256.736 191.438 257.917 192.422 258.803 192.226C258.409 191.143 257.721 190.159 257.327 189.077C257.118 188.567 256.954 188.04 256.835 187.502C256.638 187.108 256.736 186.223 256.54 185.928Z" fill="#8D4BC3"></path></g><path d="M246.601 165.361L246.404 165.065L246.01 165.361L246.207 165.656L246.601 165.361Z" fill="#6B1A42"></path><path d="M246.995 165.557L246.798 165.262H246.699L243.058 167.526V167.624L243.255 167.919H243.354L246.995 165.557Z" fill="#6B1A42"></path><path d="M246.699 164.967L245.912 163.688L237.154 169.1L237.941 170.379L246.699 164.967Z" fill="#E9A8FF"></path><g opacity="0.29"><path d="M246.404 164.475C246.207 164.573 240.598 167.919 237.449 169.592L237.941 170.379L246.699 164.967L246.404 164.475Z" fill="#E9A8FF"></path></g><path d="M237.941 170.379L236.465 170.675H236.367V170.478L237.252 169.198L237.941 170.379Z" fill="#E9A8FF"></path><g opacity="0.29"><path d="M237.941 170.379L236.465 170.675H236.367C236.341 170.675 236.316 170.664 236.297 170.646C236.279 170.627 236.268 170.602 236.268 170.576L236.465 170.379C236.76 170.084 237.056 169.887 237.351 169.592L237.941 170.379Z" fill="#E9A8FF"></path></g><path d="M236.367 170.182L236.268 170.379V170.576C236.268 170.602 236.279 170.627 236.297 170.646C236.316 170.664 236.341 170.675 236.367 170.675H236.662C236.586 170.498 236.487 170.333 236.367 170.182Z" fill="black"></path><path d="M246.994 164.77L246.207 163.392L245.813 163.589L246.601 164.967L246.994 164.77Z" fill="#6B1A42"></path><g opacity="0.41"><path d="M246.995 164.77L246.601 164.18L246.207 164.376L246.601 164.967L246.995 164.77Z" fill="#6B1A42"></path></g><path d="M247.191 163.196L247.683 163.884V163.983C247.683 163.996 247.681 164.009 247.676 164.02C247.671 164.032 247.664 164.043 247.655 164.052C247.645 164.062 247.635 164.069 247.623 164.074C247.611 164.079 247.598 164.081 247.585 164.081L246.896 164.573L246.306 163.589L246.995 163.097C246.995 163.196 247.093 163.196 247.191 163.196Z" fill="#E9A8FF"></path><path d="M237.548 168.706C238.181 167.4 239.215 166.332 240.5 165.656C240.901 165.433 241.332 165.267 241.779 165.164C242.781 165.045 243.796 165.18 244.731 165.557C245.84 165.99 246.924 166.482 247.979 167.033L250.931 168.51C251.128 168.608 264.019 173.43 264.806 173.036C265.593 172.643 267.266 164.475 267.266 164.475C267.266 164.475 273.072 165.361 274.942 169.198C274.942 169.1 271.399 179.925 268.152 180.417C265.397 180.81 252.407 173.331 250.734 172.643C250.441 172.692 250.142 172.692 249.848 172.643C246.503 172.544 247.093 170.674 246.896 170.576L246.995 170.478C246.351 170.665 245.693 170.797 245.027 170.871C244.731 170.871 244.436 170.97 244.338 170.674C244.317 170.629 244.305 170.581 244.304 170.531C244.303 170.481 244.311 170.432 244.33 170.386C244.348 170.34 244.376 170.298 244.411 170.263C244.446 170.228 244.488 170.201 244.535 170.182C244.943 169.675 245.405 169.213 245.912 168.805L242.665 170.576C242.563 170.639 242.449 170.681 242.331 170.697C242.212 170.714 242.091 170.707 241.976 170.674C241.779 170.576 241.878 170.281 241.976 170.084C242.554 169.112 243.366 168.3 244.338 167.722L242.173 169.1L240.697 169.986C240.205 170.182 239.614 170.478 239.122 170.182C239.096 170.182 239.071 170.172 239.053 170.154C239.034 170.135 239.024 170.11 239.024 170.084C239.024 170.071 239.021 170.058 239.016 170.046C239.011 170.034 239.004 170.024 238.995 170.014C238.986 170.005 238.975 169.998 238.963 169.993C238.951 169.988 238.938 169.986 238.925 169.986V169.789C239.636 168.684 240.576 167.744 241.681 167.033L238.827 168.903C238.433 169.1 238.04 169.395 237.548 169.198C237.497 169.194 237.449 169.172 237.413 169.136C237.377 169.1 237.355 169.052 237.351 169.002V168.805C237.548 168.805 237.548 168.706 237.548 168.706Z" fill="#EFDCB4"></path><path d="M275.532 173.036C274.942 173.036 274.45 172.938 273.859 172.938C271.368 172.643 268.942 171.945 266.675 170.871C265.425 170.326 264.264 169.596 263.231 168.706C264.018 166.64 264.707 164.573 265.101 163.392C265.598 161.61 266.434 159.94 267.561 158.472C268.447 157.39 271.104 154.831 274.056 156.701C274.253 156.799 274.351 156.898 274.548 156.996C274.745 157.094 274.843 157.291 275.04 157.39C277.205 159.358 277.697 162.802 277.5 165.754C277.483 166.349 277.417 166.941 277.303 167.525C276.91 169.395 276.516 171.265 275.926 173.135C275.81 173.056 275.671 173.022 275.532 173.036Z" fill="#377DFF"></path><path opacity="0.14" d="M274.843 164.868C275.384 162.917 275.584 160.886 275.433 158.866C275.45 158.47 275.416 158.073 275.335 157.685C277.205 159.751 277.598 162.9 277.401 165.656C277.385 166.251 277.319 166.843 277.205 167.427C276.811 169.297 276.417 171.167 275.827 173.036H275.433C274.843 173.036 274.351 172.938 273.76 172.938C272.494 172.78 271.243 172.517 270.021 172.151C272.403 170.335 274.102 167.77 274.843 164.868Z" fill="#EC3D0C"></path><path d="M257.327 152.076L263.92 149.123L265.692 154.241C265.773 154.495 265.806 154.762 265.79 155.028C265.753 155.279 265.651 155.516 265.495 155.717C264.707 156.701 263.133 158.374 260.968 158.472C259.984 158.472 259.689 157.193 259.689 157.193L257.327 152.076Z" fill="#EFDCB4"></path><path d="M257.228 155.717C262.838 154.733 264.117 148.927 263.92 148.73C263.73 148.65 263.523 148.617 263.318 148.634C263.112 148.651 262.914 148.718 262.739 148.828C259.787 150.009 255.851 152.272 255.556 153.453C255.26 154.634 256.441 155.913 257.228 155.717Z" fill="#EFDCB4"></path><path d="M244.042 142.825C244.425 144.893 245.053 146.909 245.912 148.828C245.949 148.867 245.977 148.914 245.994 148.965C246.011 149.016 246.017 149.07 246.01 149.123C246.01 149.149 246.021 149.175 246.039 149.193C246.058 149.211 246.083 149.222 246.109 149.222C246.974 150.981 248.178 152.553 249.651 153.847C249.974 154.132 250.339 154.365 250.734 154.536C252.138 155.094 253.653 155.314 255.158 155.177C256.662 155.04 258.114 154.551 259.394 153.748C265.987 149.812 268.939 141.448 263.92 134.658C263.814 134.475 263.681 134.309 263.527 134.166C261.664 131.896 259.104 130.305 256.245 129.639C248.963 128.064 242.173 133.575 244.042 142.825Z" fill="#EFDCB4"></path><g opacity="0.3"><path d="M260.968 153.847C259.895 154.513 258.777 155.105 257.622 155.618C255.439 156.643 252.96 156.853 250.635 156.209C249.197 155.745 247.861 155.01 246.699 154.044C244.698 151.633 243.254 148.81 242.468 145.777C241.454 141.941 241.802 137.872 243.452 134.264C243.944 133.28 244.534 132.296 245.518 132.197C245.06 135.324 244.896 138.487 245.026 141.644C245.134 144.789 246.16 147.834 247.979 150.403C249.36 152.368 251.385 153.788 253.704 154.417C256.022 155.046 258.488 154.844 260.673 153.847C261.467 153.471 262.198 152.973 262.838 152.371C262.247 152.863 261.657 153.355 260.968 153.847Z" fill="#EFDCB4"></path></g><path d="M263.92 140.562C264.117 138.889 265.101 137.511 266.971 137.61C267.289 137.617 267.598 137.72 267.856 137.905C268.128 138.058 268.338 138.302 268.447 138.594C268.757 139.098 268.927 139.675 268.939 140.267C269.014 141.014 268.931 141.769 268.693 142.481C268.456 143.193 268.07 143.847 267.561 144.4C267.368 144.626 267.126 144.806 266.853 144.925C266.58 145.045 266.284 145.1 265.987 145.089C265.606 145.005 265.252 144.825 264.96 144.567C264.667 144.309 264.445 143.98 264.314 143.613C263.876 142.659 263.739 141.595 263.92 140.562Z" fill="#EFDCB4"></path><g opacity="0.3"><path d="M265.494 138.791C265.273 139.367 265.01 139.926 264.707 140.464C264.51 140.857 264.412 141.251 263.822 140.857V140.562C264.018 139.086 264.904 137.61 266.577 137.61C266.19 137.979 265.828 138.373 265.494 138.791Z" fill="#EFDCB4"></path></g><path d="M267.364 139.086C267.273 139.038 267.172 139.012 267.069 139.012C266.966 139.012 266.865 139.038 266.774 139.086C266.553 139.177 266.352 139.311 266.183 139.48C266.015 139.649 265.881 139.849 265.79 140.07C265.588 140.501 265.487 140.972 265.494 141.448C265.475 141.909 265.508 142.371 265.593 142.825C265.593 142.924 265.79 142.924 265.79 142.825C265.659 142.034 265.726 141.222 265.987 140.464C265.987 140.365 266.085 140.267 266.085 140.168C266.369 140.455 266.602 140.788 266.774 141.152C266.855 141.607 266.888 142.069 266.872 142.53C267.048 142.093 267.083 141.611 266.971 141.152C266.864 140.675 266.584 140.254 266.183 139.972C266.261 139.796 266.401 139.655 266.577 139.578C266.728 139.498 266.899 139.464 267.069 139.48C267.266 139.48 267.364 139.578 267.561 139.676C267.574 139.676 267.587 139.674 267.599 139.669C267.611 139.664 267.621 139.657 267.631 139.648C267.64 139.638 267.647 139.628 267.652 139.616C267.657 139.604 267.659 139.591 267.659 139.578C267.675 139.474 267.654 139.369 267.6 139.279C267.546 139.189 267.463 139.121 267.364 139.086Z" fill="#EFDCB4"></path><path d="M255.359 143.121C255.513 143.062 255.646 142.959 255.742 142.824C255.838 142.69 255.892 142.53 255.897 142.365C255.902 142.2 255.859 142.037 255.771 141.897C255.684 141.757 255.557 141.646 255.407 141.577C255.257 141.509 255.09 141.487 254.927 141.513C254.764 141.54 254.612 141.614 254.492 141.726C254.371 141.839 254.286 141.984 254.247 142.145C254.209 142.305 254.219 142.474 254.276 142.629C254.31 142.736 254.365 142.835 254.44 142.919C254.514 143.003 254.605 143.07 254.707 143.117C254.81 143.163 254.921 143.188 255.033 143.188C255.145 143.189 255.256 143.166 255.359 143.121Z" fill="#093A66"></path><path d="M248.569 145.286C248.677 145.178 248.75 145.042 248.78 144.893C248.81 144.744 248.795 144.589 248.737 144.449C248.679 144.308 248.581 144.188 248.455 144.103C248.328 144.019 248.18 143.974 248.028 143.974C247.876 143.974 247.727 144.019 247.601 144.103C247.475 144.188 247.376 144.308 247.318 144.449C247.26 144.589 247.245 144.744 247.275 144.893C247.305 145.042 247.379 145.178 247.487 145.286C247.544 145.377 247.624 145.452 247.719 145.505C247.813 145.557 247.92 145.584 248.028 145.584C248.136 145.584 248.242 145.557 248.337 145.505C248.432 145.452 248.511 145.377 248.569 145.286Z" fill="#093A66"></path><path d="M256.638 139.676C256.251 139.342 255.77 139.135 255.26 139.086C254.76 139.005 254.246 139.073 253.784 139.283" stroke="#093A66" stroke-width="0.525939" stroke-miterlimit="10" stroke-linecap="round"></path><path d="M247.585 141.251C247.098 141.225 246.613 141.329 246.18 141.554C245.747 141.779 245.383 142.116 245.125 142.53" stroke="#093A66" stroke-width="0.525939" stroke-miterlimit="10" stroke-linecap="round"></path><path d="M249.946 143.613C249.926 145.124 249.991 146.635 250.143 148.139C250.242 148.73 250.537 149.419 251.324 148.631L252.899 147.057" stroke="#093A66" stroke-width="0.525939" stroke-miterlimit="10" stroke-linecap="round"></path><path d="M252.21 150.304C252.759 150.439 253.333 150.437 253.882 150.3C254.43 150.163 254.937 149.894 255.359 149.517" stroke="#093A66" stroke-width="0.525939" stroke-miterlimit="10" stroke-linecap="round"></path><path d="M128.418 267.506H126.253L133.436 182.582H139.341L128.418 267.506Z" fill="black"></path><path d="M247.487 267.506H249.652L242.468 182.582H236.564L247.487 267.506Z" fill="black"></path><path d="M245.814 175.201H130.09V184.452H245.814V175.201Z" fill="#004CC2"></path><g opacity="0.45"><path d="M245.814 175.201H130.09V178.842H245.814V175.201Z" fill="#004CC2"></path></g><path d="M129.205 172.544H246.699C247.139 172.56 247.559 172.735 247.88 173.036C248.037 173.19 248.162 173.374 248.246 173.577C248.331 173.779 248.374 173.997 248.372 174.217V177.169H127.63V174.217C127.646 173.777 127.821 173.357 128.122 173.036C128.248 172.871 128.412 172.739 128.601 172.653C128.79 172.567 128.998 172.53 129.205 172.544Z" fill="#004CC2"></path><path d="M268.152 138.299C268.152 138.299 263.428 135.445 263.822 143.121C263.822 143.613 262.936 144.4 262.444 143.613C261.952 142.825 261.46 138.2 259.492 137.315C257.524 136.429 256.146 136.724 255.458 135.642C255.261 135.937 253.391 137.019 252.21 135.839C251.62 136.035 246.896 139.775 244.633 135.445C243.846 137.807 243.058 138.496 244.239 144.006C242.862 141.251 240.205 141.546 241.877 138.003C241.189 137.118 238.433 118.716 259.787 124.423C259.787 124.423 261.559 125.506 262.248 125.014C262.936 124.522 263.527 123.538 264.019 124.915C264.511 126.293 265.003 127.376 265.692 126.982C266.381 126.588 268.25 126.392 268.152 127.966C268.054 129.541 267.758 130.426 268.939 131.312C270.12 132.197 270.022 136.823 268.152 138.299Z" fill="#093A66"></path><path d="M180.965 230.703C180.965 230.604 180.375 227.357 182.146 225.389C182.633 224.89 183.215 224.494 183.857 224.223C184.499 223.953 185.189 223.813 185.886 223.813C186.583 223.813 187.272 223.953 187.915 224.223C188.557 224.494 189.138 224.89 189.625 225.389C191.396 227.357 190.904 230.604 190.904 230.703L188.739 230.407C188.92 229.139 188.641 227.847 187.952 226.766C187.678 226.476 187.339 226.253 186.963 226.116C186.587 225.98 186.184 225.933 185.787 225.979C185.406 225.945 185.021 225.997 184.663 226.134C184.305 226.27 183.983 226.487 183.721 226.766C182.638 228.046 183.032 230.309 183.032 230.407L180.965 230.703Z" fill="#004CC2"></path><path d="M168.566 254.025C168.873 254.094 169.193 254.067 169.483 253.946C169.773 253.825 170.019 253.617 170.186 253.351C170.352 253.085 170.432 252.773 170.414 252.46C170.396 252.146 170.281 251.846 170.084 251.6C169.888 251.355 169.62 251.177 169.318 251.09C169.016 251.004 168.695 251.013 168.398 251.117C168.102 251.221 167.845 251.415 167.664 251.672C167.482 251.928 167.385 252.235 167.386 252.549C167.35 252.901 167.453 253.252 167.674 253.529C167.895 253.805 168.215 253.983 168.566 254.025Z" fill="#4587BA"></path><path d="M203.303 254.025C203.609 254.094 203.93 254.067 204.22 253.946C204.51 253.825 204.755 253.617 204.922 253.351C205.089 253.085 205.169 252.773 205.15 252.46C205.132 252.146 205.017 251.846 204.821 251.6C204.625 251.355 204.357 251.177 204.055 251.09C203.753 251.004 203.431 251.013 203.135 251.117C202.839 251.221 202.582 251.415 202.4 251.672C202.219 251.928 202.122 252.235 202.122 252.549C202.103 252.897 202.213 253.24 202.43 253.513C202.648 253.785 202.959 253.967 203.303 254.025Z" fill="#4587BA"></path><path d="M171.814 248.514H168.96C168.725 248.514 168.5 248.608 168.334 248.774C168.168 248.94 168.074 249.165 168.074 249.4V260.126C168.074 260.361 168.168 260.586 168.334 260.753C168.5 260.919 168.725 261.012 168.96 261.012H171.814C172.049 261.012 172.274 260.919 172.44 260.753C172.606 260.586 172.699 260.361 172.699 260.126V249.4C172.699 249.165 172.606 248.94 172.44 248.774C172.274 248.608 172.049 248.514 171.814 248.514Z" fill="#CFEAF5"></path><path d="M202.909 248.514H200.056C199.821 248.514 199.595 248.608 199.429 248.774C199.263 248.94 199.17 249.165 199.17 249.4V260.126C199.17 260.361 199.263 260.586 199.429 260.753C199.595 260.919 199.821 261.012 200.056 261.012H202.909C203.144 261.012 203.37 260.919 203.536 260.753C203.702 260.586 203.795 260.361 203.795 260.126V249.4C203.795 249.165 203.702 248.94 203.536 248.774C203.37 248.608 203.144 248.514 202.909 248.514Z" fill="#CFEAF5"></path><path d="M199.466 237.197C196.612 244.676 192.676 252.057 185.886 256.19C184.031 257.282 182.047 258.142 179.981 258.748C176.829 259.583 173.596 260.078 170.338 260.225L170.731 245.857V244.381C170.668 241.681 171.306 239.011 172.582 236.631C173.858 234.251 175.73 232.242 178.013 230.801C178.407 230.604 185.099 226.668 192.282 229.915C195.393 231.513 197.911 234.065 199.466 237.197Z" fill="#EF5C54"></path><path d="M201.533 245.562L202.713 263.767C202.731 264.232 202.797 264.694 202.91 265.145C202.959 265.253 202.984 265.371 202.984 265.489C202.984 265.608 202.959 265.726 202.91 265.834C202.615 267.015 200.844 267.9 198.482 267.9H173.29C172.68 267.962 172.063 267.888 171.485 267.684C170.906 267.48 170.38 267.151 169.944 266.719C169.587 266.127 169.415 265.442 169.452 264.751C169.469 264.059 169.535 263.368 169.649 262.685C169.833 261.853 170.063 261.031 170.338 260.225C173.59 259.915 176.815 259.356 179.982 258.552C182.011 258.064 183.964 257.303 185.787 256.288C192.578 252.155 196.514 244.775 199.368 237.296C200.633 239.557 201.341 242.087 201.434 244.676C201.515 244.964 201.549 245.263 201.533 245.562Z" fill="#DE4437"></path><path d="M197.694 253.238V261.405C197.71 261.832 197.63 262.257 197.46 262.649C197.289 263.041 197.033 263.389 196.71 263.669C196.417 263.974 196.066 264.218 195.677 264.387C195.289 264.556 194.871 264.646 194.447 264.653H177.423C177.022 264.644 176.624 264.577 176.242 264.456C175.835 264.309 175.465 264.074 175.159 263.768C174.853 263.462 174.618 263.092 174.471 262.685C174.31 262.313 174.243 261.908 174.274 261.504V253.336C174.258 252.909 174.338 252.484 174.508 252.093C174.679 251.701 174.935 251.352 175.258 251.073C175.551 250.767 175.903 250.523 176.291 250.354C176.679 250.186 177.098 250.095 177.521 250.089H194.644C195.071 250.073 195.496 250.153 195.887 250.323C196.279 250.494 196.628 250.75 196.907 251.073C197.426 251.674 197.706 252.444 197.694 253.238Z" fill="#004CC2"></path><path d="M199.367 247.432C199.269 247.432 199.171 247.333 199.072 247.333C199.035 247.294 199.007 247.248 198.99 247.197C198.973 247.146 198.967 247.092 198.974 247.038C198.974 246.94 199.269 239.559 194.939 235.033C192.774 232.769 189.724 231.588 185.886 231.588C184.221 231.512 182.559 231.778 181.001 232.37C179.444 232.963 178.025 233.869 176.832 235.033C172.601 239.559 172.896 246.94 172.896 247.038C172.896 247.143 172.855 247.243 172.781 247.316C172.707 247.39 172.607 247.432 172.502 247.432C172.398 247.432 172.298 247.39 172.224 247.316C172.15 247.243 172.109 247.143 172.109 247.038C172.093 245.52 172.225 244.004 172.502 242.511C172.982 239.48 174.313 236.648 176.34 234.344C178.976 231.939 182.416 230.605 185.984 230.605C189.552 230.605 192.992 231.939 195.628 234.344C197.672 236.637 199.005 239.474 199.466 242.511C199.747 244.003 199.879 245.52 199.859 247.038C199.859 247.137 199.761 247.235 199.761 247.333C199.564 247.333 199.466 247.432 199.367 247.432Z" fill="#DE4437"></path><path d="M172.207 246.546L171.223 248.514V248.711C171.223 248.81 171.223 248.81 171.322 248.908C171.322 248.934 171.332 248.959 171.35 248.978C171.369 248.996 171.394 249.006 171.42 249.006H173.683C173.709 249.006 173.734 248.996 173.753 248.978C173.771 248.959 173.782 248.934 173.782 248.908C173.782 248.81 173.88 248.81 173.88 248.711V248.514L172.896 246.546C172.896 246.448 172.798 246.448 172.798 246.349C172.798 246.251 172.699 246.251 172.601 246.251C172.502 246.251 172.502 246.251 172.404 246.349L172.207 246.546Z" fill="#E7E8F3"></path><path d="M195.923 253.139H175.848C175.75 253.139 175.75 253.041 175.651 253.041L175.553 252.942V252.549C175.553 252.523 175.563 252.498 175.582 252.479C175.6 252.461 175.625 252.45 175.651 252.45C175.704 252.397 175.774 252.362 175.848 252.352H196.12C196.218 252.352 196.218 252.45 196.317 252.45L196.415 252.549V252.942C196.415 252.955 196.413 252.968 196.408 252.98C196.403 252.992 196.395 253.003 196.386 253.012C196.377 253.021 196.366 253.028 196.354 253.033C196.342 253.038 196.33 253.041 196.317 253.041C196.264 253.094 196.195 253.129 196.12 253.139H195.923Z" fill="white"></path><g opacity="0.45"><path d="M197.695 253.238V261.405C197.71 261.832 197.63 262.257 197.46 262.649C197.29 263.041 197.033 263.389 196.711 263.669C196.417 263.974 196.066 264.218 195.677 264.387C195.289 264.556 194.871 264.646 194.447 264.653H177.423C176.871 264.675 176.325 264.538 175.848 264.259C175.363 263.97 174.957 263.564 174.667 263.078H191.298C192.735 263.082 194.115 262.516 195.136 261.504C196.132 260.473 196.695 259.099 196.711 257.666V251.073C197.029 251.369 197.266 251.742 197.399 252.155C197.601 252.48 197.703 252.856 197.695 253.238Z" fill="#004CC2"></path></g><path d="M176.34 237.493C175.523 238.622 175.015 239.945 174.864 241.331C174.864 241.626 174.864 241.921 175.159 241.921C175.213 241.927 175.267 241.922 175.318 241.905C175.369 241.888 175.416 241.86 175.455 241.823C175.916 241.492 176.288 241.053 176.537 240.543C177.967 238.44 179.653 236.523 181.556 234.836C181.834 234.645 182.041 234.369 182.146 234.048C182.215 233.9 182.233 233.732 182.197 233.572C182.162 233.412 182.075 233.268 181.949 233.163C181.802 233.074 181.628 233.039 181.457 233.064C179.391 233.064 177.423 235.82 176.34 237.493Z" fill="#CFEAF5"></path><path d="M183.425 232.375C183.228 232.572 183.032 232.868 183.13 233.064C183.204 233.172 183.313 233.251 183.439 233.287C183.565 233.323 183.699 233.314 183.819 233.261C184.473 233.25 185.114 233.081 185.689 232.769C185.739 232.765 185.787 232.743 185.823 232.707C185.859 232.671 185.881 232.623 185.885 232.572V232.375C185.885 232.277 185.787 232.277 185.787 232.179C185.679 232.075 185.541 232.006 185.393 231.982C185.059 231.875 184.703 231.855 184.358 231.924C184.014 231.993 183.693 232.148 183.425 232.375Z" fill="#CFEAF5"></path><path d="M185.787 157.39H183.622C183.52 157.397 183.424 157.44 183.351 157.513C183.279 157.585 183.235 157.681 183.228 157.783V159.063C183.235 159.165 183.279 159.261 183.351 159.333C183.424 159.406 183.52 159.449 183.622 159.456H185.787C185.889 159.449 185.985 159.406 186.058 159.333C186.13 159.261 186.174 159.165 186.181 159.063V157.783C186.174 157.681 186.13 157.585 186.058 157.513C185.985 157.44 185.889 157.397 185.787 157.39Z" fill="black"></path><path d="M194.25 170.281H179.292C179.19 170.288 179.094 170.331 179.022 170.404C178.949 170.476 178.906 170.572 178.899 170.674V172.052C178.906 172.154 178.949 172.25 179.022 172.323C179.094 172.395 179.19 172.439 179.292 172.446H194.25C194.352 172.439 194.448 172.395 194.521 172.323C194.593 172.25 194.637 172.154 194.644 172.052V170.674C194.545 170.478 194.447 170.281 194.25 170.281Z" fill="black"></path><path d="M187.952 170.281H185.394L181.162 149.517H183.721L187.952 170.281Z" fill="black"></path><path d="M183.327 141.94L182.441 142.137C182.343 142.137 182.245 142.333 182.245 142.432L185.984 157.882C185.984 157.98 186.181 158.078 186.279 158.078L187.165 157.882C187.263 157.882 187.362 157.685 187.362 157.586L183.622 142.137C183.622 142.038 183.524 141.94 183.327 141.94Z" fill="#004CC2"></path><path d="M183.622 144.4L183.229 144.498C183.203 144.498 183.178 144.509 183.159 144.527C183.141 144.546 183.13 144.571 183.13 144.597L183.918 148.041C183.918 148.067 183.928 148.092 183.946 148.111C183.965 148.129 183.99 148.139 184.016 148.139L184.41 148.041C184.436 148.041 184.461 148.031 184.479 148.012C184.498 147.994 184.508 147.969 184.508 147.943L183.721 144.498C183.721 144.4 183.721 144.4 183.622 144.4Z" fill="#F2F5FF"></path><path d="M184.705 148.631L184.311 148.73C184.285 148.73 184.26 148.74 184.241 148.759C184.223 148.777 184.213 148.802 184.213 148.828L184.508 150.009C184.508 150.035 184.518 150.06 184.537 150.079C184.555 150.097 184.58 150.107 184.606 150.107L185 150.009C185.026 150.009 185.051 149.999 185.069 149.98C185.088 149.962 185.098 149.937 185.098 149.911L184.803 148.73C184.803 148.704 184.793 148.679 184.774 148.66C184.756 148.642 184.731 148.631 184.705 148.631Z" fill="#F2F5FF"></path><path d="M179.194 153.552C179.466 153.552 179.733 153.471 179.959 153.32C180.186 153.168 180.362 152.953 180.467 152.701C180.571 152.45 180.598 152.173 180.545 151.905C180.492 151.638 180.361 151.393 180.168 151.2C179.975 151.007 179.73 150.876 179.463 150.823C179.195 150.77 178.918 150.797 178.667 150.901C178.415 151.006 178.2 151.182 178.048 151.409C177.897 151.635 177.816 151.902 177.816 152.174C177.824 152.537 177.971 152.883 178.228 153.14C178.485 153.397 178.831 153.544 179.194 153.552Z" fill="#C1CBE5"></path><path d="M174.274 152.568C175.005 152.568 175.705 152.277 176.222 151.761C176.739 151.244 177.029 150.543 177.029 149.812C177.029 149.081 176.739 148.381 176.222 147.864C175.705 147.347 175.005 147.057 174.274 147.057C173.548 147.072 172.856 147.367 172.342 147.881C171.829 148.394 171.534 149.086 171.518 149.812C171.509 150.177 171.574 150.539 171.709 150.878C171.844 151.216 172.047 151.524 172.304 151.782C172.562 152.039 172.87 152.242 173.208 152.377C173.547 152.512 173.909 152.577 174.274 152.568Z" fill="#C1CBE5"></path><path d="M166.893 150.6C167.789 150.6 168.664 150.334 169.408 149.837C170.153 149.339 170.733 148.632 171.076 147.805C171.418 146.978 171.508 146.068 171.333 145.19C171.158 144.312 170.727 143.505 170.094 142.872C169.461 142.239 168.655 141.808 167.777 141.633C166.898 141.458 165.988 141.548 165.161 141.891C164.334 142.233 163.627 142.814 163.13 143.558C162.632 144.302 162.367 145.178 162.367 146.073C162.365 146.668 162.482 147.257 162.709 147.807C162.936 148.356 163.269 148.856 163.69 149.277C164.11 149.697 164.61 150.031 165.16 150.258C165.709 150.485 166.299 150.601 166.893 150.6Z" fill="#C1CBE5"></path><path d="M160.104 2.59581H80.2978C79.9991 2.59048 79.7024 2.64538 79.4254 2.75723C79.1484 2.86909 78.8968 3.03561 78.6856 3.24685C78.4743 3.4581 78.3078 3.70974 78.1959 3.98675C78.0841 4.26376 78.0292 4.56047 78.0345 4.85917V142.727C78.0292 143.026 78.0841 143.322 78.1959 143.599C78.3078 143.876 78.4743 144.128 78.6856 144.339C78.8968 144.551 79.1484 144.717 79.4254 144.829C79.7024 144.941 79.9991 144.996 80.2978 144.99H160.104C160.402 144.996 160.699 144.941 160.976 144.829C161.253 144.717 161.505 144.551 161.716 144.339C161.927 144.128 162.094 143.876 162.206 143.599C162.317 143.322 162.372 143.026 162.367 142.727V4.76076C162.339 4.17853 162.089 3.6292 161.668 3.22629C161.246 2.82338 160.687 2.59768 160.104 2.59581Z" fill="#004CC2"></path><path d="M155.971 9.48424H84.4308C84.1321 9.47891 83.8354 9.5338 83.5584 9.64566C83.2814 9.75752 83.0297 9.92404 82.8185 10.1353C82.6072 10.3465 82.4407 10.5982 82.3289 10.8752C82.217 11.1522 82.1621 11.4489 82.1675 11.7476V126.982C82.1621 127.281 82.217 127.577 82.3289 127.854C82.4407 128.131 82.6072 128.383 82.8185 128.594C83.0297 128.805 83.2814 128.972 83.5584 129.084C83.8354 129.196 84.1321 129.251 84.4308 129.245H155.971C156.269 129.251 156.566 129.196 156.843 129.084C157.12 128.972 157.372 128.805 157.583 128.594C157.794 128.383 157.961 128.131 158.073 127.854C158.184 127.577 158.239 127.281 158.234 126.982V11.7476C158.239 11.4489 158.184 11.1522 158.073 10.8752C157.961 10.5982 157.794 10.3465 157.583 10.1353C157.372 9.92404 157.12 9.75752 156.843 9.64566C156.566 9.5338 156.269 9.47891 155.971 9.48424Z" fill="white"></path><path d="M122.218 132.394H116.51C116.278 132.393 116.047 132.438 115.831 132.526C115.616 132.615 115.42 132.745 115.255 132.91C115.09 133.075 114.96 133.271 114.871 133.486C114.783 133.702 114.738 133.933 114.739 134.166V139.873C114.738 140.106 114.783 140.337 114.871 140.553C114.96 140.768 115.09 140.964 115.255 141.129C115.42 141.293 115.616 141.424 115.831 141.512C116.047 141.601 116.278 141.646 116.51 141.645H122.218C122.451 141.646 122.682 141.601 122.897 141.512C123.113 141.424 123.309 141.293 123.473 141.129C123.638 140.964 123.769 140.768 123.857 140.553C123.946 140.337 123.991 140.106 123.989 139.873V134.166C123.991 133.933 123.946 133.702 123.857 133.486C123.769 133.271 123.638 133.075 123.473 132.91C123.309 132.745 123.113 132.615 122.897 132.526C122.682 132.438 122.451 132.393 122.218 132.394Z" fill="white"></path><path d="M94.0743 40.0887L96.8297 39.6951C96.8597 40.4048 97.0994 41.0897 97.5186 41.6632C97.69 41.8555 97.889 42.0213 98.109 42.1552C98.4923 42.3552 98.9362 42.4056 99.3545 42.2964C99.7728 42.1873 100.136 41.9265 100.372 41.5648C100.812 40.8955 101.02 40.1002 100.963 39.3014C101.008 38.5654 100.799 37.8361 100.372 37.2349L99.7819 36.6445C99.5332 36.533 99.2666 36.4663 98.9947 36.4476C98.5506 36.4404 98.1114 36.5417 97.7154 36.7429L98.0106 33.8891C98.3303 33.9139 98.6518 33.8745 98.956 33.7731C99.2602 33.6717 99.5411 33.5104 99.7819 33.2986C100.012 33.0704 100.186 32.7912 100.289 32.4835C100.391 32.1757 100.42 31.8482 100.372 31.5273C100.375 30.9946 100.202 30.4757 99.8803 30.0512C99.7639 29.8696 99.591 29.7313 99.3883 29.6576C99.17 29.5696 98.9336 29.5359 98.6994 29.5592C98.4591 29.5785 98.2249 29.6454 98.0106 29.756C97.7906 29.89 97.5916 30.0558 97.4202 30.248C97.2013 30.5041 97.0362 30.8016 96.9348 31.1228C96.8333 31.4441 96.7976 31.7824 96.8297 32.1178L94.1727 31.5273C94.3114 30.1808 94.8611 28.9096 95.7472 27.8863C96.1528 27.504 96.6334 27.2104 97.1586 27.024C97.6838 26.8376 98.2421 26.7627 98.7979 26.8038C99.4171 26.7768 100.034 26.8964 100.598 27.1529C101.163 27.4094 101.658 27.7956 102.045 28.2799C102.819 29.184 103.238 30.3377 103.226 31.5273C103.215 32.2754 103.047 33.0128 102.734 33.6923C102.342 34.3614 101.804 34.9333 101.16 35.3652C102.008 35.5841 102.744 36.1101 103.226 36.8413C103.763 37.6947 104.037 38.6872 104.013 39.6951C104.071 41.2112 103.542 42.6913 102.537 43.8281C102.103 44.3467 101.561 44.7648 100.95 45.0536C100.338 45.3425 99.671 45.4951 98.9947 45.501C98.3915 45.5072 97.7919 45.4073 97.2233 45.2058C96.6369 44.9955 96.1241 44.6195 95.7472 44.1233C94.8131 42.9674 94.2322 41.5665 94.0743 40.0887Z" fill="#DE4437"></path><path d="M111.394 44.9106V41.2696H105.292V38.219L111.787 26.7054H114.247V38.219H116.117V41.2696H114.247V44.9106H111.394ZM111.394 38.1206V31.921L107.949 38.1206H111.394Z" fill="#DE4437"></path><path d="M118.577 35.1685V31.7242H121.431V35.1685H118.577ZM118.577 44.9107V41.4665H121.431V44.9107H118.577Z" fill="#DE4437"></path><path d="M124.383 40.1871L127.237 39.7934C127.283 40.4696 127.522 41.1184 127.926 41.6632C128.094 41.8933 128.319 42.077 128.578 42.1972C128.837 42.3173 129.122 42.3701 129.407 42.3504C129.691 42.3308 129.967 42.2394 130.207 42.0849C130.447 41.9303 130.644 41.7175 130.779 41.4664C131.227 40.6556 131.432 39.7333 131.37 38.8094C131.434 37.9166 131.228 37.0253 130.779 36.2508C130.627 35.9787 130.383 35.7695 130.09 35.6604C129.808 35.5483 129.509 35.4819 129.205 35.4636C128.748 35.5061 128.306 35.6523 127.914 35.891C127.522 36.1298 127.189 36.4547 126.941 36.8413L124.58 36.4476L126.056 27.0006H133.633V30.248H128.221L127.729 33.2986C128.312 32.9122 128.997 32.7068 129.697 32.7082C130.28 32.6863 130.858 32.8223 131.37 33.1018C131.888 33.3384 132.356 33.6725 132.747 34.0859C133.86 35.3992 134.424 37.091 134.322 38.8094C134.306 40.3744 133.864 41.9055 133.043 43.2377C132.653 43.8704 132.1 44.3868 131.442 44.7329C130.784 45.0791 130.046 45.2424 129.303 45.2058C128.701 45.2038 128.103 45.1041 127.532 44.9106C126.953 44.6781 126.42 44.3449 125.957 43.9265C125.069 42.8664 124.52 41.5634 124.383 40.1871Z" fill="#DE4437"></path><path d="M135.994 40.6792L138.75 40.2856C138.848 41.6633 139.439 42.3522 140.324 42.3522C140.652 42.3477 140.972 42.2536 141.249 42.0801C141.527 41.9066 141.751 41.6603 141.899 41.3681C142.443 40.0591 142.711 38.6522 142.686 37.235C142.397 37.7208 141.991 38.1267 141.505 38.4159C141.06 38.6826 140.548 38.819 140.029 38.8095C139.426 38.7831 138.838 38.6185 138.309 38.3284C137.78 38.0383 137.325 37.6306 136.979 37.1366C136.062 35.8858 135.61 34.3548 135.699 32.8067C135.61 31.1825 136.098 29.5789 137.077 28.28C137.513 27.7185 138.081 27.2729 138.73 26.9824C139.38 26.6918 140.09 26.5653 140.8 26.6139C141.509 26.6625 142.196 26.8847 142.8 27.2611C143.403 27.6374 143.905 28.1563 144.261 28.7721C145.245 30.1498 145.737 32.5115 145.737 35.8573C145.737 39.2032 145.245 41.5649 144.162 43.041C143.749 43.7112 143.169 44.2629 142.479 44.6423C141.79 45.0217 141.013 45.2159 140.226 45.2059C139.72 45.2034 139.218 45.1032 138.75 44.9107C138.266 44.7082 137.83 44.4065 137.471 44.0251C136.598 43.1196 136.075 41.934 135.994 40.6792ZM142.489 33.0035C142.559 32.0661 142.317 31.132 141.8 30.3466C141.653 30.0831 141.439 29.8627 141.18 29.7074C140.921 29.552 140.626 29.4671 140.324 29.4609C140.062 29.4715 139.806 29.5495 139.582 29.6874C139.358 29.8252 139.173 30.0183 139.045 30.2482C138.624 31.0307 138.452 31.9236 138.553 32.8067C138.476 33.7005 138.682 34.5959 139.144 35.3653C139.284 35.6061 139.485 35.8056 139.727 35.9438C139.969 36.082 140.243 36.154 140.521 36.1525C140.795 36.1324 141.061 36.0513 141.299 35.915C141.538 35.7788 141.743 35.591 141.899 35.3653C142.351 34.6647 142.558 33.8344 142.489 33.0035Z" fill="#DE4437"></path><path d="M120.939 91.4571V121.471L99.7819 118.716C99.6835 108.875 99.3883 99.428 98.109 91.4571L98.0106 89.6858L120.939 91.4571Z" fill="#FF473A"></path><path d="M141.112 89.5874C140.373 99.0857 140.373 108.627 141.112 118.125L121.037 121.471V91.4571L141.112 89.5874Z" fill="#C61003"></path><path d="M141.111 89.5874V91.7523L121.037 94.0157L98.2072 91.3587L98.1088 89.5874L121.037 91.4571L141.111 89.5874Z" fill="#F9867C"></path><path d="M95.944 81.7148L120.348 79.0579L142.883 81.7148L120.151 85.7495L95.944 81.7148Z" fill="#FF473A"></path><path d="M142.489 90.1778L121.037 92.4412L96.7313 90.1778C96.8448 87.3068 96.6135 84.4325 96.0425 81.6165L120.84 84.0766L143.08 81.6165C142.395 84.4154 142.195 87.3113 142.489 90.1778Z" fill="#FF473A"></path><path d="M142.49 90.1778L121.037 92.4411L120.742 84.175L142.982 81.7148C142.375 84.4925 142.209 87.3485 142.49 90.1778Z" fill="#C61003"></path><path d="M107.457 82.7972L111.197 83.1909L111.787 120.192L108.835 119.798L107.457 82.7972Z" fill="#FFB200"></path><path d="M107.457 82.7973L129.205 80.0419L132.551 80.4355L111.197 83.1909L107.457 82.7973Z" fill="#FFB200"></path><path d="M129.795 83.1909V119.995L132.944 119.503L133.633 82.7972L129.795 83.1909Z" fill="#FFB200"></path><path d="M133.633 82.6988L111.197 80.0419L107.556 80.4355L129.894 83.0925L133.633 82.6988Z" fill="#FFB200"></path><path d="M118.774 78.5658C118.485 77.8592 118.156 77.1693 117.79 76.4992C116.314 72.563 115.035 68.5283 113.264 64.6905C112.083 62.1319 110.705 59.6717 108.442 57.9988C107.204 57.1072 105.734 56.5944 104.21 56.5227C103.069 56.5201 101.96 56.9014 101.061 57.6052C99.9969 58.5493 99.2999 59.8387 99.093 61.2462L99.3882 60.951C100.258 60.2632 101.33 59.8825 102.439 59.8685C103.979 59.8455 105.478 60.3684 106.67 61.3446C108.835 62.9191 110.311 65.4777 111.492 67.9379C112.772 70.5948 113.756 73.3502 114.74 76.0072C115.133 77.1881 115.625 78.4674 116.117 79.6482L116.413 80.2387H116.511C116.905 80.5339 119.66 82.6988 119.562 81.1243C119.422 80.2385 119.157 79.377 118.774 78.5658Z" fill="#FF473A"></path><path d="M116.314 80.2386C114.936 79.2545 113.46 78.3688 111.984 77.4832C109.126 75.8401 106.454 73.8935 104.013 71.6772C101.926 69.9176 100.332 67.6455 99.3882 65.084C98.9976 63.8103 98.8967 62.4654 99.093 61.1477L99.3882 60.8525C100.258 60.1646 101.33 59.784 102.439 59.77C102.193 61.1509 102.294 62.5712 102.734 63.9031C103.521 66.5601 105.391 68.6266 107.261 70.4963C109.56 72.5819 112.066 74.4283 114.74 76.0071C115.133 77.188 115.625 78.4672 116.117 79.6481C116.216 79.8449 116.216 80.0417 116.314 80.2386Z" fill="#C61003"></path><path d="M118.38 81.1242C118.38 82.8956 121.431 80.4354 121.923 80.1402H122.021C122.12 79.9434 122.218 79.6482 122.316 79.4513C122.808 78.0736 123.399 76.696 123.891 75.3183C124.973 72.1693 126.154 69.1187 127.532 66.0681C128.91 63.2143 130.484 60.3605 133.043 58.4908C134.467 57.4315 136.188 56.8463 137.963 56.8179C139.232 56.7916 140.463 57.249 141.407 58.0971L141.702 58.3924C141.471 56.7803 140.71 55.2914 139.538 54.1609C138.504 53.3346 137.22 52.8835 135.896 52.8816C134.146 52.8792 132.447 53.4687 131.075 54.5545C128.614 56.4242 126.941 59.278 125.564 62.2302C123.497 66.6585 122.021 71.2836 120.348 75.8103C120.053 76.4991 119.659 77.3848 119.266 78.1721C118.748 79.0754 118.445 80.0854 118.38 81.1242Z" fill="#FF473A"></path><path d="M122.021 80.0418C123.595 78.9593 125.268 77.9753 126.941 76.8928C130.192 74.9876 133.257 72.7801 136.093 70.2996C138.258 68.233 140.423 65.7729 141.407 62.8207C141.878 61.3609 142.013 59.8132 141.801 58.294L141.505 57.9988C140.529 57.2057 139.319 56.7561 138.061 56.7195C138.356 58.2941 138.255 59.9174 137.766 61.443C136.782 64.4936 134.715 66.8553 132.55 69.0203C129.948 71.3985 127.113 73.5085 124.088 75.3183C123.596 76.696 123.103 78.0737 122.513 79.4514C122.294 79.5945 122.122 79.8002 122.021 80.0418Z" fill="#C61003"></path><path d="M117.101 80.4355C113.31 82.0675 109.844 84.3674 106.867 87.2256C104.013 90.2762 102.242 94.4093 102.832 98.4439C104.054 97.1482 105.444 96.0229 106.965 95.0981C107.554 96.2814 108.394 97.3223 109.425 98.1487C108.603 94.6943 109.168 91.055 111 88.0128C112.793 84.9658 115.678 82.7144 119.069 81.7148C118.452 81.2321 117.793 80.8041 117.101 80.4355Z" fill="#FF473A"></path><path d="M120.84 80.4355C124.631 82.0675 128.098 84.3674 131.075 87.2256C133.928 90.2762 135.7 94.4093 135.109 98.4439C133.888 97.1482 132.498 96.0229 130.976 95.0981C130.387 96.2814 129.548 97.3223 128.516 98.1487C129.339 94.6943 128.773 91.055 126.942 88.0128C125.148 84.9658 122.264 82.7144 118.872 81.7148C119.49 81.2321 120.149 80.8041 120.84 80.4355Z" fill="#FF473A"></path><path d="M369.016 65.4777H252.997V68.4299H369.016V65.4777Z" fill="#C1CBE5"></path></svg>